<svg width="366" height="240" viewBox="0 0 366 240" fill="none" xmlns="http://www.w3.org/2000/svg">
<g clip-path="url(#clip0_117_15529)">
<mask id="mask0_117_15529" style="mask-type:luminance" maskUnits="userSpaceOnUse" x="0" y="0" width="366" height="240">
<path d="M365.5 0H0.5V240H365.5V0Z" fill="white"/>
</mask>
<g mask="url(#mask0_117_15529)">
<mask id="mask1_117_15529" style="mask-type:luminance" maskUnits="userSpaceOnUse" x="226" y="32" width="115" height="99">
<path d="M340.508 32.5117H226.508V130.512H340.508V32.5117Z" fill="white"/>
</mask>
<g mask="url(#mask1_117_15529)">
<path d="M243.819 105.432C242.335 105.432 241.133 104.229 241.133 102.745C241.133 101.262 242.335 100.059 243.819 100.059C245.302 100.059 246.504 101.262 246.504 102.745C246.504 104.229 245.302 105.432 243.819 105.432Z" fill="#47A0E4"/>
<path d="M278.355 36.3497C277.297 36.3497 276.438 35.4897 276.438 34.4297C276.438 33.3697 277.297 32.5117 278.355 32.5117C279.415 32.5117 280.273 33.3697 280.273 34.4297C280.273 35.4897 279.415 36.3497 278.355 36.3497Z" fill="#0065B3"/>
<path d="M320.176 95.838C319.117 95.838 318.258 94.979 318.258 93.919C318.258 92.859 319.117 92 320.176 92C321.236 92 322.095 92.859 322.095 93.919C322.095 94.979 321.236 95.838 320.176 95.838Z" fill="#0065B3"/>
<path d="M253.028 89.3126C251.968 89.3126 251.109 88.4536 251.109 87.3936C251.109 86.3336 251.968 85.4746 253.028 85.4746C254.087 85.4746 254.946 86.3336 254.946 87.3936C254.946 88.4536 254.087 89.3126 253.028 89.3126Z" fill="#47A0E4"/>
<path d="M311.348 115.411C310.288 115.411 309.43 114.552 309.43 113.493C309.43 112.433 310.288 111.574 311.348 111.574C312.407 111.574 313.266 112.433 313.266 113.493C313.266 114.552 312.407 115.411 311.348 115.411Z" fill="#47A0E4"/>
<path d="M250.731 120.786C249.672 120.786 248.812 119.926 248.812 118.867C248.812 117.807 249.672 116.947 250.731 116.947C251.79 116.947 252.649 117.807 252.649 118.867C252.649 119.926 251.79 120.786 250.731 120.786Z" fill="#E8EFED"/>
<path d="M267.613 52.4689C266.554 52.4689 265.695 51.6099 265.695 50.5499C265.695 49.4899 266.554 48.6309 267.613 48.6309C268.673 48.6309 269.532 49.4899 269.532 50.5499C269.532 51.6099 268.673 52.4689 267.613 52.4689Z" fill="#08322F"/>
<path d="M340.114 73.5684C338.105 73.6954 336.155 74.2964 334.423 75.3224C332.692 76.3484 331.228 77.7704 330.152 79.4714C329.85 79.9534 329.456 80.4834 329.665 81.0774C329.738 81.3054 329.886 81.5014 330.084 81.6344C330.283 81.7674 330.521 81.8284 330.759 81.8084C331.056 81.7444 331.323 81.5844 331.52 81.3534C331.717 81.1224 331.833 80.8324 331.849 80.5294C331.865 80.2264 331.781 79.9264 331.61 79.6754C331.439 79.4244 331.19 79.2364 330.902 79.1414C329.508 78.5474 328.103 79.4664 326.968 80.1994C324.382 81.8704 321.538 83.3814 318.405 83.5714C315.506 83.7474 312.397 82.6104 310.785 80.0954C310.502 79.6554 311.203 79.2484 311.484 79.6864C313.083 82.1804 316.316 83.0754 319.127 82.6904C320.802 82.4254 322.419 81.8764 323.909 81.0664C324.682 80.6654 325.431 80.2204 326.165 79.7534C326.864 79.2654 327.604 78.8414 328.378 78.4844C329.668 77.9544 331.376 77.9954 332.278 79.2164C333.118 80.3554 332.469 82.2514 331.062 82.5714C330.754 82.6324 330.435 82.6164 330.134 82.5234C329.834 82.4304 329.561 82.2644 329.341 82.0404C329.12 81.8164 328.958 81.5404 328.87 81.2384C328.782 80.9364 328.771 80.6184 328.836 80.3104C328.976 79.6394 329.481 78.9834 329.872 78.4354C331.046 76.7834 332.576 75.4144 334.348 74.4324C336.121 73.4504 338.091 72.8784 340.114 72.7584C340.635 72.7324 340.633 73.5424 340.114 73.5684Z" fill="#08322F"/>
<path d="M226.661 98.0824C228.007 97.2154 229.128 96.0414 229.933 94.6574C230.738 93.2734 231.204 91.7184 231.292 90.1194C231.315 89.6674 231.383 89.1464 231.008 88.8154C230.869 88.6854 230.69 88.6064 230.501 88.5914C230.311 88.5764 230.122 88.6264 229.965 88.7324C229.783 88.8924 229.66 89.1064 229.612 89.3434C229.565 89.5804 229.597 89.8254 229.703 90.0424C229.809 90.2594 229.984 90.4354 230.2 90.5434C230.416 90.6514 230.662 90.6854 230.899 90.6394C232.097 90.5124 232.717 89.3284 233.221 88.3794C234.369 86.2164 235.759 84.0644 237.862 82.7174C239.807 81.4704 242.406 81.0554 244.501 82.1764C244.867 82.3724 244.538 82.9264 244.173 82.7314C242.096 81.6194 239.504 82.2504 237.701 83.6084C236.64 84.4414 235.73 85.4504 235.009 86.5914C234.628 87.1694 234.28 87.7684 233.951 88.3774C233.655 88.9874 233.305 89.5694 232.906 90.1174C232.216 90.9864 231.013 91.6184 229.914 91.1204C229.669 90.9934 229.458 90.8114 229.296 90.5884C229.134 90.3654 229.027 90.1064 228.982 89.8344C228.938 89.5624 228.958 89.2834 229.041 89.0204C229.123 88.7574 229.266 88.5174 229.458 88.3194C229.649 88.1574 229.877 88.0454 230.121 87.9934C230.366 87.9414 230.62 87.9514 230.86 88.0214C231.1 88.0914 231.319 88.2204 231.497 88.3954C231.675 88.5714 231.807 88.7874 231.881 89.0264C231.994 89.5884 231.996 90.1674 231.888 90.7304C231.713 92.3334 231.18 93.8764 230.33 95.2464C229.48 96.6164 228.333 97.7774 226.974 98.6444C226.623 98.8644 226.31 98.3014 226.661 98.0824Z" fill="#08322F"/>
<path d="M292.857 44.9486C294.455 44.8476 296.006 44.3696 297.383 43.5536C298.761 42.7376 299.925 41.6066 300.781 40.2536C301.021 39.8696 301.334 39.4486 301.168 38.9766C301.11 38.7956 300.992 38.6386 300.834 38.5336C300.676 38.4276 300.487 38.3786 300.298 38.3946C300.062 38.4456 299.849 38.5726 299.692 38.7566C299.536 38.9406 299.444 39.1706 299.431 39.4116C299.418 39.6526 299.485 39.8926 299.621 40.0916C299.757 40.2916 299.955 40.4396 300.184 40.5156C301.292 40.9886 302.41 40.2576 303.313 39.6746C305.37 38.3456 307.632 37.1446 310.124 36.9926C312.429 36.8526 314.902 37.7576 316.184 39.7576C316.409 40.1076 315.852 40.4306 315.628 40.0826C314.356 38.0986 311.785 37.3856 309.55 37.6926C308.217 37.9026 306.931 38.3396 305.746 38.9846C305.131 39.3036 304.536 39.6566 303.952 40.0286C303.396 40.4166 302.807 40.7546 302.192 41.0386C301.165 41.4606 299.807 41.4276 299.09 40.4566C298.938 40.2266 298.842 39.9636 298.809 39.6896C298.777 39.4156 298.809 39.1376 298.903 38.8786C298.997 38.6196 299.15 38.3856 299.35 38.1966C299.551 38.0076 299.793 37.8666 300.057 37.7876C300.302 37.7396 300.556 37.7526 300.795 37.8266C301.033 37.9006 301.25 38.0326 301.426 38.2106C301.601 38.3886 301.73 38.6076 301.8 38.8476C301.87 39.0876 301.879 39.3416 301.827 39.5866C301.652 40.1326 301.372 40.6386 301.003 41.0776C300.069 42.3916 298.853 43.4796 297.443 44.2606C296.033 45.0416 294.466 45.4976 292.857 45.5926C292.443 45.6136 292.444 44.9686 292.857 44.9486Z" fill="#08322F"/>
<path d="M291.398 65.3535H293.316V71.6595H291.398V65.3535Z" fill="#08322F"/>
<path d="M322.411 60.9543L321.078 59.6203L325.459 55.2383L326.792 56.5723L322.411 60.9543Z" fill="#08322F"/>
<path d="M268.48 74.2043L267.146 75.5383L262.766 71.1563L264.099 69.8223L268.48 74.2043Z" fill="#08322F"/>
<path d="M322.956 128.704L321.623 130.037L317.242 125.654L318.576 124.322L322.956 128.704Z" fill="#0065B3"/>
</g>
<g opacity="0.1">
<path d="M219.926 181.429C226.977 181.027 235.726 176.249 242.528 174.135C250.579 171.64 258.662 169.24 266.776 166.934C295.026 158.904 323.578 152.061 352.433 146.406C355.126 145.877 357.823 145.36 360.525 144.857C356.317 135.773 349.797 127.95 341.617 122.17C341.827 120.182 341.933 118.184 341.936 116.184C341.936 84.5824 316.658 58.9634 285.463 58.9634C275.86 58.9534 266.417 61.4294 258.057 66.1514C235.978 51.6414 207.161 42.8594 175.632 42.8594C130.83 42.8594 91.4997 60.5924 69.2137 87.2954L173.953 104.973L238.192 115.811C164.959 117.995 91.4987 120.165 18.4767 115.04C8.83768 124.358 2.73669 136.732 1.21668 150.046C-0.303324 163.36 2.85268 176.789 10.1437 188.037C10.1437 189.181 10.1917 190.316 10.2777 191.441C12.1377 191.973 13.9337 192.49 15.5447 192.828C41.4117 198.287 67.4447 202.856 93.6437 206.534C74.3377 218.428 50.8257 220.111 28.5557 225.147C39.3397 234.041 53.9847 239.491 70.1227 239.491H310.41C336.429 239.491 357.519 221.395 357.519 199.069C361.424 192.636 364.025 185.5 365.176 178.066C317.031 182.71 268.285 178.678 219.926 181.429Z" fill="#54C2C3"/>
</g>
<g opacity="0.1">
<path d="M365.506 168.555C365.532 159.354 363.342 150.281 359.122 142.102C354.902 133.924 348.775 126.879 341.258 121.563C341.466 119.575 341.572 117.578 341.577 115.58C341.577 83.977 316.285 58.368 285.104 58.368C275.499 58.358 266.056 60.833 257.694 65.553C235.615 51.037 206.795 42.252 175.266 42.252C123.981 42.252 79.8361 65.505 60.2591 98.851C59.1711 98.787 58.0771 98.753 56.9731 98.753C25.7891 98.753 0.500112 124.371 0.500112 155.973C0.478124 167.136 3.70612 178.064 9.79111 187.426C9.79111 215.86 36.6521 238.91 69.7731 238.91H310.067C336.083 238.91 357.172 220.81 357.172 198.484C362.644 189.46 365.527 179.106 365.506 168.555Z" fill="#0065B3"/>
</g>
<path d="M298.591 133.501C298.135 133.151 297.6 132.917 297.034 132.818C296.437 132.681 295.828 132.595 295.221 132.5L287.366 131.368C286.573 131.221 285.765 131.178 284.961 131.24C284.557 131.274 284.164 131.386 283.805 131.572C283.446 131.758 283.127 132.014 282.868 132.324C282.633 132.613 282.505 132.972 282.504 133.343C282.548 133.717 282.669 134.079 282.861 134.403C282.937 134.554 283.002 134.711 283.056 134.871C283.131 135.232 283.225 135.588 283.337 135.939C283.371 136.015 283.416 136.086 283.471 136.149C283.472 136.167 283.472 136.185 283.471 136.203C283.384 136.643 283.662 137.103 283.538 137.527C283.429 137.89 283.075 138.109 282.852 138.412C282.703 138.627 282.62 138.881 282.614 139.143C282.609 139.404 282.68 139.661 282.82 139.882C283.059 140.252 283.493 140.504 283.617 140.928C283.78 141.486 283.34 142.024 282.947 142.455C282.225 143.247 281.558 144.087 280.95 144.97C280.779 145.187 280.669 145.444 280.631 145.718C280.596 146.272 281.129 146.761 281.036 147.313C280.963 147.746 280.538 148.011 280.172 148.269C278.816 149.161 277.728 150.596 277.619 152.218C277.271 149.637 276.2 147.206 274.531 145.206C274.074 144.657 273.573 144.106 273.385 143.411C273.315 143.134 273.302 142.837 273.207 142.569C272.887 141.725 271.873 141.361 271.429 140.583C271.11 140.035 271.11 139.331 270.715 138.849C270.319 138.368 269.697 138.26 269.356 137.794C269.185 137.479 269.04 137.151 268.922 136.812C268.778 136.537 268.577 136.295 268.331 136.105C268.284 136.067 268.235 136.032 268.185 136C268.238 135.952 268.28 135.894 268.309 135.83C268.338 135.765 268.353 135.695 268.354 135.623C268.354 135.251 267.984 135.005 267.661 134.82C267.247 134.584 266.841 134.329 266.446 134.065C266.877 133.864 267.251 133.558 267.534 133.175C267.888 132.604 268.034 131.929 267.948 131.263C267.927 130.725 267.726 130.21 267.377 129.8C267.176 129.586 266.924 129.432 266.714 129.231C266.168 128.699 265.983 127.913 265.757 127.186C265.457 126.23 264.988 125.224 264.113 124.718C263.692 124.472 263.201 124.357 262.789 124.099C262.378 123.841 262.033 123.354 262.177 122.886C262.272 122.567 262.569 122.347 262.77 122.076C263.01 121.726 263.102 121.295 263.026 120.877C262.951 120.459 262.713 120.088 262.365 119.845C262.129 119.695 261.839 119.563 261.791 119.289C261.606 119.241 261.439 119.143 261.308 119.004C261.177 118.866 261.088 118.693 261.05 118.506C260.979 118.131 260.979 117.746 261.05 117.371C261.133 116.778 261.215 116.187 261.296 115.599C261.437 115.657 261.587 115.687 261.74 115.687C261.892 115.687 262.043 115.657 262.183 115.599C262.459 116.046 262.78 116.464 263.14 116.847C264.112 117.994 264.868 119.306 265.374 120.72C265.556 121.23 265.741 121.802 266.213 122.073C266.376 122.165 266.561 122.213 266.72 122.312C266.917 122.449 267.086 122.621 267.218 122.821C267.601 123.328 267.984 123.832 268.363 124.339L268.382 124.416C268.393 124.461 268.41 124.504 268.433 124.543C268.504 124.623 268.602 124.672 268.708 124.683C269.882 124.953 271.2 125.203 272.217 124.562C273.136 123.989 273.538 122.854 274.317 122.095C274.869 121.556 275.65 121.139 275.807 120.38C275.621 120.323 275.437 120.256 275.258 120.179C275.418 120.02 275.577 119.835 275.794 119.625C276.109 119.316 276.394 118.978 276.643 118.614C276.912 118.166 277.126 117.686 277.281 117.186C277.896 115.435 278.512 113.682 279.131 111.929C279.425 111.1 279.718 110.266 280.089 109.459C280.471 108.586 280.924 107.748 281.342 106.89C282.421 104.66 283.253 102.319 283.825 99.9086C283.926 99.5796 283.96 99.2336 283.924 98.8916C283.834 98.3406 283.416 97.9066 283.017 97.5146C282.617 97.0806 282.159 96.7026 281.658 96.3896C281.407 96.2336 281.127 96.1276 280.834 96.0806C280.542 96.0336 280.243 96.0446 279.955 96.1146C279.138 96.3536 278.624 97.1896 278.436 98.0276C278.248 98.8656 278.318 99.7296 278.238 100.578C278.123 101.805 277.702 102.992 277.6 104.222C277.546 104.933 277.6 105.653 277.514 106.364C277.357 107.294 277.032 108.189 276.557 109.004C275.522 110.947 274.121 112.671 272.431 114.084C272.237 114.246 272.036 114.402 271.844 114.578C271.844 114.441 271.866 114.301 271.886 114.164C271.747 114.2 271.611 114.248 271.48 114.308C271.497 114.147 271.48 113.984 271.433 113.83C271.177 113.068 270.041 112.873 269.837 112.099C269.803 111.907 269.785 111.713 269.783 111.519C269.716 110.84 269.253 110.266 269.094 109.606C268.947 108.997 269.059 108.331 268.775 107.767C268.533 107.414 268.248 107.093 267.926 106.81C267.543 106.373 267.266 105.851 267.119 105.289C267.077 105.133 267.039 104.971 266.995 104.815C267.043 104.461 267.004 104.1 266.88 103.765C266.589 103.045 265.84 102.584 265.568 101.854C265.358 101.286 265.45 100.578 265.051 100.138C264.84 99.9276 264.58 99.7706 264.295 99.6816C262.835 99.1136 261.303 98.7526 259.742 98.6076C258.868 98.5276 257.905 98.4836 257.279 97.8686C256.549 97.1546 256.514 95.8696 255.658 95.3186C254.905 94.8306 253.84 95.1906 253.256 95.8756C253.168 95.9766 253.087 96.0826 253.013 96.1946C252.907 95.7676 252.884 95.3236 252.946 94.8876C252.946 94.7796 252.969 94.6676 252.978 94.5686C254.419 94.0986 255.645 93.1316 256.437 91.8406C256.437 91.8406 256.437 91.8406 256.437 91.8596L256.475 91.9586C256.568 92.1916 256.715 92.4146 256.931 92.4396C257.076 92.4376 257.215 92.3876 257.327 92.2966C257.52 92.1626 257.697 92.0086 257.857 91.8376C257.938 91.7486 258.014 91.6556 258.086 91.5596C258.233 91.3606 258.36 91.1476 258.463 90.9226C258.621 90.5846 258.729 90.2246 258.782 89.8546C258.839 89.4846 258.846 89.1056 258.91 88.7356C258.969 88.4496 259.047 88.1666 259.143 87.8906C259.174 87.7986 259.206 87.7056 259.235 87.6136C259.264 87.5216 259.305 87.3966 259.337 87.2946C259.537 86.6386 259.644 85.9586 259.656 85.2736C259.656 85.1586 259.656 85.0446 259.656 84.9296C259.645 84.4826 259.544 84.0426 259.36 83.6346C259.176 83.2266 258.912 82.8596 258.584 82.5546C258.035 82.1056 257.308 81.9176 256.906 81.3086C256.644 80.9006 256.587 80.3746 256.434 79.8966C256.268 79.3246 255.946 78.8096 255.502 78.4116C255.059 78.0136 254.513 77.7466 253.926 77.6426C253.219 77.5656 252.509 77.7596 251.941 78.1876L251.897 78.2226C251.58 78.4636 251.312 78.7626 251.106 79.1026C250.684 78.9866 250.298 78.7666 249.982 78.4646C249.663 78.1686 249.418 77.7956 249.095 77.5086C248.794 77.2336 248.425 77.0436 248.025 76.9596C247.625 76.8756 247.211 76.8996 246.824 77.0306C246.425 77.1896 246.07 77.4416 245.788 77.7646C245.506 78.0876 245.304 78.4726 245.2 78.8886C245.024 79.5456 245.056 80.3016 244.689 80.8496C244.405 81.2766 243.939 81.4866 243.614 81.8756C243.412 82.1216 243.274 82.4136 243.212 82.7266C243.173 82.9016 243.155 83.0806 243.158 83.2596C243.158 83.3396 243.158 83.4196 243.177 83.4956C243.177 83.4956 243.177 83.5206 243.177 83.5336C243.188 83.6206 243.206 83.7066 243.231 83.7916C243.322 84.1146 243.484 84.4126 243.707 84.6646C243.917 84.9056 244.18 85.0956 244.476 85.2196C244.596 85.2666 244.72 85.3056 244.846 85.3376L245.225 85.4236L245.359 85.4556C244.901 86.3146 244.647 87.2686 244.616 88.2416C244.585 89.2146 244.778 90.1816 245.181 91.0686C245.181 91.1576 245.158 91.2476 245.149 91.3366C245.097 92.5916 245.152 93.8486 245.315 95.0946C245.359 95.5886 245.385 96.1346 245.082 96.5266C244.944 96.6806 244.788 96.8186 244.619 96.9376C244.791 96.7146 244.967 96.4946 245.146 96.2746C244.696 95.8216 243.984 95.7636 243.346 95.8086C242.111 95.9006 240.912 96.2666 239.836 96.8796C239.122 97.2906 238.388 97.8366 237.571 97.7406C237.089 97.6866 236.614 97.4216 236.145 97.5496C235.881 97.6576 235.635 97.8026 235.414 97.9826C235.24 98.1076 235.029 98.1726 234.815 98.1676C234.314 97.5526 233.538 97.1346 232.938 96.6346C232.256 96.0276 231.631 95.3576 231.072 94.6356C230.038 93.3896 229.008 92.1396 227.993 90.8806C227.138 89.8226 226.261 88.6786 226.111 87.3236C226.095 87.1896 226.088 87.0536 226.088 86.9186C226.109 86.2746 226.19 85.6346 226.331 85.0056C226.369 84.8536 226.369 84.6956 226.331 84.5436C226.235 84.2246 225.868 84.1066 225.552 84.0366C225.594 83.7916 225.622 83.5396 225.638 83.3006C225.817 80.5596 225.623 77.7736 226.203 75.0896C226.423 74.0566 226.784 73.0106 227.527 72.2616C228.692 71.0856 230.641 70.8016 231.535 69.4086C232.281 68.2486 231.984 66.6066 231.046 65.5836C230.108 64.5606 228.663 64.1426 227.288 64.1936C226.902 64.1806 226.521 64.2836 226.194 64.4876C225.888 64.7596 225.659 65.1066 225.53 65.4946L224.161 68.8196C223.764 69.6856 223.43 70.5776 223.159 71.4906C222.777 72.8866 222.69 74.3596 222.387 75.7686C222.387 76.8526 221.689 78.2036 221.306 79.2016C220.878 80.3236 220.415 81.4336 220.029 82.5776C219.934 82.8646 219.599 83.7146 219.391 84.4896C219.313 84.5356 219.24 84.5906 219.174 84.6526C219.008 84.8656 218.856 85.0906 218.721 85.3246C218.431 85.7076 217.959 85.9116 217.64 86.2816C217.321 86.6516 217.254 87.3296 217.697 87.5146C217.787 87.5446 217.88 87.5656 217.975 87.5756C218.033 87.5806 218.09 87.5896 218.147 87.6036C218.626 87.7376 218.814 88.3406 218.744 88.8376C218.673 89.3346 218.425 89.7946 218.383 90.2916C218.297 91.1716 218.814 91.9896 219.312 92.7296C219.827 93.5316 220.396 94.2976 221.015 95.0216C221.465 95.5256 221.972 95.9786 222.426 96.4626C224.152 98.2346 225.524 100.308 227.074 102.233C227.632 102.96 228.266 103.624 228.966 104.216C229.423 104.573 229.902 104.902 230.399 105.201L233.066 106.89C233.369 107.112 233.711 107.272 234.074 107.364C234.193 107.38 234.313 107.38 234.432 107.364C234.448 107.444 234.46 107.521 234.479 107.601C234.687 108.436 235.143 109.195 235.194 110.046C235.245 110.897 235.169 111.766 235.229 112.627C235.287 113.421 235.462 114.221 235.507 115.002C235.596 116.506 235.226 117.993 234.869 119.465C234.33 121.62 234.004 123.82 232.954 125.774C232.661 126.312 232.316 126.861 232.316 127.476C232.316 127.549 232.316 127.626 232.335 127.699L231.857 127.97C231.716 128.05 231.576 128.128 231.448 128.211C230.842 128.606 230.195 129.044 229.946 129.726C229.745 130.278 229.837 130.909 229.595 131.444C229.583 131.469 229.57 131.492 229.556 131.515C229.301 132.012 228.794 132.382 228.679 132.927C228.593 133.344 228.759 133.787 228.679 134.202C228.679 134.202 228.679 134.202 228.679 134.218C228.606 134.426 228.549 134.639 228.507 134.855C228.503 134.926 228.51 134.996 228.526 135.065C228.587 135.306 228.72 135.524 228.909 135.687C229.024 135.797 229.149 135.897 229.282 135.984C229.418 136.073 229.559 136.155 229.703 136.231L229.786 136.277C229.907 136.341 230.029 136.401 230.153 136.459L230.236 136.494C230.38 136.557 230.526 136.615 230.673 136.666L230.775 136.698C230.89 136.736 231.008 136.771 231.126 136.8L231.206 136.825L231.279 136.841L231.598 136.908L231.716 136.93C231.857 136.954 232 136.973 232.147 136.988H232.275C232.383 136.988 232.489 137.004 232.594 137.007H232.744C232.856 137.007 232.964 137.007 233.063 137.007H233.178C233.328 137.007 233.478 136.985 233.628 136.965H233.675C233.809 136.946 233.943 136.924 234.077 136.895L234.18 136.873C234.304 136.844 234.428 136.816 234.553 136.777L234.62 136.758C234.77 136.714 234.92 136.666 235.067 136.608C235.574 136.4 236.067 136.156 236.541 135.879C236.86 135.703 237.179 135.525 237.498 135.362C237.734 135.243 237.977 135.137 238.225 135.043C238.829 134.786 239.485 134.676 240.14 134.725C240.463 134.769 240.782 134.834 241.097 134.919C241.097 134.954 241.097 134.989 241.097 135.024C241.356 136.554 241.613 138.084 241.866 139.614C242.283 139.314 242.725 139.049 243.187 138.821C243.1 139.052 243.043 139.292 243.017 139.537C242.998 139.727 242.998 139.919 243.017 140.109C243.046 140.411 243.11 140.746 242.928 140.985C242.816 141.132 242.609 141.215 242.548 141.38C242.504 141.55 242.493 141.726 242.517 141.9C242.503 142.098 242.42 142.285 242.28 142.427C242.141 142.568 241.955 142.655 241.757 142.671C241.849 142.928 241.851 143.208 241.763 143.466C241.676 143.724 241.504 143.945 241.275 144.093C241.142 144.157 241.017 144.239 240.905 144.335C240.796 144.476 240.723 144.641 240.692 144.817C240.27 146.395 239.403 147.819 238.193 148.919C237.74 149.275 237.326 149.679 236.959 150.124C236.732 150.469 236.544 150.837 236.4 151.224C235.549 153.302 234.686 155.382 233.809 157.462C233.325 158.626 232.852 159.808 232.699 161.061C232.316 164.497 229.253 167.411 229.828 170.821C229.944 171.673 230.288 172.478 230.823 173.152C231.461 173.92 232.418 174.359 233.376 174.716C235.835 175.672 238.429 176.196 241.014 176.722L245.072 177.554C245.869 177.737 246.677 177.865 247.491 177.936C248.47 178.003 249.475 177.911 250.429 178.159C251.019 178.312 251.584 178.596 252.193 178.628C252.717 178.657 253.361 178.545 253.671 178.972C253.98 179.399 253.741 179.964 254.034 180.343C254.507 180.945 255.658 180.343 256.172 180.91C256.312 181.128 256.42 181.366 256.491 181.615C256.569 181.769 256.678 181.906 256.81 182.016C256.841 182.196 256.854 182.379 256.849 182.562C256.782 183.302 256.628 184.032 256.389 184.735C256.006 186.03 255.624 187.325 255.244 188.621C255.098 189.079 254.992 189.548 254.925 190.024C254.901 190.255 254.901 190.487 254.925 190.718C254.992 191.422 255.397 192.15 256.07 192.379C256.592 192.517 257.148 192.449 257.621 192.188C258.077 191.95 258.505 191.661 258.897 191.328C259.603 190.794 260.224 190.155 260.738 189.434C262.333 187.05 261.816 183.824 262.936 181.188C263.68 179.428 265.128 178 265.61 176.145C265.722 175.792 265.736 175.415 265.648 175.055C265.447 174.417 264.768 174.054 264.133 173.824H264.104C263.582 173.639 263.049 173.486 262.509 173.368C262.375 173.34 262.237 173.317 262.1 173.295C261.797 173.048 261.555 172.734 261.395 172.377C261.37 172.187 261.32 172.002 261.245 171.826C261.194 171.75 261.126 171.687 261.046 171.642C260.966 171.598 260.877 171.573 260.786 171.571C260.467 171.539 260.039 171.653 259.691 171.628C258.98 171.577 258.508 170.879 257.87 170.557C257.231 170.235 256.539 170.315 255.859 170.362C255.616 170.396 255.369 170.38 255.132 170.318C254.849 170.187 254.59 170.01 254.366 169.792C253.974 169.487 253.515 169.277 253.027 169.179C252.54 169.081 252.036 169.098 251.555 169.228C251.25 169.351 250.927 169.424 250.598 169.444C249.976 169.409 249.536 168.855 249.076 168.434C247.819 167.283 246.029 166.98 244.504 166.225C244.271 166.138 244.076 165.971 243.955 165.753C243.78 165.32 244.176 164.886 244.533 164.59L247.156 162.412C250.027 160.028 253.616 158.233 254.95 154.737C255.089 154.268 255.305 153.824 255.588 153.425C255.691 153.304 255.811 153.198 255.942 153.108C256.523 152.732 257.226 152.595 257.905 152.725C258.732 152.91 259.516 153.251 260.215 153.731C261.357 154.422 262.468 155.167 263.549 155.964C264.619 156.728 265.637 157.563 266.596 158.463C268.271 160.057 269.665 161.947 271.225 163.665C272.785 165.383 274.569 166.987 276.735 167.809C278.902 168.632 281.521 168.596 283.381 167.216C285.528 165.622 286.218 162.773 286.76 160.159C287.956 159.005 288.317 157.248 288.901 155.696C289.268 154.711 289.737 153.783 290.132 152.802C290.605 151.648 290.975 150.456 291.345 149.267C291.764 148.073 292.049 146.836 292.194 145.578C292.347 143.593 291.814 141.479 292.372 139.614C293.109 139.452 293.779 139.037 294.504 138.795C295.582 138.441 296.737 138.499 297.879 138.505H297.953C298.346 138.547 298.742 138.454 299.076 138.241C299.458 137.922 299.519 137.377 299.538 136.883C299.583 135.662 299.506 134.291 298.591 133.501ZM252.363 79.1246C252.099 79.1896 251.826 79.2096 251.555 79.1826L252.363 79.1246Z" fill="url(#paint0_linear_117_15529)"/>
<path d="M253.625 99.2882C253.238 99.6162 252.785 99.8562 252.297 99.9922L250.035 100.802C248.807 101.242 247.524 101.685 246.229 101.526C245.505 101.437 242.4 100.98 241.931 100.416C241.217 99.5432 243.721 98.2582 244.576 97.5222C244.77 97.3832 244.95 97.2242 245.112 97.0502C245.431 96.6612 245.39 96.1162 245.345 95.6252C245.183 94.3812 245.127 93.1262 245.179 91.8732C245.204 91.5742 245.247 91.2782 245.307 90.9842C245.626 89.5182 246.991 90.0532 248.07 90.4422C249.368 90.8632 250.623 91.4072 251.819 92.0652C252.183 92.2532 252.499 92.5212 252.744 92.8492C253.216 93.5632 253.028 94.5002 252.951 95.3992C252.884 96.0972 252.888 96.7662 253.325 97.2732C253.545 97.4672 253.747 97.6812 253.928 97.9112C254.03 98.1432 254.056 98.4012 254.001 98.6492C253.947 98.8962 253.815 99.1202 253.625 99.2882Z" fill="#EFD3A8"/>
<path d="M222.376 76.3167C222.695 74.9047 222.766 73.4467 223.148 72.0477C223.419 71.1377 223.753 70.2487 224.15 69.3867L225.557 66.1067C225.686 65.7197 225.915 65.3727 226.221 65.1027C226.549 64.8997 226.93 64.7967 227.315 64.8087C228.69 64.7577 230.136 65.1857 231.074 66.1957C232.012 67.2057 232.309 68.8417 231.562 69.9987C230.669 71.3917 228.719 71.6717 227.555 72.8447C226.811 73.5937 226.451 74.6357 226.231 75.6657C225.65 78.3437 225.844 81.1197 225.666 83.8547C225.608 84.7057 225.442 85.6787 224.709 86.1187C224.265 86.3357 223.772 86.4317 223.279 86.3957L221.186 86.4307C220.835 86.4307 219.562 86.6507 219.329 86.3857C218.921 85.9237 219.853 83.6217 220.022 83.1087C220.398 81.9707 220.861 80.8617 221.298 79.7427C221.678 78.7447 222.376 77.3977 222.376 76.3167Z" fill="#EFD3A8"/>
<path d="M265.594 176.459C265.113 178.301 263.664 179.736 262.921 181.492C261.801 184.122 262.305 187.338 260.722 189.716C260.209 190.438 259.588 191.078 258.881 191.613C258.49 191.946 258.062 192.233 257.605 192.47C257.132 192.731 256.577 192.799 256.055 192.662C255.381 192.432 254.976 191.705 254.909 191.004C254.885 190.774 254.885 190.542 254.909 190.312C254.976 189.838 255.083 189.37 255.228 188.913C255.611 187.623 255.993 186.331 256.374 185.037C256.612 184.335 256.766 183.607 256.833 182.869C256.875 182.066 256.364 181.02 256.581 180.271C256.68 179.933 257.05 179.634 257.219 179.35C257.459 178.942 257.644 178.503 257.768 178.046C258.03 177.157 258.208 176.207 258.757 175.458C259.115 175.014 259.534 174.622 260.001 174.294C260.346 173.992 260.751 173.765 261.188 173.628C261.613 173.554 262.049 173.574 262.464 173.689C263.006 173.804 263.539 173.955 264.06 174.141H264.088C264.727 174.371 265.403 174.725 265.604 175.369C265.702 175.726 265.698 176.103 265.594 176.459Z" fill="#08322F"/>
<path d="M299.541 137.27C299.522 137.764 299.461 138.315 299.078 138.625C298.745 138.838 298.349 138.931 297.955 138.889H297.869C296.73 138.889 295.572 138.825 294.494 139.179C293.674 139.45 292.921 139.947 292.066 140.046C290.888 140.18 289.781 139.536 288.738 138.975C287.756 138.447 286.747 137.968 285.716 137.541C285.04 137.263 283.658 137.085 283.333 136.345C283.221 135.996 283.128 135.64 283.052 135.281C282.999 135.12 282.934 134.964 282.858 134.812C282.666 134.489 282.545 134.13 282.5 133.757C282.502 133.386 282.63 133.026 282.864 132.737C283.124 132.429 283.443 132.176 283.802 131.991C284.16 131.807 284.552 131.695 284.954 131.663C285.758 131.6 286.567 131.643 287.359 131.79L295.215 132.919C295.821 133.005 296.43 133.091 297.027 133.238C297.593 133.336 298.128 133.57 298.584 133.92C299.512 134.697 299.589 136.065 299.541 137.27Z" fill="#08322F"/>
<mask id="mask2_117_15529" style="mask-type:luminance" maskUnits="userSpaceOnUse" x="23" y="32" width="115" height="99">
<path d="M23.5078 32.5117H137.508V130.512H23.5078V32.5117Z" fill="white"/>
</mask>
<g mask="url(#mask2_117_15529)">
<path d="M120.193 105.432C121.677 105.432 122.879 104.229 122.879 102.745C122.879 101.262 121.677 100.059 120.193 100.059C118.71 100.059 117.508 101.262 117.508 102.745C117.508 104.229 118.71 105.432 120.193 105.432Z" fill="#47A0E4"/>
<path d="M85.6602 36.3497C86.7202 36.3497 87.5782 35.4897 87.5782 34.4297C87.5782 33.3697 86.7202 32.5117 85.6602 32.5117C84.6012 32.5117 83.7422 33.3697 83.7422 34.4297C83.7422 35.4897 84.6012 36.3497 85.6602 36.3497Z" fill="#0065B3"/>
<path d="M43.8409 95.838C44.9009 95.838 45.7589 94.979 45.7589 93.919C45.7589 92.859 44.9009 92 43.8409 92C42.7819 92 41.9219 92.859 41.9219 93.919C41.9219 94.979 42.7819 95.838 43.8409 95.838Z" fill="#0065B3"/>
<path d="M110.988 89.3126C112.048 89.3126 112.907 88.4536 112.907 87.3936C112.907 86.3336 112.048 85.4746 110.988 85.4746C109.929 85.4746 109.07 86.3336 109.07 87.3936C109.07 88.4536 109.929 89.3126 110.988 89.3126Z" fill="#47A0E4"/>
<path d="M52.668 115.411C53.728 115.411 54.587 114.552 54.587 113.493C54.587 112.433 53.728 111.574 52.668 111.574C51.609 111.574 50.75 112.433 50.75 113.493C50.75 114.552 51.609 115.411 52.668 115.411Z" fill="#47A0E4"/>
<path d="M113.285 120.786C114.345 120.786 115.204 119.926 115.204 118.867C115.204 117.807 114.345 116.947 113.285 116.947C112.226 116.947 111.367 117.807 111.367 118.867C111.367 119.926 112.226 120.786 113.285 120.786Z" fill="#E8EFED"/>
<path d="M96.4024 52.4689C97.4614 52.4689 98.3204 51.6099 98.3204 50.5499C98.3204 49.4899 97.4614 48.6309 96.4024 48.6309C95.3434 48.6309 94.4844 49.4899 94.4844 50.5499C94.4844 51.6099 95.3434 52.4689 96.4024 52.4689Z" fill="#08322F"/>
<path d="M23.8978 73.5684C25.9068 73.6954 27.8568 74.2964 29.5888 75.3224C31.3208 76.3484 32.7848 77.7704 33.8608 79.4714C34.1628 79.9534 34.5558 80.4834 34.3468 81.0774C34.2738 81.3054 34.1268 81.5014 33.9278 81.6344C33.7288 81.7674 33.4908 81.8284 33.2528 81.8084C32.9558 81.7444 32.6888 81.5844 32.4918 81.3534C32.2948 81.1224 32.1788 80.8324 32.1628 80.5294C32.1468 80.2264 32.2308 79.9264 32.4018 79.6754C32.5728 79.4244 32.8228 79.2364 33.1108 79.1414C34.5038 78.5474 35.9088 79.4664 37.0438 80.1994C39.6298 81.8704 42.4738 83.3814 45.6068 83.5714C48.5058 83.7474 51.6148 82.6104 53.2278 80.0954C53.5098 79.6554 52.8098 79.2484 52.5288 79.6864C50.9298 82.1804 47.6968 83.0754 44.8858 82.6904C43.2108 82.4254 41.5928 81.8764 40.1028 81.0664C39.3298 80.6654 38.5808 80.2204 37.8468 79.7534C37.1478 79.2654 36.4078 78.8414 35.6338 78.4844C34.3438 77.9544 32.6358 77.9954 31.7348 79.2164C30.8938 80.3554 31.5438 82.2514 32.9498 82.5714C33.2588 82.6324 33.5778 82.6164 33.8778 82.5234C34.1788 82.4304 34.4508 82.2644 34.6718 82.0404C34.8928 81.8164 35.0538 81.5404 35.1418 81.2384C35.2298 80.9364 35.2418 80.6184 35.1758 80.3104C35.0358 79.6394 34.5308 78.9834 34.1398 78.4354C32.9658 76.7834 31.4368 75.4144 29.6638 74.4324C27.8908 73.4504 25.9208 72.8784 23.8978 72.7584C23.3768 72.7324 23.3788 73.5424 23.8978 73.5684Z" fill="#08322F"/>
<path d="M137.352 98.0824C136.006 97.2154 134.884 96.0414 134.079 94.6574C133.274 93.2734 132.808 91.7184 132.72 90.1194C132.698 89.6674 132.629 89.1464 133.005 88.8154C133.143 88.6854 133.322 88.6064 133.511 88.5914C133.701 88.5764 133.89 88.6264 134.047 88.7324C134.229 88.8924 134.352 89.1064 134.4 89.3434C134.447 89.5804 134.415 89.8254 134.309 90.0424C134.203 90.2594 134.028 90.4354 133.812 90.5434C133.596 90.6514 133.35 90.6854 133.113 90.6394C131.915 90.5124 131.295 89.3284 130.791 88.3794C129.643 86.2164 128.253 84.0644 126.151 82.7174C124.205 81.4704 121.606 81.0554 119.512 82.1764C119.145 82.3724 119.474 82.9264 119.839 82.7314C121.916 81.6194 124.508 82.2504 126.311 83.6084C127.372 84.4414 128.282 85.4504 129.003 86.5914C129.384 87.1694 129.732 87.7684 130.061 88.3774C130.357 88.9874 130.707 89.5694 131.106 90.1174C131.796 90.9864 132.999 91.6184 134.098 91.1204C134.343 90.9934 134.554 90.8114 134.716 90.5884C134.878 90.3654 134.986 90.1064 135.03 89.8344C135.074 89.5624 135.054 89.2834 134.972 89.0204C134.889 88.7574 134.746 88.5174 134.554 88.3194C134.363 88.1574 134.135 88.0454 133.891 87.9934C133.646 87.9414 133.392 87.9514 133.152 88.0214C132.912 88.0914 132.693 88.2204 132.515 88.3954C132.337 88.5714 132.205 88.7874 132.131 89.0264C132.018 89.5884 132.016 90.1674 132.124 90.7304C132.3 92.3334 132.832 93.8764 133.682 95.2464C134.533 96.6164 135.679 97.7774 137.038 98.6444C137.389 98.8644 137.702 98.3014 137.352 98.0824Z" fill="#08322F"/>
<path d="M71.1604 44.9486C69.5624 44.8476 68.0114 44.3696 66.6344 43.5536C65.2574 42.7376 64.0924 41.6066 63.2364 40.2536C62.9964 39.8696 62.6834 39.4486 62.8494 38.9766C62.9074 38.7956 63.0254 38.6386 63.1834 38.5336C63.3414 38.4276 63.5304 38.3786 63.7194 38.3946C63.9554 38.4456 64.1684 38.5726 64.3254 38.7566C64.4824 38.9406 64.5734 39.1706 64.5864 39.4116C64.5994 39.6526 64.5324 39.8926 64.3964 40.0916C64.2604 40.2916 64.0624 40.4396 63.8334 40.5156C62.7254 40.9886 61.6074 40.2576 60.7044 39.6746C58.6474 38.3456 56.3864 37.1446 53.8944 36.9926C51.5884 36.8526 49.1164 37.7576 47.8334 39.7576C47.6094 40.1076 48.1664 40.4306 48.3894 40.0826C49.6614 38.0986 52.2324 37.3856 54.4684 37.6926C55.8004 37.9026 57.0864 38.3396 58.2714 38.9846C58.8864 39.3036 59.4824 39.6566 60.0664 40.0286C60.6224 40.4166 61.2114 40.7546 61.8264 41.0386C62.8524 41.4606 64.2104 41.4276 64.9274 40.4566C65.0794 40.2266 65.1754 39.9636 65.2084 39.6896C65.2414 39.4156 65.2094 39.1376 65.1154 38.8786C65.0214 38.6196 64.8674 38.3856 64.6674 38.1966C64.4674 38.0076 64.2254 37.8666 63.9614 37.7876C63.7164 37.7396 63.4624 37.7526 63.2234 37.8266C62.9844 37.9006 62.7664 38.0326 62.5914 38.2106C62.4164 38.3886 62.2874 38.6076 62.2174 38.8476C62.1474 39.0876 62.1384 39.3416 62.1904 39.5866C62.3654 40.1326 62.6454 40.6386 63.0144 41.0776C63.9484 42.3916 65.1644 43.4796 66.5744 44.2606C67.9844 45.0416 69.5514 45.4976 71.1604 45.5926C71.5744 45.6136 71.5734 44.9686 71.1604 44.9486Z" fill="#08322F"/>
<path d="M72.6211 65.3535H70.7031V71.6595H72.6211V65.3535Z" fill="#08322F"/>
<path d="M41.5997 60.9543L42.9328 59.6203L38.5527 55.2383L37.2188 56.5723L41.5997 60.9543Z" fill="#08322F"/>
<path d="M95.5391 74.2043L96.8721 75.5383L101.252 71.1563L99.9191 69.8223L95.5391 74.2043Z" fill="#08322F"/>
<path d="M41.0547 128.704L42.3877 130.037L46.7687 125.654L45.4357 124.322L41.0547 128.704Z" fill="#0065B3"/>
</g>
<g opacity="0.1">
<path d="M299.542 137.268C299.523 137.762 299.462 138.313 299.079 138.623C298.746 138.836 298.35 138.929 297.956 138.887H297.87C298.001 138.224 298.808 137.845 298.949 137.172C298.973 136.966 298.954 136.756 298.893 136.557C298.833 136.358 298.732 136.174 298.598 136.015C297.915 135.094 296.817 134.584 295.726 134.211C292.643 133.155 289.341 132.908 286.135 133.494C285.264 133.636 284.416 133.896 283.615 134.268C283.349 134.434 283.094 134.615 282.849 134.81C282.658 134.487 282.536 134.128 282.492 133.755C282.493 133.384 282.621 133.024 282.855 132.735C283.116 132.427 283.434 132.174 283.793 131.989C284.152 131.805 284.543 131.693 284.945 131.661C285.749 131.598 286.558 131.641 287.351 131.788L295.206 132.917C295.812 133.003 296.422 133.089 297.018 133.236C297.585 133.334 298.119 133.568 298.575 133.918C299.513 134.695 299.59 136.063 299.542 137.268Z" fill="#070809"/>
</g>
<g opacity="0.1">
<path d="M265.594 176.457C265.113 178.3 263.664 179.734 262.921 181.491C261.801 184.121 262.305 187.337 260.722 189.715C260.209 190.437 259.588 191.077 258.881 191.612C258.49 191.944 258.062 192.232 257.605 192.469C257.132 192.73 256.577 192.798 256.055 192.66C255.381 192.431 254.976 191.704 254.909 191.003C254.885 190.773 254.885 190.541 254.909 190.311L254.928 190.362C255.206 191.031 255.659 191.733 256.374 191.851C256.642 191.87 256.911 191.834 257.165 191.744C257.419 191.655 257.651 191.514 257.848 191.331C258.901 190.486 259.513 189.227 260.097 188.013C260.554 187.137 260.916 186.215 261.175 185.262C261.303 184.72 261.364 184.165 261.495 183.623C262.101 180.99 264.165 178.842 264.621 176.174C264.658 175.99 264.667 175.802 264.647 175.616C264.587 175.373 264.494 175.139 264.372 174.921C264.262 174.674 264.18 174.415 264.13 174.15C264.768 174.379 265.444 174.733 265.645 175.377C265.728 175.735 265.71 176.109 265.594 176.457Z" fill="#070809"/>
</g>
<g opacity="0.1">
<path d="M260.772 171.888C260.476 172.659 259.979 173.337 259.333 173.851C258.424 174.543 257.361 175.002 256.235 175.19C255.711 175.324 255.16 175.317 254.639 175.171C253.931 174.926 253.421 174.262 252.696 174.071C252.18 173.931 251.624 174.055 251.101 173.979C250.16 173.848 249.429 173.131 248.67 172.557C246.344 170.81 243.291 170.246 240.965 168.499C240.861 168.436 240.775 168.347 240.716 168.241C240.671 168.127 240.655 168.003 240.668 167.881C240.677 166.821 240.915 165.776 241.367 164.818C241.737 164.149 242.177 163.521 242.681 162.946C244.765 160.396 246.858 157.827 249.353 155.675C250.399 154.773 251.541 153.932 252.862 153.524C253.596 153.297 255.045 153.084 255.938 153.466C255.806 153.556 255.687 153.663 255.584 153.785C255.3 154.182 255.084 154.624 254.946 155.092C253.603 158.582 250.007 160.374 247.135 162.752L244.513 164.923C244.155 165.219 243.76 165.653 243.935 166.083C244.056 166.301 244.25 166.468 244.484 166.555C246.009 167.307 247.799 167.61 249.056 168.757C249.515 169.178 249.956 169.733 250.578 169.765C250.906 169.745 251.23 169.673 251.535 169.551C252.015 169.421 252.519 169.405 253.006 169.502C253.494 169.599 253.953 169.808 254.346 170.112C254.569 170.33 254.828 170.508 255.112 170.638C255.349 170.701 255.596 170.716 255.839 170.683C256.519 170.635 257.24 170.574 257.849 170.877C258.459 171.18 258.959 171.894 259.671 171.945C260.025 171.971 260.44 171.849 260.772 171.888Z" fill="#070809"/>
</g>
<path d="M231.426 128.626C230.82 129.015 230.175 129.455 229.927 130.131C229.722 130.682 229.818 131.314 229.572 131.849C229.327 132.385 228.775 132.758 228.653 133.331C228.567 133.749 228.736 134.189 228.653 134.606C228.581 134.824 228.523 135.045 228.478 135.269C228.446 135.744 228.855 136.13 229.253 136.395C230.102 136.946 231.069 137.292 232.076 137.402C233.083 137.513 234.102 137.386 235.051 137.032C235.902 136.713 236.671 136.194 237.488 135.786C238.285 135.328 239.196 135.106 240.114 135.148C240.64 135.206 241.145 135.397 241.671 135.467C241.931 135.518 242.2 135.506 242.454 135.43C242.708 135.355 242.939 135.219 243.129 135.034C243.292 134.809 243.401 134.551 243.448 134.278C243.892 132.528 243.691 130.673 243.269 128.913C242.848 127.154 242.21 125.461 241.76 123.711C241.441 122.414 241.196 121.084 240.663 119.857C240.13 118.63 239.233 117.489 237.979 117.02C237.881 116.972 237.768 116.957 237.66 116.979C237.58 117.012 237.509 117.065 237.453 117.132C236.461 118.182 235.714 119.438 235.264 120.81C234.763 122.337 234.626 123.957 234.167 125.49C233.969 126.127 233.714 126.982 233.21 127.469C232.705 127.957 231.997 128.26 231.426 128.626Z" fill="#08322F"/>
<g opacity="0.1">
<path d="M243.46 134.268C243.406 134.542 243.292 134.8 243.125 135.023C242.936 135.209 242.704 135.345 242.449 135.42C242.195 135.495 241.926 135.507 241.667 135.454C241.143 135.39 240.639 135.195 240.113 135.135C239.195 135.092 238.283 135.314 237.487 135.772C236.67 136.18 235.892 136.687 235.046 137.016C233.809 137.484 232.458 137.561 231.176 137.236C230.495 137.065 229.848 136.78 229.262 136.394C228.86 136.133 228.455 135.757 228.486 135.269C228.531 135.045 228.59 134.825 228.662 134.609C228.745 134.191 228.579 133.751 228.662 133.334C228.783 132.76 229.338 132.378 229.581 131.848C229.823 131.319 229.731 130.685 229.932 130.134C230.181 129.455 230.828 129.018 231.435 128.626C232.041 128.234 232.762 127.934 233.247 127.459C233.309 127.385 233.366 127.306 233.416 127.223C233.766 126.684 234.022 126.091 234.175 125.467C234.644 123.93 234.772 122.314 235.27 120.784C235.721 119.413 236.469 118.158 237.461 117.109C237.515 117.04 237.585 116.988 237.666 116.956C237.773 116.934 237.885 116.947 237.985 116.994C239.235 117.466 240.132 118.607 240.668 119.834C241.204 121.061 241.43 122.384 241.765 123.685C242.212 125.435 242.853 127.134 243.275 128.89C243.696 130.647 243.903 132.515 243.46 134.268Z" fill="#070809"/>
</g>
<g opacity="0.1">
<path d="M252.952 95.3919C251.452 95.8679 249.829 95.7729 248.394 95.1259C246.959 94.4789 245.815 93.3239 245.18 91.8849C245.205 91.5859 245.248 91.2899 245.308 90.9959C245.627 89.5299 246.992 90.0649 248.071 90.4539C249.369 90.8749 250.624 91.4179 251.82 92.0759C252.184 92.2639 252.5 92.5329 252.745 92.8609C253.217 93.5649 253.029 94.5029 252.952 95.3919Z" fill="#070809"/>
</g>
<path d="M251.022 95.3711C254.547 95.3711 257.403 92.5171 257.403 88.9961C257.403 85.4751 254.547 82.6211 251.022 82.6211C247.498 82.6211 244.641 85.4751 244.641 88.9961C244.641 92.5171 247.498 95.3711 251.022 95.3711Z" fill="#EFD3A8"/>
<g opacity="0.1">
<path d="M268.34 136.638C268.34 137.167 267.623 137.336 267.09 137.308C265.175 137.196 263.303 136.67 261.407 136.829C259.011 137.046 256.81 138.369 254.407 138.49C253.482 138.538 252.541 138.401 251.628 138.57C250.448 138.79 249.395 139.507 248.192 139.609C247.149 139.698 246.118 139.306 245.075 139.348C244.346 139.391 243.634 139.594 242.992 139.941C243.061 139.266 243.364 138.636 243.847 138.159C244.609 137.41 245.694 137.604 246.747 137.426C247.797 137.199 248.823 136.871 249.81 136.447C252.578 135.357 255.493 134.684 258.459 134.448C261.438 134.212 264.431 134.685 267.192 135.829C267.594 135.991 267.972 136.205 268.318 136.466C268.336 136.522 268.343 136.58 268.34 136.638Z" fill="#070809"/>
</g>
<path d="M248.072 100.639L245.488 99.6824L244.397 99.2814C243.952 99.0954 243.483 98.9704 243.005 98.9114C241.754 98.8154 240.578 99.6484 239.911 100.709C239.244 101.771 238.991 103.036 238.777 104.27C238.484 105.957 238.236 107.651 238.031 109.351C237.812 110.886 237.699 112.435 237.695 113.986C237.769 117.932 238.606 121.824 239.525 125.665C239.975 127.368 240.315 129.098 240.542 130.845C240.619 131.565 240.654 132.289 240.731 133.013C240.814 133.825 240.947 134.629 241.081 135.435L241.85 140.016C242.807 139.337 243.895 138.741 245.072 138.706C246.115 138.667 247.15 139.056 248.19 138.967C249.387 138.868 250.446 138.151 251.626 137.931C252.539 137.762 253.479 137.896 254.408 137.851C256.807 137.73 259.013 136.404 261.405 136.191C263.304 136.019 265.189 136.554 267.091 136.666C267.621 136.698 268.339 136.529 268.339 135.996C268.339 135.626 267.968 135.381 267.646 135.196C266.127 134.282 264.682 133.252 263.323 132.114C262.066 131.119 260.79 130.099 259.925 128.754C257.842 125.518 258.556 121.142 256.779 117.728C255.334 114.955 256.779 111.321 256.779 108.194C256.779 106.635 256.779 105.057 256.412 103.543C256.183 102.696 255.896 101.865 255.556 101.057L254.316 97.9174C254.29 97.8254 254.239 97.7424 254.169 97.6774C254.086 97.6204 253.987 97.5904 253.885 97.5914C253.14 97.5464 252.405 97.7824 251.824 98.2514C251.24 98.7264 250.866 99.4084 250.292 99.9024C249.663 100.447 248.854 100.926 248.072 100.639Z" fill="#E7F1FE"/>
<path d="M252.237 98.828C252.441 97.955 252.661 97.046 253.245 96.364C253.829 95.682 254.895 95.321 255.648 95.809C256.503 96.364 256.538 97.645 257.269 98.359C257.907 98.971 258.865 99.019 259.733 99.099C261.293 99.241 262.825 99.601 264.285 100.17C264.569 100.258 264.829 100.413 265.041 100.623C265.44 101.075 265.36 101.77 265.558 102.334C265.829 103.061 266.579 103.523 266.869 104.247C267.188 105.05 266.869 105.949 266.601 106.775C266.119 108.257 265.816 109.797 265.347 111.285C264.878 112.774 264.211 114.24 263.114 115.362C262.629 115.859 261.908 116.318 261.27 116.022L261.024 117.791C260.952 118.165 260.952 118.549 261.024 118.923C261.061 119.11 261.15 119.283 261.281 119.421C261.412 119.56 261.579 119.659 261.764 119.707C261.812 119.981 262.102 120.112 262.338 120.262C262.513 120.381 262.662 120.533 262.776 120.71C262.891 120.887 262.971 121.085 263.009 121.293C263.046 121.5 263.041 121.713 262.996 121.919C262.951 122.125 262.865 122.32 262.744 122.493C262.543 122.764 262.247 122.977 262.151 123.299C262.008 123.765 262.348 124.256 262.763 124.511C263.178 124.766 263.666 124.884 264.087 125.129C264.961 125.633 265.43 126.624 265.73 127.587C265.953 128.314 266.138 129.101 266.687 129.63C266.898 129.831 267.15 129.984 267.351 130.194C267.699 130.605 267.901 131.12 267.923 131.657C268.01 132.324 267.863 133 267.507 133.57C266.869 134.482 265.679 134.753 264.636 135.164C262.941 135.859 261.547 137.102 260.054 138.16C259.446 138.65 258.729 138.986 257.964 139.142C256.93 139.279 255.913 138.823 254.872 138.782C254.25 138.788 253.631 138.869 253.028 139.024L251.114 139.438C251.216 137.956 250.399 136.471 249.943 135.059C249.082 132.4 248.922 129.557 249.126 126.771C249.33 123.985 249.898 121.237 250.46 118.502C250.852 116.589 250.814 114.591 251.417 112.732C251.982 110.944 252.789 109.226 253.086 107.364C253.571 104.352 251.554 101.799 252.237 98.828Z" fill="#47A0E4"/>
<path d="M266.759 104.72C266.935 105.044 267.059 105.394 267.126 105.756C267.273 106.318 267.55 106.837 267.933 107.274C268.254 107.557 268.539 107.878 268.782 108.23C269.075 108.785 268.964 109.46 269.101 110.066C269.26 110.726 269.723 111.3 269.79 111.979C269.792 112.173 269.81 112.367 269.844 112.559C270.052 113.33 271.188 113.515 271.44 114.287C271.609 114.787 271.318 115.332 271.373 115.858C271.412 116.021 271.422 116.189 271.401 116.355C271.329 116.543 271.202 116.705 271.038 116.821C269.982 117.829 269.251 119.128 268.938 120.553C268.631 121.971 268.469 123.416 268.456 124.866L267.209 123.218C267.077 123.018 266.908 122.845 266.711 122.708C266.552 122.613 266.367 122.565 266.204 122.469C265.732 122.201 265.547 121.634 265.365 121.124C264.86 119.712 264.103 118.403 263.131 117.261C262.624 116.664 262.034 116.065 261.922 115.291C261.889 114.935 261.908 114.576 261.98 114.226C262.299 112.138 262.64 109.999 263.658 108.147C264.133 107.28 264.749 106.496 265.205 105.616C265.512 105.033 265.942 103.515 266.759 104.72Z" fill="#47A0E4"/>
<path d="M235.281 106.725C235.287 106.994 235.219 107.259 235.083 107.491C234.961 107.632 234.802 107.736 234.624 107.793C234.446 107.849 234.256 107.855 234.075 107.809C233.712 107.718 233.37 107.558 233.067 107.337C232.178 106.776 231.289 106.214 230.4 105.651C229.903 105.352 229.425 105.025 228.967 104.669C228.267 104.079 227.633 103.416 227.075 102.69C225.524 100.777 224.152 98.7019 222.426 96.9519C221.957 96.4739 221.469 96.0139 221.016 95.5139C220.397 94.7909 219.828 94.0269 219.312 93.2259C218.815 92.4899 218.298 91.6739 218.384 90.7939C218.435 90.2969 218.674 89.8369 218.744 89.3429C218.815 88.8489 218.626 88.2469 218.148 88.1129C218.091 88.0989 218.034 88.0889 217.975 88.0839C217.881 88.0739 217.788 88.0539 217.698 88.0239C217.254 87.8389 217.321 87.1529 217.64 86.7929C217.96 86.4329 218.432 86.2319 218.722 85.8369C218.857 85.6019 219.009 85.3769 219.175 85.1639C219.389 84.9809 219.644 84.8529 219.919 84.7909C221.759 84.2489 223.706 84.1759 225.582 84.5779C225.901 84.6479 226.265 84.7759 226.36 85.0849C226.399 85.2359 226.399 85.3929 226.36 85.5439C226.22 86.1719 226.138 86.8119 226.118 87.4559C226.117 87.5899 226.125 87.7249 226.14 87.8579C226.29 89.2099 227.168 90.3539 228.023 91.4089C229.037 92.6649 230.068 93.9109 231.101 95.1539C231.661 95.8739 232.285 96.5419 232.968 97.1469C233.606 97.6759 234.432 98.1029 234.93 98.7819C235.335 99.3299 235.205 100.079 235.249 100.739C235.398 102.731 235.408 104.732 235.281 106.725Z" fill="#47A0E4"/>
<path d="M251.061 79.757C251.335 79.241 251.756 78.817 252.27 78.539C252.784 78.261 253.369 78.14 253.951 78.192C254.538 78.296 255.084 78.561 255.527 78.959C255.97 79.357 256.293 79.87 256.459 80.442C256.609 80.917 256.67 81.443 256.931 81.851C257.327 82.466 258.061 82.645 258.61 83.091C258.937 83.395 259.201 83.762 259.385 84.169C259.569 84.576 259.67 85.016 259.682 85.463C259.712 86.375 259.568 87.286 259.257 88.144C259.125 88.51 259.019 88.885 258.938 89.266C258.874 89.636 258.868 90.011 258.811 90.381C258.74 90.86 258.574 91.322 258.322 91.736C258.071 92.15 257.739 92.51 257.346 92.794C257.234 92.885 257.095 92.936 256.95 92.938C256.702 92.909 256.548 92.619 256.456 92.358C255.949 90.895 256.07 89.107 255.135 87.94C254.71 87.469 254.196 87.086 253.623 86.814C253.389 86.663 253.126 86.564 252.851 86.524C252.446 86.546 252.057 86.688 251.734 86.932C251.06 87.383 250.313 87.714 249.526 87.908C249.133 88.001 248.724 88.005 248.33 87.92C247.935 87.835 247.564 87.663 247.245 87.417C246.804 87.054 246.482 86.509 245.994 86.225C245.506 85.941 244.995 85.957 244.514 85.762C244.207 85.632 243.933 85.433 243.715 85.181C243.496 84.929 243.338 84.631 243.253 84.309C243.167 83.987 243.156 83.649 243.221 83.322C243.286 82.995 243.425 82.687 243.627 82.422C243.946 82.039 244.418 81.823 244.702 81.399C245.069 80.851 245.037 80.098 245.212 79.441C245.316 79.026 245.518 78.641 245.8 78.319C246.083 77.997 246.438 77.747 246.836 77.589C247.223 77.458 247.638 77.434 248.037 77.517C248.437 77.601 248.807 77.789 249.108 78.064C249.427 78.351 249.682 78.721 249.995 79.021C250.304 79.316 250.682 79.529 251.094 79.64C251.507 79.751 251.94 79.758 252.356 79.658" fill="#131313"/>
<g opacity="0.1">
<path d="M256.305 126.679C256.119 126.844 255.988 127.062 255.927 127.303C255.867 127.544 255.881 127.797 255.967 128.03C256.037 128.18 259.33 127.546 259.677 127.498C260.545 127.374 262.067 127.434 262.651 126.641C263.691 125.235 260.469 125.547 259.878 125.598C258.755 125.694 257.16 125.847 256.305 126.679Z" fill="#070809"/>
</g>
<path d="M226.355 85.5565C226.214 86.1855 226.133 86.8255 226.112 87.4695C225.155 87.6645 224.16 87.3455 223.241 87.0265L220.602 86.1275C220.442 86.0255 220.248 85.9875 220.061 86.0225C219.874 86.0575 219.707 86.1625 219.594 86.3155C219.17 86.7555 218.586 87.5905 217.999 88.0845C217.904 88.0745 217.811 88.0535 217.721 88.0235C217.278 87.8385 217.345 87.1535 217.664 86.7935C217.983 86.4335 218.455 86.2325 218.745 85.8375C218.881 85.6025 219.032 85.3775 219.199 85.1645C219.412 84.9815 219.667 84.8535 219.942 84.7915C221.782 84.2495 223.729 84.1755 225.605 84.5775C225.924 84.6475 226.288 84.7755 226.384 85.0845C226.415 85.2415 226.405 85.4045 226.355 85.5565Z" fill="#47A0E4"/>
<g opacity="0.1">
<path d="M226.355 85.5565C226.214 86.1855 226.133 86.8255 226.112 87.4695C225.155 87.6645 224.16 87.3455 223.241 87.0265L220.602 86.1275C220.442 86.0255 220.248 85.9875 220.061 86.0225C219.874 86.0575 219.707 86.1625 219.594 86.3155C219.17 86.7555 218.586 87.5905 217.999 88.0845C217.904 88.0745 217.811 88.0535 217.721 88.0235C217.278 87.8385 217.345 87.1535 217.664 86.7935C217.983 86.4335 218.455 86.2325 218.745 85.8375C218.881 85.6025 219.032 85.3775 219.199 85.1645C219.412 84.9815 219.667 84.8535 219.942 84.7915C221.782 84.2495 223.729 84.1755 225.605 84.5775C225.924 84.6475 226.288 84.7755 226.384 85.0845C226.415 85.2415 226.405 85.4045 226.355 85.5565Z" fill="#47A0E4"/>
</g>
<g opacity="0.1">
<path d="M250.489 146.075C250.949 146.228 251.447 146.451 251.603 146.91L247.908 145.973L245.994 145.485C245.656 145.399 244.443 145.3 244.22 145.035C243.901 144.646 245.034 144.914 245.238 144.943C245.857 145.035 246.476 145.131 247.092 145.243C248.253 145.45 249.37 145.791 250.489 146.075Z" fill="#070809"/>
</g>
<g opacity="0.1">
<path d="M251.923 149.343C251.604 149.129 250.688 149.155 250.296 149.062C249.722 148.925 249.157 148.743 248.592 148.568C247.447 148.195 246.311 147.771 245.134 147.497C244.917 147.449 244.176 147.436 244.212 147.162C244.247 146.888 244.952 146.793 245.127 146.78C246.171 146.703 247.472 147.191 248.442 147.538C249.678 147.981 250.849 148.588 251.923 149.343Z" fill="#070809"/>
</g>
<g opacity="0.1">
<path d="M249.577 143.163C248.406 142.844 247.344 142.117 246.138 141.977C245.823 141.989 245.514 141.894 245.26 141.709C245.119 141.57 245.021 141.393 244.977 141.199C245.785 141.158 246.722 141.499 247.455 141.821C247.859 141.994 248.248 142.201 248.617 142.439C248.885 142.602 249.287 143.07 249.577 143.163Z" fill="#070809"/>
</g>
<path d="M271.9 114.619C271.702 115.945 271.989 117.297 272.707 118.428C273.426 119.56 274.528 120.395 275.812 120.781C275.656 121.537 274.874 121.954 274.322 122.493C273.544 123.248 273.142 124.38 272.223 124.954C271.198 125.591 269.881 125.343 268.713 125.075C268.607 125.063 268.509 125.012 268.439 124.931C268.415 124.893 268.397 124.851 268.388 124.807C268.002 123.395 267.749 121.887 268.145 120.472C268.464 119.267 269.23 118.241 269.843 117.176C270.455 116.111 270.513 114.97 271.9 114.619Z" fill="#47A0E4"/>
<path d="M243.374 96.3425C242.139 96.4325 240.939 96.7965 239.864 97.4095C239.149 97.8175 238.415 98.3665 237.599 98.2675C237.117 98.2135 236.641 97.9485 236.172 98.0765C235.908 98.1834 235.662 98.3285 235.442 98.5095C235.33 98.5985 235.198 98.6575 235.057 98.6795C234.916 98.7015 234.771 98.6875 234.638 98.6375L234.319 103.049C234.198 104.725 234.079 106.437 234.481 108.072C234.689 108.907 235.145 109.666 235.196 110.514C235.247 111.362 235.171 112.232 235.231 113.09C235.289 113.883 235.464 114.664 235.509 115.458C235.598 116.956 235.228 118.442 234.871 119.898C234.332 122.047 234.006 124.243 232.956 126.188C232.663 126.726 232.318 127.275 232.318 127.887C232.318 127.963 232.318 128.037 232.337 128.11C232.018 128.285 231.722 128.451 231.45 128.623C230.844 129.015 230.197 129.452 229.948 130.131C229.747 130.682 229.839 131.313 229.597 131.846C229.354 132.378 228.799 132.757 228.678 133.331C228.592 133.749 228.758 134.189 228.678 134.606C228.606 134.822 228.547 135.043 228.502 135.266C228.47 135.744 228.876 136.13 229.278 136.391C229.864 136.777 230.511 137.062 231.192 137.233L233.097 129.678C234.833 126.47 236.278 123.113 237.414 119.647C237.738 118.514 238.156 117.409 238.661 116.344C239.022 115.742 239.342 115.116 239.618 114.47C239.909 113.667 239.937 112.796 240.078 111.948C240.244 110.959 240.495 109.985 240.827 109.038C241.172 108.015 241.571 106.995 241.641 105.921C241.746 104.384 241.188 102.762 241.781 101.34C242.033 100.808 242.361 100.315 242.755 99.8775C243.578 98.8705 244.328 97.8145 245.151 96.8075C244.723 96.3515 244.012 96.3045 243.374 96.3425Z" fill="#47A0E4"/>
<g opacity="0.1">
<g opacity="0.1">
<path d="M252.366 78.709L251.967 78.737L251.922 78.769C252.071 78.763 252.22 78.743 252.366 78.709Z" fill="#070809"/>
</g>
<g opacity="0.1">
<path d="M259.664 85.3257C259.597 85.9597 259.46 86.5837 259.255 87.1877C259.123 87.5537 259.017 87.9287 258.936 88.3097C258.872 88.6797 258.866 89.0557 258.809 89.4257C258.738 89.9047 258.572 90.3657 258.32 90.7797C258.069 91.1937 257.737 91.5547 257.344 91.8387C257.232 91.9297 257.093 91.9797 256.948 91.9817C256.7 91.9527 256.546 91.6627 256.454 91.4017C255.947 89.9387 256.068 88.1507 255.133 86.9837C254.708 86.5127 254.194 86.1307 253.621 85.8587C253.387 85.7077 253.124 85.6087 252.849 85.5687C252.444 85.5907 252.055 85.7327 251.732 85.9767C251.058 86.4277 250.311 86.7577 249.524 86.9517C249.131 87.0447 248.722 87.0487 248.328 86.9637C247.933 86.8787 247.562 86.7067 247.243 86.4607C246.802 86.0977 246.48 85.5527 245.992 85.2687C245.504 84.9847 244.993 85.0017 244.512 84.8067C244.211 84.6787 243.943 84.4837 243.727 84.2377C243.512 83.9917 243.355 83.6997 243.267 83.3847C243.256 83.3447 243.248 83.3047 243.242 83.2637C243.162 83.6197 243.171 83.9887 243.267 84.3407C243.355 84.6557 243.512 84.9477 243.727 85.1937C243.943 85.4397 244.211 85.6347 244.512 85.7627C244.993 85.9577 245.536 85.9597 245.992 86.2247C246.448 86.4897 246.802 87.0537 247.243 87.4167C247.562 87.6627 247.933 87.8357 248.328 87.9207C248.722 88.0057 249.131 88.0007 249.524 87.9077C250.311 87.7137 251.058 87.3837 251.732 86.9327C252.055 86.6887 252.444 86.5467 252.849 86.5247C253.124 86.5647 253.387 86.6637 253.621 86.8147C254.187 87.0927 254.693 87.4777 255.111 87.9497C256.045 89.1167 255.924 90.9047 256.432 92.3677C256.524 92.6327 256.677 92.9187 256.926 92.9477C257.079 92.9487 257.228 92.8937 257.344 92.7947C257.739 92.5097 258.072 92.1477 258.324 91.7317C258.576 91.3157 258.742 90.8527 258.812 90.3717C258.869 90.0017 258.875 89.6267 258.939 89.2567C259.02 88.8757 259.126 88.5007 259.258 88.1347C259.569 87.2757 259.713 86.3657 259.683 85.4537C259.676 85.4157 259.67 85.3707 259.664 85.3257Z" fill="#070809"/>
</g>
</g>
<path d="M239.481 110.904L239.263 113.814C239.231 114.209 238.476 123.619 232.899 134.616C228.113 144.049 218.799 156.334 201.216 163.238C199.844 163.78 198.421 164.286 196.944 164.756L195.297 159.592C199.43 158.292 203.412 156.552 207.172 154.402C216.135 149.232 223.104 141.852 227.963 132.356C230.541 127.3 232.378 121.901 233.418 116.323H213.414V110.904H239.481Z" fill="#0065B3"/>
<g opacity="0.1">
<path d="M199.063 163.244C216.643 156.339 225.959 144.057 230.742 134.625C236.319 123.628 237.078 114.224 237.107 113.823L237.324 110.912H239.557L239.341 113.823C239.313 114.218 238.552 123.628 232.975 134.625C228.189 144.057 218.876 156.339 201.296 163.244C199.924 163.786 198.499 164.293 197.021 164.764L196.805 164.085C197.575 163.811 198.327 163.531 199.063 163.244Z" fill="white"/>
</g>
<path d="M163.862 159.592L162.216 164.756C160.738 164.284 159.312 163.777 157.94 163.235C140.36 156.331 131.044 144.049 126.261 134.616C120.684 123.619 119.925 114.215 119.897 113.814L119.68 110.904H145.733V116.323H125.725C126.771 121.901 128.614 127.301 131.197 132.356C136.056 141.852 143.021 149.232 151.983 154.399C155.744 156.551 159.727 158.292 163.862 159.592Z" fill="#0065B3"/>
<path d="M209.673 209.511V238.732H149.477V209.511L151.391 206.961C170.898 200.044 174.851 182.005 175.639 174.868C175.756 173.881 175.824 172.889 175.84 171.896H183.284C183.3 172.889 183.367 173.881 183.485 174.868C184.286 182.005 188.239 200.05 207.733 206.961L209.673 209.511Z" fill="#0065B3"/>
<g opacity="0.1">
<path d="M209.673 209.512H149.477V213.178H209.673V209.512Z" fill="#070809"/>
</g>
<g opacity="0.1">
<path d="M154.581 206.961C174.089 200.044 178.042 182.005 178.83 174.868C178.947 173.881 179.014 172.889 179.031 171.896H175.84C175.824 172.889 175.756 173.881 175.639 174.868C174.838 182.005 170.885 200.05 151.391 206.961L149.477 209.511V238.732H152.667V209.511L154.581 206.961Z" fill="white"/>
</g>
<g opacity="0.1">
<path d="M140.336 110.904H145.735V116.324H140.815C140.621 114.538 140.462 112.731 140.336 110.904Z" fill="#070809"/>
</g>
<g opacity="0.1">
<path d="M163.862 159.594L162.216 164.758C160.738 164.286 159.313 163.78 157.941 163.238C155.684 160.484 153.69 157.526 151.984 154.402C155.745 156.554 159.727 158.295 163.862 159.594Z" fill="#070809"/>
</g>
<g opacity="0.1">
<path d="M195.297 159.593C199.43 158.294 203.412 156.554 207.173 154.404C205.466 157.528 203.471 160.488 201.215 163.243C199.843 163.785 198.419 164.291 196.943 164.76L195.297 159.593Z" fill="#070809"/>
</g>
<g opacity="0.1">
<path d="M218.817 110.904C218.691 112.731 218.532 114.538 218.338 116.324H213.422V110.904H218.817Z" fill="#070809"/>
</g>
<g opacity="0.1">
<path d="M183.502 174.869C180.91 175.37 178.247 175.37 175.656 174.869C175.773 173.882 175.84 172.891 175.857 171.898H183.301C183.317 172.891 183.384 173.882 183.502 174.869Z" fill="#070809"/>
</g>
<g opacity="0.1">
<path d="M147.836 101.928H140.977C141.114 142.111 158.343 174.606 179.582 174.606C180.732 174.604 181.88 174.507 183.013 174.316C163.379 171.039 147.967 139.925 147.836 101.928Z" fill="white"/>
</g>
<path d="M200.053 220.697H159.109V231.215H200.053V220.697Z" fill="#08322F"/>
<g opacity="0.1">
<path d="M161.023 222.13H200.053V220.697H159.109V231.215H161.023V222.13Z" fill="white"/>
</g>
<path d="M119.133 140.727C118.396 140.481 114.057 137.051 113.729 135.499C113.4 133.947 116.023 119.483 116.023 119.483C116.023 119.483 115.78 119.484 115.385 119.436V119.203L115.924 100.205C115.924 100.205 118.135 87.4543 113.958 88.1973C109.782 88.9403 112.401 100.205 112.401 100.205C112.401 100.205 111.926 105.923 111.591 107.638C111.272 109.292 109.811 116.031 110.806 118.125C110.843 118.2 110.883 118.273 110.927 118.343C110.927 118.343 111.093 125.531 109.291 126.513C107.571 127.447 106.856 132.149 106.796 132.569L106.703 132.531C106.19 132.21 105.739 131.799 105.373 131.317C105.334 131.269 105.306 131.218 105.27 131.167C106.444 129.848 107.077 128.134 107.042 126.369C107.007 124.604 106.307 122.917 105.082 121.645C104.513 121.054 103.844 120.567 103.107 120.205C103.086 119.596 102.941 118.996 102.683 118.444C101.853 116.672 97.2594 114.354 93.9954 114.3C92.4894 114.255 91.2554 114.684 90.8054 115.86C90.5754 116.456 90.6454 117.134 90.5494 117.752C90.3584 119.027 89.5384 120.025 88.4854 120.819C88.0604 120.345 87.6004 119.902 87.1104 119.496C86.0444 118.68 83.9194 115.991 83.9194 115.991C83.9194 115.991 77.2864 109.127 76.7954 107.246C76.3044 105.365 69.6774 94.0723 68.2034 96.0393C66.7294 98.0063 73.2794 106.577 73.2794 106.577C73.2794 106.577 74.5234 109.692 75.4804 110.744C76.4374 111.796 83.7764 122.442 83.7764 122.442L84.1274 123.168C82.5764 123.984 81.1604 125.024 80.6594 126.644C79.9254 129.028 81.5304 131.425 82.6404 133.656C84.8034 138.011 85.1134 143.564 82.3214 147.542C79.8204 151.055 75.4814 152.725 71.4194 154.185C73.3804 155.724 75.8174 156.532 78.3104 156.47C77.3724 159.186 74.0484 160.085 71.2154 160.589C72.7024 162.017 74.8294 162.536 76.8714 162.852C77.8714 163.022 78.8854 163.102 79.8994 163.091H80.1484L80.3974 163.072C80.7434 163.049 81.0874 163.005 81.4284 162.941C82.9024 162.642 84.3344 161.837 85.0874 160.537C85.7254 159.424 85.9494 157.908 87.1074 157.35C87.4094 157.214 87.7334 157.137 88.0644 157.124H88.0294C88.2464 157.124 88.4694 157.124 88.6864 157.124L93.5134 157.172C93.7144 157.172 93.9224 157.172 94.1294 157.172C95.4914 157.14 96.9474 156.904 97.6394 155.779C97.9244 155.232 98.0744 154.625 98.0764 154.009C98.1784 152.482 98.0754 150.91 98.1174 149.371C98.5294 152.172 98.9594 156.541 97.9354 158.153C97.1034 159.376 96.0954 160.468 94.9434 161.395C94.6534 161.638 94.3874 161.91 94.1514 162.205C93.9954 162.317 93.9034 162.377 93.9034 162.377L93.8044 162.674C93.4404 163.225 93.1764 163.835 93.0254 164.478C92.9694 164.643 92.9494 164.818 92.9654 164.991C93.0774 165.217 92.1674 166.151 92.4324 166.543C90.1604 169.205 89.7294 173.237 89.7294 173.237L85.5824 179.53C83.4514 185.124 80.2604 185.698 80.2604 185.698C80.2604 185.698 72.7654 180.674 72.5614 180.429C72.3574 180.183 69.4924 178.956 69.4924 178.956C69.1544 178.364 68.6384 177.894 68.0184 177.611C67.0354 177.203 66.9524 175.698 66.9524 175.698C66.8314 172.144 64.7414 171.873 64.7414 171.873C63.0564 171.73 61.7704 172.029 60.7814 172.578L60.4824 172.6C59.0334 172.718 57.2914 172.849 55.3774 172.976C50.0524 173.327 48.7854 176.772 48.7854 176.772C48.7854 176.772 48.1314 177.509 48.9894 178.306C49.8474 179.103 55.3414 178.306 55.5744 178.287C55.1554 178.332 54.7324 178.303 54.3244 178.201C55.1894 178.169 56.3784 178.137 57.3934 178.137H57.6394C57.5754 178.674 57.5444 179.215 57.5464 179.756C57.5464 180.776 60.3704 181.43 60.3704 181.43L68.9684 189.08C68.9684 189.08 74.3744 191.493 77.8134 194.964C81.2524 198.436 84.2934 195.439 84.2934 195.439C87.9334 194.54 98.4074 181.889 98.4174 181.876C98.4174 182.246 98.6374 194.55 99.0554 197.02C99.0724 197.146 99.1034 197.269 99.1484 197.387C99.6394 198.448 98.9824 201.349 98.6984 202.573C98.5174 203.598 98.4484 204.639 98.4914 205.678C98.4914 205.678 94.5634 220.66 94.8894 221.976C95.2144 223.293 92.7604 229.41 92.7604 229.41V234.509L93.1884 234.488C93.1324 234.57 93.0824 234.655 93.0354 234.743L93.0064 234.797C93.0064 234.797 95.6264 235.368 97.3874 235.205C99.1484 235.043 102.172 236.56 102.172 236.56C102.172 236.56 103.197 237.044 106.349 237.248C109.501 237.452 109.501 235.859 109.501 235.859C109.141 233.688 104.16 232.961 104.007 232.939C103.605 232.687 103.228 232.413 102.919 232.177L102.855 232.126C102.876 232.078 102.894 232.029 102.909 231.979C103.442 229.812 100.494 228.871 100.494 228.871V228.341C102.409 227.359 102.788 220.621 102.788 220.621C102.788 220.621 105.66 212.289 106.062 210.899C106.464 209.51 106.062 207.428 106.062 207.428L106.349 205.63C106.349 205.63 106.965 204.406 106.965 204.161C107.044 203.539 107.284 202.948 107.66 202.446C108.11 201.913 107.169 200.647 107.169 200.647L107.989 198.525V196.195L109.903 187.741C109.903 187.741 111.91 177.895 111.214 174.672C110.519 171.449 112.034 169.811 112.034 169.811C111.898 169.882 111.757 169.946 111.613 170.002C111.805 169.559 111.97 169.106 112.108 168.644L116.415 169.175V169.24H117.969C117.969 169.24 117.478 163.184 117.478 160.742C117.478 158.3 119.133 149.537 119.133 149.537C119.133 149.537 119.87 140.972 119.133 140.727ZM100.012 133.656C100.012 133.896 99.9904 134.144 99.9744 134.399L99.8884 134.53L99.7284 134.396L99.5344 134.699L99.4774 134.728C99.0564 134.511 98.8384 133.271 98.5354 133.539L98.4944 133.574C98.4274 133.497 98.3604 133.475 98.2904 133.539L98.2264 133.593C98.2264 133.5 98.2264 133.405 98.2264 133.309C98.8104 133.459 99.4104 133.535 100.012 133.535C100.016 133.577 100.012 133.618 100.012 133.656ZM114.338 161.861H114.431L114.277 162.262C114.297 162.128 114.316 161.998 114.338 161.861ZM98.6124 234.147L98.0254 234L98.3444 233.946L98.6414 234.14L98.6764 234.166L98.6124 234.147ZM104.61 233.289C104.415 233.187 104.218 233.069 104.026 232.948C104.09 232.983 104.342 233.114 104.61 233.289Z" fill="url(#paint1_linear_117_15529)"/>
<path d="M116.457 155.838L112.595 165.897H113.532L109.898 168.793L116.457 169.608V155.838Z" fill="#48A69E"/>
<g opacity="0.1">
<path d="M116.457 155.838L112.595 165.897L111.621 165.636L109.898 168.793L116.457 169.608V155.838Z" fill="#070809"/>
</g>
<path d="M110.398 162.274H116.456L118.68 143.992H110.398V162.274Z" fill="#48A69E"/>
<g opacity="0.1">
<path d="M110.398 162.274H116.456L118.68 143.992H110.398V162.274Z" fill="#070809"/>
</g>
<path d="M98.57 148.321L99.878 148.101L102.884 147.591C102.884 147.591 111.91 145.557 113.773 145.392C114.902 145.243 116.002 144.929 117.04 144.461C117.528 144.25 117.838 144.091 117.838 144.091L114.587 138.159L109.542 134.423C109.542 134.423 106.352 133.744 105.002 131.889C104.701 131.49 104.505 131.021 104.432 130.527C104.359 130.032 104.411 129.527 104.584 129.058C105.407 126.508 99.667 131.497 99.667 131.497C99.667 131.497 99.722 132.692 99.667 134.216C99.667 134.515 99.639 134.828 99.616 135.146C99.616 135.357 99.588 135.567 99.565 135.784C99.425 137.298 99.138 138.857 98.57 139.788C97.182 142.064 98.57 148.321 98.57 148.321Z" fill="#EFD3A8"/>
<g opacity="0.1">
<path d="M99.6641 134.343H99.7931C100.023 134.343 100.208 133.855 100.431 133.833C102.227 133.661 103.867 133.285 105.006 132.013C104.706 131.614 104.51 131.146 104.437 130.652C104.364 130.158 104.416 129.654 104.588 129.185C105.412 126.635 99.6721 131.621 99.6721 131.621C99.6721 131.621 99.7311 132.819 99.6641 134.343Z" fill="#070809"/>
</g>
<path d="M92.6797 127.115C92.6797 128.033 92.8607 128.941 93.2117 129.789C93.5627 130.637 94.0787 131.408 94.7277 132.057C95.3777 132.706 96.1477 133.22 96.9967 133.571C97.8457 133.922 98.7547 134.103 99.6737 134.102C99.9037 134.102 100.13 134.102 100.357 134.07C101.704 133.938 102.984 133.418 104.042 132.573C105.099 131.728 105.889 130.595 106.314 129.311C106.739 128.026 106.782 126.646 106.437 125.338C106.092 124.03 105.375 122.849 104.372 121.941C103.369 121.032 102.124 120.433 100.787 120.218C99.4497 120.003 98.0787 120.18 96.8407 120.728C95.6027 121.276 94.5517 122.171 93.8127 123.305C93.0737 124.439 92.6797 125.762 92.6797 127.115Z" fill="#EFD3A8"/>
<path d="M90.5341 116.509C90.3041 117.102 90.3751 117.765 90.2821 118.393C89.9411 120.659 87.6351 122.017 85.5481 122.967C83.4611 123.917 81.1071 125.042 80.4431 127.232C79.7161 129.601 81.3041 131.975 82.4081 134.197C84.5591 138.526 84.8651 144.047 82.0891 148.006C79.6231 151.513 75.3251 153.176 71.2791 154.636C73.2261 156.167 75.6461 156.972 78.1231 156.912C77.1951 159.612 73.8921 160.508 71.0781 161.005C72.5551 162.427 74.6711 162.943 76.6971 163.256C78.1741 163.485 79.6901 163.635 81.1641 163.339C82.6381 163.042 84.0361 162.242 84.7951 160.948C85.4331 159.842 85.6491 158.334 86.8011 157.776C87.3211 157.572 87.8811 157.49 88.4381 157.537L93.2241 157.588C94.7141 157.588 96.4781 157.473 97.2471 156.202C97.5311 155.658 97.6791 155.055 97.6811 154.442C97.8881 151.305 97.2861 147.99 98.5781 145.128C98.9671 144.264 96.4681 142.896 96.7301 141.981C97.6301 138.835 97.8571 136.358 97.8471 133.085C97.8471 130.551 99.4971 128.367 100.86 126.228C102.222 124.089 103.361 121.389 102.286 119.094C101.073 116.535 91.9661 112.815 90.5341 116.509Z" fill="#131313"/>
<path d="M96.9062 233.228L98.1243 234.034L98.3133 234.159L98.3483 234.181L99.7933 235.137L103.168 235.705L106.136 235.501C106.136 235.501 106.991 233.716 105.647 233.757C105.217 233.735 104.798 233.614 104.422 233.403L104.237 233.311C104.043 233.209 103.848 233.094 103.657 232.973C103.258 232.721 102.881 232.447 102.578 232.214C102.132 231.87 101.835 231.609 101.835 231.609L96.9062 233.228Z" fill="#EFD3A8"/>
<g opacity="0.1">
<path d="M98.1406 234.032L98.3286 234.157L98.3636 234.179L99.8096 235.136L103.185 235.702L106.153 235.499C106.153 235.499 107.008 233.713 105.664 233.754C105.234 233.732 104.815 233.612 104.439 233.402C104.675 233.586 104.873 233.787 104.892 233.956C104.947 234.412 102.697 235.23 102.697 235.23L99.5256 234.392C99.5256 234.392 98.9866 234.24 98.2496 234.049L98.1786 234.03L98.1406 234.032Z" fill="#070809"/>
</g>
<path d="M92.7109 234.812C92.7109 234.812 95.3109 235.38 97.0589 235.217C98.8069 235.055 101.819 236.559 101.819 236.559C101.819 236.559 102.837 237.037 105.967 237.241C109.097 237.445 109.097 235.858 109.097 235.858C108.74 233.7 103.794 232.989 103.641 232.957C103.702 232.989 103.96 233.12 104.222 233.295C104.573 233.525 104.952 233.824 104.981 234.067C105.035 234.519 102.786 235.342 102.786 235.342L99.6149 234.506C99.6149 234.506 99.0759 234.35 98.3389 234.159H98.2689C97.1759 233.862 96.0649 233.633 94.9439 233.474C93.5779 233.327 92.8799 234.487 92.7359 234.749C92.7259 234.769 92.7179 234.791 92.7109 234.812Z" fill="#0A0909"/>
<path d="M51.7266 177.489L53.1086 178.548C53.1086 178.548 53.5106 178.529 54.1106 178.509H54.3016C55.1596 178.478 56.3436 178.446 57.3486 178.446C57.9986 178.417 58.6496 178.453 59.2916 178.554C59.9806 178.796 61.2066 174.614 61.2066 174.614L59.8216 174.295L59.3616 174.187L59.0426 174.111L57.9166 173.846L54.5026 174.235L52.1036 175.778L51.7266 177.489Z" fill="#EFD3A8"/>
<g opacity="0.1">
<path d="M51.7266 177.489L53.1076 178.548C53.1076 178.548 53.5096 178.529 54.1096 178.51C53.8346 178.403 53.6076 178.201 53.4716 177.939C52.5786 175.462 57.0096 174.404 57.0096 174.404L59.0736 174.315L59.4756 174.295H59.7946L59.3356 174.187L59.0166 174.111L57.8906 173.846L54.4766 174.235L52.0766 175.778L51.7266 177.489Z" fill="#070809"/>
</g>
<path d="M49.0048 178.605C49.8408 179.377 55.3148 178.605 55.5448 178.586C55.1298 178.633 54.7088 178.604 54.3038 178.5C54.1028 178.464 53.9138 178.384 53.7478 178.266C53.5828 178.147 53.4448 177.993 53.3468 177.815C52.4538 175.335 56.8848 174.28 56.8848 174.28L58.9488 174.191L59.3478 174.171L64.3668 173.955L64.6098 172.574C64.6098 172.574 62.9788 172.727 60.4198 172.931C58.9808 173.049 57.2298 173.18 55.3378 173.304C50.0508 173.655 48.7938 177.082 48.7938 177.082C48.7938 177.082 48.1528 177.815 49.0048 178.605Z" fill="#0A0909"/>
<path d="M110.403 118.775C110.437 118.851 110.477 118.923 110.524 118.992L111.743 120.777L114.914 121.096L114.949 119.84L115.482 100.943C115.482 100.943 117.677 88.2691 113.53 88.9991C109.382 89.7291 111.985 100.943 111.985 100.943C111.985 100.943 111.513 106.63 111.181 108.339C110.859 109.99 109.414 116.703 110.403 118.775Z" fill="#EFD3A8"/>
<path d="M103.289 165.711L104.192 167.254L106.211 170.706C106.211 170.706 109.874 172.048 110.812 171.025C111.326 170.467 111.881 168.519 112.27 166.881C112.589 165.555 112.803 164.436 112.803 164.436L103.289 165.711Z" fill="#EFD3A8"/>
<g opacity="0.1">
<path d="M103.289 165.711L104.192 167.253C104.248 167.205 104.3 167.15 104.345 167.091C105.366 165.79 109.861 166.813 112.27 166.896C112.589 165.57 112.803 164.451 112.803 164.451L103.289 165.711Z" fill="#070809"/>
</g>
<g opacity="0.1">
<path d="M57.3516 178.436C58.0016 178.407 58.6526 178.444 59.2946 178.545C59.9836 178.787 61.2086 174.605 61.2086 174.605L59.3646 174.171L64.3836 173.955L64.6256 172.574C64.6256 172.574 62.9956 172.727 60.4366 172.931C59.9076 173.236 59.4366 173.629 59.0426 174.095L58.9656 174.191C57.8966 175.501 57.5016 177.19 57.3516 178.436Z" fill="#070809"/>
</g>
<g opacity="0.1">
<path d="M96.8984 233.227L98.3054 234.158C100.405 233.778 102.322 233.182 102.549 232.245C102.55 232.23 102.55 232.215 102.549 232.201C102.102 231.856 101.805 231.596 101.805 231.596L96.8984 233.227Z" fill="#070809"/>
</g>
<g opacity="0.1">
<path d="M92.7422 234.759C94.5962 234.666 96.4432 234.469 98.2742 234.166C97.1802 233.866 96.0692 233.635 94.9462 233.474C93.5842 233.327 92.8862 234.488 92.7422 234.759Z" fill="#070809"/>
</g>
<path d="M57.5 180.049C57.5 181.066 60.305 181.716 60.305 181.716L68.846 189.312C68.846 189.312 74.212 191.709 77.626 195.161C81.04 198.614 84.052 195.649 84.052 195.649C87.67 194.756 98.09 182.162 98.09 182.162C98.09 182.162 98.333 196.545 98.821 197.6C99.309 198.655 98.658 201.54 98.374 202.761C98.195 203.779 98.127 204.813 98.17 205.846C98.17 205.846 94.269 220.755 94.594 222.055C94.919 223.356 92.478 229.451 92.478 229.451V234.529C92.478 234.529 102.034 234.162 102.56 232.01C103.087 229.859 100.164 228.922 100.164 228.922V228.392C102.079 227.417 102.439 220.717 102.439 220.717C102.439 220.717 105.288 212.429 105.694 211.049C106.099 209.668 105.694 207.593 105.694 207.593L105.978 205.808C105.978 205.808 106.587 204.587 106.587 204.345C106.667 203.726 106.905 203.139 107.279 202.64C107.726 202.11 106.791 200.851 106.791 200.851L107.605 198.738V196.424L109.519 188.015C109.519 188.015 111.513 178.222 110.821 175.012C110.128 171.802 111.634 170.18 111.634 170.18C108.37 171.888 106.724 168.085 106.185 166.45C106.048 166.029 105.981 165.749 105.981 165.749C105.981 165.749 101.498 164.098 97.325 164.493C96.477 164.562 95.642 164.738 94.839 165.019C90.203 166.686 89.473 173.591 89.473 173.591L85.366 179.848C83.251 185.414 80.08 185.981 80.08 185.981C80.08 185.981 72.639 180.986 72.422 180.74C72.205 180.495 69.372 179.277 69.372 179.277C69.037 178.688 68.525 178.22 67.908 177.938C66.932 177.53 66.852 176.026 66.852 176.026C66.731 172.491 64.657 172.201 64.657 172.201C57.459 171.601 57.5 179.035 57.5 180.049Z" fill="#0065B3"/>
<path d="M98.8984 160.186H103.288V146.578H98.8984V160.186Z" fill="#48A69E"/>
<g opacity="0.1">
<path d="M98.8984 160.186H103.288V146.578H98.8984V160.186Z" fill="#070809"/>
</g>
<g opacity="0.1">
<path d="M110.399 118.746C110.398 118.756 110.398 118.765 110.399 118.775C110.433 118.851 110.473 118.923 110.52 118.992L111.739 120.777L114.91 121.096L114.945 119.84C113.956 119.763 111.704 119.492 110.399 118.746Z" fill="#070809"/>
</g>
<path d="M110.527 118.992C110.527 118.992 110.69 126.139 108.9 127.115C107.11 128.09 106.414 133.171 106.414 133.171C106.414 133.171 111.838 136.735 113.048 138.303C114.257 139.871 117.033 143.607 116.462 144.5C115.89 145.392 117.846 149.457 117.846 149.457C117.846 149.457 114.266 156.769 115.08 159.533C115.894 162.297 115.973 169.606 115.973 169.606H117.521C117.521 169.606 117.033 163.594 117.033 161.155C117.033 158.717 118.657 150.024 118.657 150.024C118.657 150.024 119.39 141.494 118.657 141.252C117.923 141.009 113.616 137.595 113.29 136.049C112.965 134.503 115.568 120.111 115.568 120.111C115.568 120.111 112.234 119.968 110.527 118.992Z" fill="#47A0E4"/>
<g opacity="0.1">
<path d="M98.8125 145.316C98.9605 146.311 99.3225 147.261 99.8745 148.102L102.88 147.592C102.88 147.592 111.907 145.558 113.77 145.393C114.899 145.244 115.999 144.93 117.037 144.462C116.322 141.93 114.926 139.642 113.001 137.847L111.856 136.786C110.168 135.22 108.211 133.971 106.081 133.098C106.215 133.209 115.684 141.287 113.61 142.871C111.536 144.455 105.953 140.598 105.953 140.598L99.6035 135.148L99.3735 134.95L99.0065 135.521C99.1935 135.597 99.3755 135.685 99.5525 135.782C101.717 136.969 103.323 138.963 104.02 141.328C105.324 145.711 98.8125 145.316 98.8125 145.316Z" fill="#070809"/>
</g>
<path d="M96.8594 165.629C96.8594 165.629 102.876 168.96 104.338 167.092C104.657 166.68 105.33 166.502 106.169 166.454C106.032 166.033 105.965 165.753 105.965 165.753C105.965 165.753 101.482 164.102 97.3094 164.497C97.0354 165.185 96.8594 165.629 96.8594 165.629Z" fill="#2D2F59"/>
<path d="M99.6284 134.956L106.207 140.61C106.207 140.61 111.768 144.48 113.865 142.883C115.961 141.286 106.332 133.107 106.332 133.107C108.458 133.983 110.412 135.228 112.103 136.785L113.249 137.847C116.261 140.636 116.94 140.636 117.042 144.735C117.068 145.746 116.723 147.196 116.459 147.457C115.482 148.414 114.799 155.36 114.949 156.172C115.099 156.985 113.131 164.001 113.769 165.952C114.407 167.903 105.792 164.977 104.334 166.848C102.876 168.719 96.8594 165.385 96.8594 165.385C96.8594 165.385 100.193 156.851 101.007 156.284C101.82 155.717 102.797 151.327 101.007 149.297C99.2174 147.266 99.0574 145.315 99.0574 145.315C99.0574 145.315 105.566 145.717 104.261 141.334C103.894 140.064 103.257 138.887 102.394 137.885C101.53 136.883 100.461 136.078 99.2584 135.526L99.6284 134.956Z" fill="#ECEFFA"/>
<g opacity="0.1">
<path d="M108.408 149.34C108.408 149.34 105.884 154.093 102.62 155.327C102.515 155.365 102.413 155.4 102.301 155.432C98.8926 156.468 108.663 150.813 108.408 149.34Z" fill="#070809"/>
</g>
<path d="M73.1133 107.291C73.1133 107.291 74.3323 110.38 75.3083 111.435C76.2843 112.49 83.5203 123.054 83.5203 123.054L84.1333 124.329L84.6603 125.416L89.2953 124.928L89.6143 123.06L89.4363 122.844C88.9703 122.286 87.7003 120.788 86.8483 120.134C85.7923 119.324 83.6773 116.644 83.6773 116.644C83.6773 116.644 77.0913 109.816 76.6033 107.948C76.1153 106.08 69.5263 94.8782 68.0653 96.8162C66.6043 98.7542 73.1133 107.291 73.1133 107.291Z" fill="#EFD3A8"/>
<g opacity="0.1">
<g opacity="0.1">
<path d="M86.5691 157.537C86.0121 157.489 85.4521 157.57 84.9321 157.773C83.7831 158.331 83.5671 159.839 82.9291 160.945C82.1821 162.239 80.7591 163.039 79.2951 163.336C79.0041 163.392 78.7101 163.432 78.4141 163.457C79.3471 163.547 80.2881 163.507 81.2091 163.336C82.6731 163.039 84.0961 162.239 84.8431 160.945C85.4811 159.839 85.6981 158.331 86.8471 157.773C87.1491 157.637 87.4731 157.562 87.8041 157.55L86.5691 157.537Z" fill="#070809"/>
</g>
<g opacity="0.1">
<path d="M97.9011 133.085C97.9011 130.551 99.5501 128.367 100.91 126.228C102.269 124.09 103.411 121.39 102.336 119.095C101.417 117.134 95.8781 114.504 92.6811 115.024C95.8111 115.429 99.6691 117.488 100.421 119.095C101.497 121.39 100.354 124.09 98.9951 126.228C97.6361 128.367 95.9811 130.551 95.9871 133.085C95.9871 136.356 95.7671 138.823 94.8671 141.982C94.6091 142.89 97.1001 144.264 96.7171 145.125C95.4221 147.994 96.0281 151.302 95.8211 154.439C95.8171 155.052 95.6671 155.655 95.3841 156.199C94.7461 157.247 93.4371 157.518 92.1641 157.576H93.2781C94.7651 157.576 96.5291 157.461 97.2981 156.189C97.5811 155.645 97.7311 155.042 97.7351 154.43C97.9421 151.293 97.3371 147.981 98.6321 145.115C99.0211 144.255 96.5231 142.884 96.7811 141.972C97.6811 138.836 97.9071 136.356 97.9011 133.085Z" fill="#070809"/>
</g>
</g>
<g opacity="0.1">
<path d="M84.1406 124.321L84.6676 125.408L89.3036 124.921L89.6226 123.052L89.4436 122.836C88.9486 123.078 85.2446 124.859 84.1406 124.321Z" fill="#070809"/>
</g>
<g opacity="0.1">
<path d="M101.25 136.542C101.25 136.542 100.112 134.757 99.4614 135.241C98.8104 135.726 98.5574 133.778 98.1844 134.103C97.8114 134.428 96.7234 135.334 96.2704 134.068C95.9164 133.061 92.0614 126.689 90.4984 124.126C90.0964 123.463 89.8444 123.055 89.8444 123.055C89.8444 123.055 85.4544 125.248 84.3984 124.518V126.061L85.2914 126.144L90.0774 135.069C90.0774 135.069 91.5834 137.463 91.4814 138.298C91.3794 139.133 93.4124 142.79 93.7374 143.032C94.0624 143.274 97.5654 147.338 97.5654 147.338C97.5654 147.338 99.3554 156.114 97.8084 158.553C96.2604 160.991 93.5804 162.776 93.5804 162.776C93.5804 162.776 92.7734 165.132 92.8914 165.377C93.0094 165.623 91.9534 166.678 92.4414 167.003C92.9294 167.328 93.5804 169.601 93.5804 169.601C93.5804 169.601 95.8584 165.945 97.0904 165.377C98.3224 164.81 99.8974 157.332 99.8974 157.332C99.8974 157.332 100.347 152.926 100.382 150.083C100.418 147.24 100.274 136.542 101.25 136.542Z" fill="#070809"/>
</g>
<path d="M101.008 136.54C101.008 136.54 99.8722 134.756 99.2212 135.24C98.5702 135.725 98.3152 133.777 97.9452 134.102C97.5752 134.427 96.4873 135.332 96.0312 134.066C95.6742 133.059 91.8192 126.687 90.2592 124.124L89.6052 123.053C89.6052 123.053 85.2152 125.246 84.1562 124.516V126.059L85.0522 126.143L89.8382 135.068C89.8382 135.068 91.3472 137.461 91.2422 138.296C91.1372 139.131 93.1562 142.789 93.4972 143.031C93.8382 143.273 97.3263 147.337 97.3263 147.337C97.3263 147.337 99.1162 156.112 97.5722 158.551C96.7562 159.775 95.7642 160.874 94.6272 161.809C93.6722 162.596 93.0002 163.673 92.7132 164.876C92.6582 165.04 92.6372 165.213 92.6552 165.385C92.7732 165.627 91.7172 166.686 92.2052 167.012C92.6932 167.337 93.3512 169.619 93.3512 169.619C93.3512 169.619 95.6283 165.963 96.8602 165.395C98.0922 164.828 99.6712 157.35 99.6712 157.35C99.6712 157.35 100.117 152.943 100.156 150.1C100.194 147.257 100.05 136.54 101.008 136.54Z" fill="#47A0E4"/>
<g opacity="0.1">
<path d="M89.8633 173.512C89.8633 173.512 93.2803 174.149 94.6493 175.134C96.0183 176.119 89.4453 173.592 89.4453 173.592L89.8633 173.512Z" fill="#070809"/>
</g>
<g opacity="0.1">
<path d="M98.0859 182.16C98.0859 182.16 101.65 185.128 101.012 187.809C100.373 190.49 98.7269 197.236 98.7269 197.236L98.0859 182.16Z" fill="#070809"/>
</g>
<g opacity="0.1">
<path d="M66.9153 176.455C66.9153 176.455 61.8923 177.004 62.2183 177.654C62.5433 178.304 66.9153 177.055 66.9153 177.055V176.455Z" fill="#070809"/>
</g>
<g opacity="0.1">
<path d="M105.474 201.133C105.474 201.133 105.793 201.538 103.93 201.133C102.067 200.728 103.442 199.479 103.442 199.479L105.474 201.133Z" fill="#070809"/>
</g>
<g opacity="0.1">
<path d="M104.835 206.741C104.835 206.741 102.283 207.145 100.914 206.741C99.5448 206.336 104.835 206.741 104.835 206.741Z" fill="#070809"/>
</g>
<g opacity="0.1">
<path d="M99.5842 228.678C99.5842 228.678 99.1382 228.19 96.9012 229.083C94.6642 229.976 93.7712 230.017 93.1202 229.721C92.4692 229.424 99.5842 228.678 99.5842 228.678Z" fill="#070809"/>
</g>
<g opacity="0.1">
<path d="M102.07 175.764L98.8984 180.172C98.8984 180.172 100.605 176.312 102.07 175.764Z" fill="#070809"/>
</g>
<g opacity="0.1">
<path d="M95.9051 135.24C95.9051 135.24 95.7681 136.704 93.7231 137.274C91.6781 137.845 91.2891 138.306 91.2891 138.306" fill="#070809"/>
</g>
<g opacity="0.1">
<path d="M90.5863 124.635C90.5863 124.635 87.8873 126.548 85.0703 126.143L90.5863 124.635Z" fill="#070809"/>
</g>
<g opacity="0.1">
<path d="M92.6406 165.585C92.6406 165.585 93.4286 166.079 95.3206 163.918L92.6406 165.585Z" fill="#070809"/>
</g>
<g opacity="0.1">
<path d="M112.291 142.67C112.367 142.275 112.093 141.908 111.834 141.599L111.305 140.961C111.201 140.831 111.085 140.711 110.957 140.604C110.638 140.359 110.23 140.286 109.898 140.066" fill="#070809"/>
</g>
<path d="M292.821 238.949C299.906 238.949 305.65 237.978 305.65 236.781C305.65 235.584 299.906 234.615 292.821 234.615C285.736 234.615 279.992 235.584 279.992 236.781C279.992 237.978 285.736 238.949 292.821 238.949Z" fill="#0065B3"/>
<path d="M298.13 233.238C298.716 232.762 299.142 232.118 299.352 231.393C299.511 230.663 299.199 229.799 298.497 229.515C297.712 229.215 296.873 229.761 296.238 230.309C295.603 230.857 294.872 231.485 294.043 231.367C294.47 230.979 294.79 230.487 294.971 229.939C295.152 229.391 295.188 228.806 295.076 228.24C295.04 228.006 294.941 227.785 294.789 227.603C294.352 227.137 293.564 227.335 293.041 227.701C291.382 228.868 290.919 231.122 290.91 233.146C290.744 232.416 290.884 231.654 290.881 230.914C290.878 230.175 290.67 229.321 290.035 228.929C289.644 228.718 289.203 228.615 288.759 228.629C288.016 228.6 287.183 228.677 286.676 229.222C286.038 229.898 286.207 231.032 286.755 231.772C287.304 232.511 288.143 232.986 288.915 233.5C289.533 233.868 290.06 234.37 290.456 234.969C290.504 235.053 290.543 235.142 290.571 235.234H295.249C296.295 234.701 297.264 234.03 298.13 233.238Z" fill="#0065B3"/>
<path d="M103.705 35.9674C107.105 37.9788 109.601 41.2152 110.679 45.0082C111.757 48.8011 111.333 52.8623 109.496 56.3512C109.084 57.1544 110.394 57.6653 110.803 56.868C112.739 53.0894 113.171 48.7202 112.011 44.6359C110.852 40.5517 108.187 37.0559 104.552 34.8483C103.785 34.3834 102.932 35.4991 103.705 35.9674Z" fill="white"/>
<path d="M119.033 46.9863C115.552 34.1503 102.924 26.3862 94.1769 28.7429C85.4302 31.0995 78.4458 44.1463 81.9269 56.9823C85.1487 68.8633 96.597 76.2865 104.815 75.5665C104.751 75.6649 104.705 75.7744 104.681 75.8902L104.311 77.947C104.282 78.1036 104.295 78.2656 104.346 78.4159C104.398 78.5672 104.488 78.7027 104.606 78.8089C104.725 78.9151 104.87 78.9897 105.025 79.0249C105.182 79.0602 105.344 79.0557 105.497 79.0106L109.782 77.7565C109.936 77.7115 110.075 77.6285 110.187 77.5149C110.299 77.4013 110.38 77.2618 110.423 77.108C110.465 76.9542 110.467 76.7921 110.429 76.6376C110.391 76.4831 110.314 76.3403 110.205 76.2237L108.777 74.692C108.726 74.64 108.669 74.5936 108.608 74.5548C116.104 71.0777 122.262 58.8928 119.033 46.9863Z" fill="#03233B"/>
<path d="M142.201 47.8373C137.523 35.1853 125.436 28.0292 115.203 31.8529C92.4073 40.3004 105.989 82.9067 129.234 78.4592L130.016 82.3763L136.807 79.8387L134.855 76.3588C143.136 71.3586 146.441 59.3085 142.201 47.8373Z" fill="#47A0E4"/>
<path d="M113.633 65.3765L110.984 66.3029C108.244 61.8933 106.34 57.0659 105.355 52.042L108.004 51.1156C108.803 56.4468 110.68 61.2015 113.633 65.3765Z" fill="white"/>
<path d="M136.154 75.9807L128.396 78.8545L129.038 80.5734L136.795 77.6996L136.154 75.9807Z" fill="#08322F"/>
<path d="M132.992 78.6504L154.424 138.297L132.992 78.6504Z" fill="#08322F"/>
<path d="M132.992 78.6504L154.424 138.297" stroke="#403D56"/>
<path d="M190.831 27.0474C187.302 14.2245 174.646 6.50717 165.908 8.89619C157.169 11.2851 150.234 24.3578 153.763 37.1808C157.029 49.0498 168.503 56.4305 176.719 55.6802C176.655 55.7788 176.61 55.8884 176.587 56.0044L176.223 58.0625C176.196 58.2192 176.209 58.3801 176.261 58.5313C176.313 58.6814 176.404 58.8176 176.523 58.9233C176.643 59.029 176.787 59.1031 176.943 59.1378C177.098 59.1724 177.261 59.1673 177.414 59.1217L181.695 57.8517C181.848 57.8061 181.987 57.7226 182.098 57.6086C182.21 57.4945 182.29 57.3548 182.332 57.2008C182.374 57.0469 182.375 56.8848 182.337 56.7304C182.298 56.576 182.221 56.4336 182.111 56.3173L180.678 54.791C180.627 54.7391 180.57 54.6929 180.508 54.6544C187.992 51.1496 194.104 38.9419 190.831 27.0474Z" fill="#03233B"/>
<path d="M176.053 16.941C179.461 18.9399 181.97 22.1671 183.062 25.956C184.153 29.7449 183.744 33.8066 181.92 37.3033C181.511 38.108 182.823 38.6141 183.228 37.8152C185.151 34.0294 185.567 29.6587 184.393 25.5788C183.218 21.4988 180.541 18.013 176.896 15.8188C176.128 15.3567 175.279 16.4756 176.053 16.941Z" fill="white"/>
<path d="M189.713 142.199C190.611 142.199 191.338 141.471 191.338 140.574C191.338 139.677 190.611 138.949 189.713 138.949C188.814 138.949 188.086 139.677 188.086 140.574C188.086 141.471 188.814 142.199 189.713 142.199Z" fill="white"/>
<path d="M184.744 147.158C185.643 147.158 186.371 146.432 186.371 145.535C186.371 144.638 185.643 143.91 184.744 143.91C183.846 143.91 183.117 144.638 183.117 145.535C183.117 146.432 183.846 147.158 184.744 147.158Z" fill="white"/>
<path d="M188.562 139.426L183.5 144.48L185.8 146.776L190.862 141.722L188.562 139.426Z" fill="white"/>
<path d="M189.486 129.021C190.384 129.021 191.113 128.294 191.113 127.397C191.113 126.5 190.384 125.773 189.486 125.773C188.587 125.773 187.859 126.5 187.859 127.397C187.859 128.294 188.587 129.021 189.486 129.021Z" fill="white"/>
<path d="M171.455 147.029C172.353 147.029 173.082 146.302 173.082 145.405C173.082 144.508 172.353 143.781 171.455 143.781C170.556 143.781 169.828 144.508 169.828 145.405C169.828 146.302 170.556 147.029 171.455 147.029Z" fill="white"/>
<path d="M188.342 126.248L170.305 144.255L172.606 146.552L190.643 128.544L188.342 126.248Z" fill="white"/>
<path d="M172.932 125.447C173.83 125.447 174.559 124.72 174.559 123.823C174.559 122.926 173.83 122.199 172.932 122.199C172.033 122.199 171.305 122.926 171.305 123.823C171.305 124.72 172.033 125.447 172.932 125.447Z" fill="#08322F"/>
<path d="M167.963 130.406C168.862 130.406 169.59 129.68 169.59 128.783C169.59 127.886 168.862 127.158 167.963 127.158C167.065 127.158 166.336 127.886 166.336 128.783C166.336 129.68 167.065 130.406 167.963 130.406Z" fill="#08322F"/>
<path d="M171.781 122.676L166.719 127.73L169.019 130.026L174.081 124.972L171.781 122.676Z" fill="#08322F"/>
<path d="M186.135 125.67C187.033 125.67 187.762 124.942 187.762 124.045C187.762 123.148 187.033 122.422 186.135 122.422C185.236 122.422 184.508 123.148 184.508 124.045C184.508 124.942 185.236 125.67 186.135 125.67Z" fill="#08322F"/>
<path d="M168.096 143.678C168.994 143.678 169.723 142.951 169.723 142.054C169.723 141.157 168.994 140.43 168.096 140.43C167.197 140.43 166.469 141.157 166.469 142.054C166.469 142.951 167.197 143.678 168.096 143.678Z" fill="#08322F"/>
<path d="M184.98 122.898L166.945 140.906L169.245 143.202L187.282 125.195L184.98 122.898Z" fill="#08322F"/>
<path d="M178.838 126.254C179.737 126.254 180.465 125.526 180.465 124.629C180.465 123.732 179.737 123.006 178.838 123.006C177.94 123.006 177.211 123.732 177.211 124.629C177.211 125.526 177.94 126.254 178.838 126.254Z" fill="white"/>
<path d="M168.682 136.393C169.58 136.393 170.309 135.666 170.309 134.769C170.309 133.872 169.58 133.145 168.682 133.145C167.783 133.145 167.055 133.872 167.055 134.769C167.055 135.666 167.783 136.393 168.682 136.393Z" fill="white"/>
<path d="M177.687 123.482L167.531 133.621L169.832 135.918L179.989 125.778L177.687 123.482Z" fill="white"/>
<path d="M188.9 136.305C189.798 136.305 190.527 135.578 190.527 134.681C190.527 133.784 189.798 133.057 188.9 133.057C188.001 133.057 187.273 133.784 187.273 134.681C187.273 135.578 188.001 136.305 188.9 136.305Z" fill="#08322F"/>
<path d="M178.752 146.445C179.65 146.445 180.379 145.718 180.379 144.821C180.379 143.924 179.65 143.197 178.752 143.197C177.853 143.197 177.125 143.924 177.125 144.821C177.125 145.718 177.853 146.445 178.752 146.445Z" fill="#08322F"/>
<path d="M187.75 133.531L177.594 143.672L179.895 145.969L190.052 135.828L187.75 133.531Z" fill="#08322F"/>
<path d="M290.229 32.815C286.701 19.992 274.045 12.2748 265.307 14.6638C256.568 17.0527 249.633 30.1254 253.161 42.9483C256.427 54.8174 267.902 62.1981 276.118 61.4478C276.053 61.5463 276.008 61.657 275.986 61.772L275.622 63.83C275.594 63.9867 275.607 64.1487 275.66 64.2989C275.712 64.4499 275.802 64.5851 275.922 64.6909C276.041 64.7966 276.185 64.8707 276.341 64.9053C276.497 64.94 276.659 64.9349 276.812 64.8893L281.094 63.6193C281.246 63.5737 281.385 63.4902 281.497 63.3762C281.608 63.2621 281.689 63.1224 281.73 62.9684C281.772 62.8145 281.774 62.6523 281.735 62.498C281.697 62.3436 281.62 62.2011 281.51 62.0849L280.077 60.5586C280.026 60.5067 279.968 60.4605 279.906 60.422C287.391 56.9172 293.503 44.7095 290.229 32.815Z" fill="#03233C"/>
<path d="M275.452 22.7086C278.86 24.7075 281.369 27.9347 282.46 31.7236C283.551 35.5125 283.143 39.5751 281.318 43.0709C280.909 43.8756 282.221 44.3817 282.627 43.5828C284.55 39.797 284.965 35.4263 283.791 31.3464C282.616 27.2664 279.939 23.7806 276.295 21.5864C275.526 21.1243 274.677 22.2432 275.452 22.7086Z" fill="white"/>
<path d="M239.741 69.6192C239.741 69.6192 236.086 100.351 232.99 107.238C229.046 116.011 183.357 154.051 183.357 154.051" stroke="#403D56"/>
<path d="M259.596 44.9445C259.817 31.7652 251.189 20.9259 240.325 20.7327C216.149 20.2386 213.391 63.8415 236.544 68.1334L235.859 71.9752L243.068 72.103L242.512 68.2386C251.99 66.6619 259.395 56.8932 259.596 44.9445Z" fill="#47A0E4"/>
<path d="M227.363 51.0496L224.733 51.0091C223.963 45.7474 224.067 40.376 225.039 35.1407L227.669 35.1813C226.425 40.6503 226.322 45.9397 227.363 51.0496Z" fill="white"/>
<path d="M243.72 68.2838L235.635 68.1435L235.605 69.9352L243.689 70.0754L243.72 68.2838Z" fill="#08322F"/>
<path d="M281.639 59.8957L273.706 61.4665L274.055 63.2243L281.986 61.6537L281.639 59.8957Z" fill="#08322F"/>
<path d="M279.027 61.9977C279.027 61.9977 285.629 89.5066 285.724 96.1834C285.846 104.689 268.997 147.996 268.997 147.996" stroke="#403D56"/>
<path d="M102.282 75.9626L110.098 73.8926L110.557 75.6249L102.741 77.6945L102.282 75.9626Z" fill="#08322F"/>
<path d="M105.724 76.6149C105.724 76.6149 111.866 104.231 114.71 110.272C118.334 117.967 152.481 149.486 152.481 149.486" stroke="#403D56"/>
<path d="M174.636 56.0181L182.401 53.7618L182.901 55.4826L175.137 57.7386L174.636 56.0181Z" fill="#08322F"/>
<path d="M178.731 56.3678C178.731 56.3678 184.023 77.959 186.305 82.6649C189.212 88.6598 215.571 112.989 215.571 112.989" stroke="#403D56"/>
<path d="M292.637 139.31C291.68 141.328 292.369 143.715 292.196 145.947C292.052 147.201 291.767 148.434 291.348 149.625C290.978 150.811 290.608 152 290.135 153.151C289.74 154.107 289.271 155.063 288.904 156.039C288.32 157.594 287.947 159.344 286.763 160.501C286.22 163.109 285.531 165.959 283.384 167.54C281.518 168.917 278.917 168.965 276.738 168.133C274.559 167.301 272.788 165.707 271.228 163.989C269.668 162.27 268.274 160.399 266.599 158.799C265.639 157.899 264.618 157.065 263.545 156.303C262.465 155.519 261.353 154.782 260.211 154.091C259.512 153.613 258.728 153.272 257.901 153.087C257.222 152.957 256.519 153.094 255.939 153.469C255.807 153.559 255.688 153.667 255.585 153.788C255.301 154.185 255.085 154.627 254.947 155.095C253.607 158.582 250.011 160.374 247.139 162.752L244.517 164.923C244.159 165.219 243.764 165.653 243.939 166.083C244.06 166.301 244.255 166.468 244.488 166.555C246.013 167.307 247.803 167.61 249.06 168.757C249.519 169.178 249.96 169.733 250.582 169.765C250.91 169.745 251.234 169.673 251.539 169.551C252.019 169.421 252.523 169.404 253.01 169.502C253.498 169.599 253.957 169.808 254.35 170.112C254.573 170.33 254.832 170.508 255.116 170.638C255.353 170.701 255.6 170.716 255.843 170.683C256.523 170.635 257.244 170.574 257.853 170.877C258.463 171.18 258.964 171.894 259.675 171.945C260.023 171.97 260.438 171.856 260.769 171.888C260.861 171.89 260.95 171.915 261.03 171.959C261.11 172.004 261.178 172.067 261.229 172.143C261.303 172.318 261.354 172.502 261.379 172.691C261.51 173.14 261.95 173.414 262.237 173.784C262.677 174.352 262.741 175.123 262.696 175.84C262.552 178.083 261.552 180.185 259.902 181.712C259.433 182.19 258.836 182.523 258.182 182.668C257.854 182.737 257.514 182.701 257.208 182.565C256.902 182.429 256.647 182.201 256.478 181.913C256.407 181.665 256.299 181.428 256.159 181.211C255.645 180.647 254.494 181.247 254.021 180.644C253.728 180.268 253.938 179.665 253.658 179.277C253.377 178.888 252.7 178.958 252.18 178.935C251.571 178.904 251.006 178.617 250.416 178.467C249.459 178.218 248.457 178.311 247.477 178.244C246.663 178.172 245.855 178.044 245.059 177.861L241.001 177.032C238.416 176.506 235.822 175.974 233.362 175.034C232.421 174.677 231.474 174.237 230.81 173.472C230.275 172.8 229.931 171.996 229.815 171.145C229.237 167.744 232.3 164.837 232.686 161.41C232.823 160.16 233.324 158.981 233.796 157.821C234.662 155.746 235.526 153.671 236.387 151.595C236.526 151.208 236.708 150.839 236.929 150.492C237.297 150.048 237.711 149.645 238.164 149.29C239.373 148.194 240.241 146.773 240.662 145.197C240.694 145.022 240.767 144.857 240.876 144.716C240.989 144.622 241.114 144.541 241.246 144.477C241.474 144.329 241.646 144.108 241.733 143.851C241.82 143.594 241.819 143.315 241.728 143.059C241.926 143.042 242.112 142.955 242.251 142.814C242.391 142.672 242.474 142.485 242.487 142.287C242.464 142.115 242.475 141.939 242.519 141.771C242.596 141.605 242.787 141.522 242.899 141.375C243.081 141.136 243.017 140.802 242.988 140.502C242.969 140.312 242.969 140.121 242.988 139.931C243.058 139.256 243.36 138.627 243.843 138.15C244.606 137.4 245.691 137.595 246.744 137.416C247.794 137.19 248.82 136.862 249.807 136.438C252.575 135.348 255.49 134.674 258.456 134.439C261.437 134.205 264.431 134.681 267.192 135.829C267.594 135.992 267.972 136.206 268.318 136.467C268.564 136.656 268.765 136.896 268.908 137.171C269.026 137.508 269.171 137.836 269.342 138.15C269.684 138.615 270.328 138.765 270.702 139.205C271.075 139.645 271.107 140.387 271.416 140.932C271.86 141.71 272.887 142.07 273.193 142.915C273.289 143.183 273.302 143.476 273.372 143.753C273.544 144.448 274.061 144.997 274.518 145.545C276.19 147.544 277.261 149.975 277.606 152.558C277.708 150.942 278.796 149.51 280.158 148.618C280.525 148.379 280.95 148.114 281.023 147.681C281.116 147.132 280.583 146.645 280.618 146.087C280.657 145.814 280.767 145.557 280.937 145.341C281.545 144.46 282.212 143.622 282.934 142.832C283.327 142.402 283.767 141.876 283.604 141.309C283.48 140.885 283.046 140.636 282.807 140.266C282.667 140.046 282.596 139.789 282.601 139.528C282.607 139.267 282.689 139.014 282.839 138.8C283.062 138.497 283.416 138.277 283.524 137.917C283.649 137.493 283.371 137.034 283.457 136.597C283.574 136.247 283.806 135.948 284.115 135.746C284.538 135.361 285.019 135.045 285.541 134.809C286.383 134.49 287.321 134.608 288.215 134.732C289.708 134.94 291.383 135.258 292.225 136.508C292.764 137.289 293.039 138.475 292.637 139.31Z" fill="#0065B3"/>
<path d="M275.804 120.025C276.119 119.719 276.404 119.383 276.653 119.021C276.921 118.573 277.135 118.095 277.291 117.596L279.142 112.353C279.435 111.524 279.729 110.692 280.099 109.885C280.482 109.015 280.935 108.177 281.353 107.335C282.428 105.121 283.259 102.796 283.832 100.402C283.932 100.073 283.966 99.7272 283.931 99.3852C283.841 98.8342 283.423 98.4032 283.024 98.0112C282.623 97.5782 282.166 97.2012 281.665 96.8892C281.414 96.7332 281.134 96.6282 280.841 96.5812C280.548 96.5342 280.25 96.5452 279.962 96.6152C279.145 96.8542 278.631 97.6902 278.443 98.5282C278.255 99.3662 278.325 100.224 278.245 101.078C278.13 102.302 277.709 103.485 277.607 104.712C277.553 105.423 277.607 106.14 277.521 106.848C277.364 107.777 277.039 108.67 276.564 109.484C275.527 111.422 274.126 113.143 272.438 114.552C271.976 114.893 271.56 115.293 271.2 115.741C270.9 116.19 270.697 116.695 270.604 117.227C270.392 118.036 270.484 118.894 270.862 119.64C271.382 120.526 272.381 120.915 273.335 121.112C274.624 121.38 274.921 120.94 275.804 120.025Z" fill="#EFD3A8"/>
<path d="M140.977 101.928C141.114 142.111 158.342 174.606 179.581 174.606C200.821 174.606 218.047 142.111 218.187 101.928H140.977Z" fill="#0065B3"/>
<g opacity="0.1">
<path d="M160.096 163.244C142.516 156.339 133.2 144.057 128.417 134.625C122.84 123.628 122.081 114.224 122.052 113.823L121.834 110.912H119.602L119.818 113.823C119.847 114.218 120.606 123.628 126.183 134.625C130.969 144.057 140.283 156.339 157.863 163.244C159.235 163.786 160.66 164.293 162.138 164.764L162.354 164.085C161.587 163.811 160.835 163.531 160.096 163.244Z" fill="white"/>
</g>
</g>
</g>
<defs>
<linearGradient id="paint0_linear_117_15529" x1="257.468" y1="165.669" x2="257.468" y2="293.927" gradientUnits="userSpaceOnUse">
<stop stop-color="#728787" stop-opacity="0.25"/>
<stop offset="0.27" stop-color="#728787" stop-opacity="0.185"/>
<stop offset="0.54" stop-color="#728787" stop-opacity="0.12"/>
<stop offset="0.77" stop-color="#728787" stop-opacity="0.11"/>
<stop offset="1" stop-color="#728787" stop-opacity="0.1"/>
</linearGradient>
<linearGradient id="paint1_linear_117_15529" x1="12714.5" y1="443.585" x2="28473.2" y2="443.585" gradientUnits="userSpaceOnUse">
<stop stop-color="#728787" stop-opacity="0.25"/>
<stop offset="0.27" stop-color="#728787" stop-opacity="0.185"/>
<stop offset="0.54" stop-color="#728787" stop-opacity="0.12"/>
<stop offset="0.77" stop-color="#728787" stop-opacity="0.11"/>
<stop offset="1" stop-color="#728787" stop-opacity="0.1"/>
</linearGradient>
<clipPath id="clip0_117_15529">
<rect width="365" height="240" fill="white" transform="translate(0.5)"/>
</clipPath>
</defs>
</svg>
