<svg width="326" height="240" viewBox="0 0 326 240" fill="none" xmlns="http://www.w3.org/2000/svg">
<g clip-path="url(#clip0_457_2689)">
<path opacity="0.1" d="M3.50888 115.065C8.65662 134.921 19.5448 152.085 36.7514 160.405C72.5218 177.697 153.194 168.779 213.402 158.542C244.546 153.247 271.921 138.636 291.806 118.073L3.50888 115.065Z" fill="#0065B3"/>
<path opacity="0.1" d="M319.237 21.6011H286.202C284.634 21.6011 283.348 20.4417 283.348 19.0249C283.348 17.6081 284.634 16.4456 286.202 16.4456H291.916C290.345 16.4456 289.062 15.2862 289.062 13.8664C289.062 12.4467 290.345 11.2902 291.916 11.2902H287.838C286.267 11.2902 284.981 10.1307 284.981 8.71096C284.981 7.29121 286.267 6.1347 287.838 6.1347H305.08C301.254 4.52861 296.782 3.38689 291.628 2.78646C244.611 -2.6648 227.825 0.940781 221.904 4.64692C214.524 9.32395 206.325 12.5692 197.739 14.2125C168.732 19.6164 114.483 26.1177 65.3144 12.142C40.8767 5.18228 22.7129 16.9278 11.8277 36.5617H324.975C324.566 30.8561 323.342 25.5853 321.095 20.9741C320.563 21.384 319.909 21.6047 319.237 21.6011Z" fill="#0065B3"/>
<path opacity="0.1" d="M0.7083 73.6201C-0.56057 85.1679 -0.129244 96.8389 1.98857 108.262L292.028 117.842C300.012 109.578 306.796 100.237 312.181 90.0922L0.7083 73.6201ZM115.423 98.3326H109.712C111.283 98.3326 112.569 99.4951 112.569 100.912C112.569 102.329 111.283 103.488 109.712 103.488H76.6768C75.109 103.488 73.8228 102.329 73.8228 100.912C73.8228 99.4951 75.109 98.3326 76.6768 98.3326H82.3906C80.8199 98.3326 79.5366 97.1732 79.5366 95.7564C79.5366 94.3396 80.8199 93.1772 82.3906 93.1772H78.3097C76.739 93.1772 75.4528 92.0177 75.4528 90.6009C75.4528 89.1841 76.739 88.0217 78.3097 88.0217H111.345C112.915 88.0217 114.199 89.1812 114.199 90.6009C114.199 92.0207 112.915 93.1772 111.345 93.1772H115.423C116.993 93.1772 118.277 94.3366 118.277 95.7564C118.277 97.1761 116.993 98.3326 115.423 98.3326Z" fill="#0065B3"/>
<path opacity="0.1" d="M324.986 36.7393L8.33359 43.6901C4.48094 52.6316 1.92633 62.7414 0.749786 73.218H319.439C321.513 67.0886 323.052 60.7916 324.038 54.3974C324.989 48.2422 325.369 42.2881 324.986 36.7393ZM65.0417 59.5292H59.3309C60.9016 59.5292 62.1878 60.6916 62.1878 62.1084C62.1878 63.5252 60.9016 64.6876 59.3309 64.6876H26.2959C24.7281 64.6876 23.4419 63.5252 23.4419 62.1084C23.4419 60.6916 24.7281 59.5292 26.2959 59.5292H32.0097C30.439 59.5292 29.1557 58.3698 29.1557 56.953C29.1557 55.5362 30.439 54.3737 32.0097 54.3737H27.9288C26.3581 54.3737 25.0719 53.2143 25.0719 51.7975C25.0719 50.3807 26.3581 49.2183 27.9288 49.2183H60.9639C62.5346 49.2183 63.8178 50.3777 63.8178 51.7975C63.8178 53.2172 62.5346 54.3737 60.9639 54.3737H65.0417C66.6124 54.3737 67.8957 55.5362 67.8957 56.953C67.8957 58.3698 66.6124 59.5292 65.0417 59.5292Z" fill="#0065B3"/>
<path opacity="0.1" d="M161.539 231.029C234.698 231.029 294.005 225.584 294.005 218.867C294.005 212.149 234.698 206.704 161.539 206.704C88.3799 206.704 29.0727 212.149 29.0727 218.867C29.0727 225.584 88.3799 231.029 161.539 231.029Z" fill="#0065B3"/>
<path d="M296.548 118.407C296.546 118.387 296.546 118.366 296.548 118.345C296.548 118.313 296.548 118.283 296.548 118.254C296.489 117.915 296.36 117.592 296.172 117.304C295.493 116.221 294.549 115.329 293.427 114.713C291.471 113.642 288.783 113.184 288.001 111.14C287.761 110.507 287.755 109.818 287.636 109.155C287.429 108.123 286.953 107.163 286.257 106.373C285.56 105.582 284.667 104.988 283.668 104.651C282.738 104.34 281.733 104.254 280.829 103.87C278.808 103.012 277.741 100.897 276.837 98.9421C275.668 96.4181 274.498 93.8931 273.328 91.3671C272.439 91.8137 271.289 91.6037 270.457 91.0447C269.654 90.4484 269.015 89.6601 268.598 88.7524C267.392 86.4157 266.874 83.7685 265.457 81.5442C264.04 79.3199 261.21 77.563 258.709 78.5302C258.221 78.7737 257.715 78.9823 257.197 79.1543C255.055 79.6542 252.684 77.211 250.849 78.3971C250.545 78.5921 250.296 78.8634 250.129 79.1839C250.128 79.1642 250.128 79.1444 250.129 79.1247C249.891 79.6058 249.757 80.1321 249.738 80.6687C249.738 80.7781 249.738 80.8846 249.738 80.9881C249.738 81.0059 249.738 81.0236 249.738 81.0414C249.738 81.4673 249.765 81.8991 249.771 82.331C249.777 82.6936 249.75 83.0561 249.688 83.4135V83.384C249.653 83.5851 249.602 83.783 249.534 83.9755C249.057 85.2533 247.735 86.0904 247.115 87.2912V87.2321C247.046 87.3627 246.985 87.4981 246.935 87.6373C246.824 87.9521 246.767 88.2829 246.766 88.6163C246.712 90.8731 249.11 92.9969 249.388 95.4193C249.587 97.1348 249.981 97.685 251.442 98.6551L251.762 98.8681C251.635 98.8681 251.504 98.8859 251.359 98.8888C251.303 98.8899 251.246 98.8958 251.19 98.9066C250.932 98.8357 250.662 98.8229 250.399 98.8689C250.135 98.9149 249.885 99.0187 249.667 99.1728C248.547 100.06 245.897 99.3769 244.721 99.1728C243.544 98.9687 239.514 99.5188 238.951 101.749C238.388 103.979 237.421 108.582 237.421 108.582C237.421 108.582 237.421 111.501 237.063 112.045C237.049 112.083 237.049 112.125 237.063 112.163C237.063 112.983 237.093 117.908 236.298 119.176C236.103 119.472 236.118 120.126 236.263 120.93C235.427 122.004 234.642 123.258 234.781 124.081C235.036 125.764 238.456 131.055 243.358 128.221C243.358 128.221 246.146 123.131 242.637 120.425L242.789 119.833C243.849 121.135 244.635 122.069 244.635 122.069C244.635 122.069 244.676 122.179 244.742 122.365H244.635C245.093 123.609 245.37 124.912 245.459 126.234C245.445 126.719 245.357 127.198 245.198 127.657H245.29C245.263 127.757 245.233 127.858 245.198 127.952C245.026 128.452 244.704 128.886 244.276 129.198C241.825 130.931 239.019 143.309 239.019 143.309C239.019 143.309 233.459 163.319 232.348 164.458C231.429 165.392 237.202 168.025 241.535 167.711C242.14 167.675 242.737 167.562 243.313 167.374C243.34 167.67 243.369 167.966 243.399 168.235C243.491 169.122 243.586 169.944 243.645 170.202C243.799 170.847 244.104 177.431 244.104 177.431C244.104 177.431 243.479 181.708 243.63 184.683C243.63 184.887 243.657 185.082 243.675 185.275L243.135 185.358C242.317 187.191 245.687 202.492 246.146 203.779C246.451 204.793 246.622 205.842 246.656 206.899C246.656 206.899 246.36 207.988 246.606 208.582C246.759 208.946 246.859 209.329 246.902 209.721C246.902 209.721 246.7 210.709 247.006 211.354C247.311 211.999 246.955 213.128 246.955 213.128C246.955 213.128 246.855 217.586 245.936 220.011C245.686 220.664 245.613 221.371 245.725 222.061C245.837 222.751 246.129 223.399 246.573 223.939C246.637 224.024 246.706 224.104 246.78 224.179C246.78 224.179 251.848 224.22 252.74 224.179H252.856C253.214 224.129 254.133 220.118 253.315 218.186C252.497 216.255 253.214 213.877 253.214 213.877V210.363C253.214 210.363 254.133 209.517 253.214 207.701C252.296 205.885 252.447 205.335 252.447 205.335C252.447 205.335 253.469 202.412 252.396 201.472C251.324 200.531 252.601 196.964 252.601 196.964L252.963 185.074C252.773 185.012 252.58 184.963 252.385 184.926C252.364 184.731 252.343 184.529 252.322 184.316C252.112 182.163 251.931 179.235 252.399 178.401C252.868 177.567 253.093 170.285 253.167 165.224L257.838 165.401C257.935 167.767 258.039 169.927 258.104 170.202C258.258 170.847 258.567 177.431 258.567 177.431C258.567 177.431 257.938 181.708 258.09 184.683C258.09 184.887 258.116 185.082 258.134 185.275L257.595 185.358C256.777 187.191 260.146 202.492 260.606 203.779C260.91 204.793 261.082 205.841 261.118 206.899C261.118 206.899 260.822 207.988 261.065 208.582C261.218 208.946 261.318 209.329 261.361 209.721C261.361 209.721 261.16 210.709 261.465 211.354C261.77 211.999 261.415 213.128 261.415 213.128C261.415 213.128 261.314 217.586 260.395 220.011C260.149 220.665 260.08 221.372 260.196 222.061C260.311 222.749 260.607 223.395 261.053 223.933C261.117 224.018 261.186 224.098 261.261 224.173C261.261 224.173 266.328 224.214 267.22 224.173H267.336C267.694 224.123 268.613 220.112 267.795 218.18C266.977 216.249 267.694 213.871 267.694 213.871V210.363C267.694 210.363 268.613 209.517 267.694 207.701C266.776 205.885 266.927 205.335 266.927 205.335C266.927 205.335 267.949 202.412 266.877 201.472C265.804 200.531 267.081 196.964 267.081 196.964L267.449 185.074C267.254 185.011 267.056 184.962 266.856 184.926C266.835 184.731 266.814 184.529 266.794 184.316C266.583 182.163 266.402 179.235 266.871 178.401C267.247 177.718 267.463 173.316 267.561 169.019C267.561 168.723 267.561 168.427 267.585 168.131C269.731 168.042 271.868 167.803 273.98 167.415C273.98 167.415 271.482 158.598 272.247 157.164C272.576 156.545 272.101 153.253 271.452 149.707C272.357 150.438 273.483 150.845 274.647 150.861C275.764 153.005 279.164 157.939 281.078 158.699C283.324 159.586 281.638 151.718 280.568 150.58C280.062 149.958 279.636 149.275 279.3 148.548C279.33 148.512 279.362 148.482 279.392 148.45C279.421 148.417 279.445 140.079 278.932 140.23C278.42 140.381 277.809 138.991 277.809 138.991L276.227 125.128L275.563 119.324C276.117 119.733 276.775 119.993 277.341 120.398C278.882 121.525 279.386 123.504 280.062 125.255C280.619 126.695 281.401 128.124 282.684 129.029C283.968 129.934 285.849 130.174 287.13 129.257C288.315 128.396 288.665 126.843 288.926 125.426C291.077 126.181 293.688 124.163 293.409 121.96C293.341 121.416 293.14 120.821 293.424 120.345C293.993 119.404 295.795 119.951 296.388 119.023C296.488 118.862 296.539 118.676 296.536 118.487C296.545 118.446 296.548 118.428 296.548 118.407ZM267.769 126.033C267.736 126.562 268.465 130.815 269.058 134.181C268.572 132.084 267.597 129.845 265.676 128.31C265.676 128.31 265.676 128.204 265.653 128.014H265.676C265.676 128.014 265.596 127.168 265.584 125.965C265.588 124.898 265.667 123.832 265.822 122.776V122.75H265.783C265.783 122.661 265.807 122.569 265.822 122.48C265.939 121.589 266.182 120.719 266.542 119.895C266.701 119.572 266.884 119.262 267.09 118.966C267.407 121.827 267.798 125.497 267.769 126.033ZM269.363 135.888C269.624 137.34 269.81 138.361 269.81 138.361L271.384 149.145V149.195C270.537 144.643 269.455 139.846 269.455 139.846C269.565 138.527 269.534 137.2 269.363 135.888Z" fill="url(#paint0_linear_457_2689)"/>
<path d="M250.076 96.0104C249.78 93.2774 246.816 90.92 247.705 88.3201C248.188 86.9033 249.7 86.0367 250.209 84.6288C250.547 83.7 250.396 82.6796 250.399 81.6916C250.402 80.7037 250.633 79.6005 251.457 79.0533C253.235 77.8701 255.523 80.3044 257.598 79.8075C258.099 79.6363 258.587 79.4287 259.059 79.1864C261.48 78.2251 264.218 79.9761 265.578 82.1886C266.939 84.401 267.448 87.0394 268.616 89.3642C269.015 90.262 269.632 91.046 270.412 91.6447C271.218 92.2008 272.321 92.4108 273.192 91.9671L276.585 99.5095C277.474 101.453 278.494 103.559 280.438 104.414C281.309 104.795 282.281 104.881 283.182 105.191C284.161 105.536 285.033 106.132 285.709 106.918C286.385 107.704 286.842 108.654 287.035 109.673C287.15 110.335 287.153 111.021 287.387 111.651C288.143 113.686 290.742 114.142 292.636 115.201C293.732 115.817 294.65 116.704 295.303 117.777C295.6 118.289 295.854 118.96 295.537 119.463C294.965 120.386 293.226 119.842 292.675 120.779C292.396 121.252 292.592 121.844 292.675 122.388C292.944 124.58 290.416 126.588 288.336 125.837C288.084 127.248 287.743 128.795 286.599 129.65C285.369 130.567 283.547 130.324 282.305 129.425C281.063 128.526 280.31 127.103 279.771 125.668C279.116 123.923 278.627 121.953 277.136 120.832C276.597 120.43 275.951 120.17 275.423 119.765C274.238 118.86 273.645 117.366 273.222 115.919C272.673 114.115 272.238 112.261 271.443 110.557C270.649 108.853 269.393 107.268 267.671 106.49C266.056 105.765 264.194 105.813 262.526 105.224C259.654 104.212 257.529 101.802 254.672 100.666C253.759 100.283 252.894 99.7945 252.094 99.2108C250.657 98.2672 250.266 97.72 250.076 96.0104Z" fill="#3F3D56"/>
<g opacity="0.1">
<path d="M250.343 84.0495C250.404 83.9338 250.457 83.8142 250.503 83.6916C250.838 82.7628 250.689 81.7424 250.692 80.7545C250.692 80.425 250.723 80.0962 250.784 79.7725C250.511 80.3569 250.378 80.997 250.396 81.6418C250.393 82.4375 250.488 83.2716 250.343 84.0495Z" fill="black"/>
<path d="M286.878 128.722C285.648 129.636 283.825 129.396 282.584 128.494C281.342 127.592 280.586 126.175 280.062 124.734C279.407 122.989 278.921 121.019 277.427 119.898C276.89 119.496 276.241 119.233 275.717 118.831C274.531 117.926 273.939 116.432 273.512 115C272.964 113.196 272.531 111.341 271.734 109.638C270.937 107.934 269.686 106.349 267.961 105.571C266.349 104.846 264.488 104.893 262.819 104.305C259.945 103.293 257.82 100.883 254.966 99.7468C254.052 99.3625 253.186 98.8742 252.385 98.2916C250.98 97.3244 250.606 96.7772 250.399 95.0705C250.103 92.509 247.495 90.2759 247.901 87.8623C247.835 87.9929 247.776 88.1272 247.726 88.2646C246.837 90.8674 249.8 93.2248 250.097 95.9549C250.289 97.6615 250.689 98.2087 252.082 99.1759C252.884 99.7586 253.75 100.247 254.664 100.631C257.518 101.767 259.642 104.181 262.517 105.189C264.186 105.781 266.047 105.73 267.659 106.455C269.384 107.233 270.622 108.821 271.432 110.522C272.241 112.223 272.673 114.071 273.21 115.885C273.645 117.316 274.217 118.81 275.415 119.715C275.951 120.117 276.6 120.381 277.125 120.783C278.606 121.904 279.104 123.874 279.759 125.619C280.299 127.053 281.054 128.473 282.296 129.372C283.538 130.271 285.36 130.514 286.59 129.6C287.376 129.008 287.776 128.106 288.039 127.139C287.805 127.763 287.403 128.31 286.878 128.722Z" fill="black"/>
<path d="M292.968 119.851C292.855 120.063 292.805 120.304 292.826 120.543C293.495 119.884 295.007 120.271 295.534 119.422C295.657 119.212 295.705 118.967 295.671 118.727C294.983 119.378 293.472 118.99 292.968 119.851Z" fill="black"/>
<path d="M288.614 124.909C288.558 125.205 288.502 125.521 288.431 125.829C290.244 126.394 292.34 124.941 292.636 123.107C291.916 124.518 290.138 125.462 288.614 124.909Z" fill="black"/>
</g>
<path d="M253.905 97.4331C253.905 97.4331 254.892 99.4208 251.979 99.4622C249.065 99.5036 253.855 112.37 253.855 112.37L258.697 118.522L264.722 115.269L265.069 106.295L265.513 100.873C265.513 100.873 259.882 99.0481 260.92 96.6345C261.957 94.221 253.905 97.4331 253.905 97.4331Z" fill="#FBBEBE"/>
<path d="M271.393 149.893C271.393 149.893 274.949 153.386 279.098 148.751L275.912 145.376H271.882L271.393 149.893Z" fill="#03233B"/>
<path opacity="0.1" d="M271.778 145.376L271.289 149.893C271.289 149.893 274.846 153.386 278.995 148.751" fill="black"/>
<path d="M277.762 145.992C277.762 145.992 279.193 149.739 280.23 150.872C281.268 152.005 282.898 159.843 280.725 158.956C278.553 158.068 274.404 151.464 274.155 150.331C273.906 149.198 273.811 145.992 273.811 145.992H277.762Z" fill="#FBBEBE"/>
<path d="M246.695 165.218L265.857 165.957L263.634 157.871L253.982 157.675L246.695 165.218Z" fill="#03233B"/>
<path opacity="0.1" d="M249.359 165.218L268.524 165.957L266.302 157.871L256.646 157.675L249.359 165.218Z" fill="black"/>
<path d="M252.965 178.566C252.512 179.409 252.687 182.325 252.891 184.482C253.022 185.854 253.164 186.91 253.164 186.91C253.164 186.91 246.001 189.128 244.916 187.206C244.641 186.718 244.504 185.863 244.457 184.86C244.309 181.902 244.916 177.64 244.916 177.64C244.916 177.64 244.62 171.086 244.472 170.444C244.413 170.187 244.321 169.37 244.232 168.486C244.101 167.172 243.977 165.711 243.977 165.711L253.757 160.535C253.757 160.535 253.757 161.505 253.739 162.999C253.686 167.69 253.529 177.531 252.965 178.566Z" fill="#FBBEBE"/>
<path opacity="0.1" d="M253.164 186.91C253.164 186.91 246.001 189.129 244.916 187.206C244.641 186.718 244.504 185.863 244.457 184.86C245.939 184.636 250.449 184.015 252.891 184.482C253.022 185.854 253.164 186.91 253.164 186.91Z" fill="black"/>
<path d="M253.41 224.179H253.297C252.435 224.211 247.533 224.179 247.533 224.179C247.462 224.104 247.394 224.025 247.332 223.942C246.899 223.401 246.612 222.757 246.501 222.073C246.389 221.39 246.456 220.689 246.695 220.038C247.584 217.621 247.681 213.185 247.681 213.185C247.681 213.185 248.028 212.052 247.732 211.41C247.435 210.768 247.631 209.783 247.631 209.783C247.586 209.394 247.486 209.012 247.335 208.65C247.089 208.059 247.385 206.973 247.385 206.973C247.351 205.921 247.185 204.878 246.89 203.868C246.446 202.587 243.186 187.354 243.977 185.529C243.977 185.529 250.891 184.346 253.511 185.233L253.164 197.065C253.164 197.065 251.928 200.614 252.965 201.552C254.003 202.489 253.016 205.397 253.016 205.397C253.016 205.397 252.868 205.938 253.757 207.763C254.646 209.588 253.757 210.425 253.757 210.425V213.924C253.757 213.924 253.066 216.29 253.855 218.213C254.643 220.136 253.757 224.117 253.41 224.179Z" fill="#3F3D56"/>
<path d="M266.98 178.566C266.527 179.409 266.702 182.326 266.906 184.482C267.037 185.854 267.179 186.91 267.179 186.91C267.179 186.91 260.016 189.129 258.931 187.206C258.656 186.718 258.519 185.863 258.472 184.86C258.324 181.903 258.931 177.64 258.931 177.64C258.931 177.64 258.635 171.086 258.487 170.444C258.407 170.098 258.267 166.797 258.158 163.836C258.066 161.31 257.992 159.027 257.992 159.027L267.772 160.535C267.772 160.535 267.772 164.827 267.65 169.237C267.543 173.514 267.345 177.898 266.98 178.566Z" fill="#FBBEBE"/>
<path opacity="0.1" d="M267.179 186.91C267.179 186.91 260.016 189.129 258.931 187.206C258.656 186.718 258.519 185.863 258.472 184.86C259.954 184.636 264.464 184.015 266.906 184.482C267.037 185.854 267.179 186.91 267.179 186.91Z" fill="black"/>
<path d="M267.425 224.178H267.312C266.45 224.211 261.548 224.178 261.548 224.178C261.476 224.104 261.409 224.025 261.346 223.942C260.913 223.4 260.627 222.757 260.516 222.073C260.404 221.389 260.471 220.688 260.709 220.038C261.598 217.609 261.687 213.172 261.687 213.172C261.687 213.172 262.034 212.04 261.738 211.398C261.441 210.756 261.637 209.771 261.637 209.771C261.591 209.381 261.492 209 261.341 208.638C261.095 208.047 261.391 206.961 261.391 206.961C261.357 205.909 261.191 204.866 260.896 203.855C260.451 202.575 257.192 187.342 257.983 185.517C257.983 185.517 264.897 184.334 267.517 185.221L267.17 197.052C267.17 197.052 265.934 200.602 266.971 201.539C268.009 202.477 267.022 205.385 267.022 205.385C267.022 205.385 266.874 205.926 267.763 207.751C268.652 209.576 267.763 210.413 267.763 210.413V213.912C267.763 213.912 267.072 216.278 267.86 218.201C268.649 220.123 267.772 224.116 267.425 224.178Z" fill="#3F3D56"/>
<path opacity="0.1" d="M257.758 99.7582C261.604 99.7582 264.722 96.6462 264.722 92.8073C264.722 88.9685 261.604 85.8564 257.758 85.8564C253.911 85.8564 250.793 88.9685 250.793 92.8073C250.793 96.6462 253.911 99.7582 257.758 99.7582Z" fill="black"/>
<path d="M257.758 99.4623C261.604 99.4623 264.722 96.3503 264.722 92.5114C264.722 88.6726 261.604 85.5605 257.758 85.5605C253.911 85.5605 250.793 88.6726 250.793 92.5114C250.793 96.3503 253.911 99.4623 257.758 99.4623Z" fill="#FBBEBE"/>
<path opacity="0.1" d="M243.977 165.711L253.757 160.535C253.757 160.535 253.757 161.505 253.739 162.999C252.311 163.851 250.156 165.132 248.084 166.341C246.958 167.001 245.859 167.64 244.916 168.175C244.697 168.294 244.468 168.393 244.232 168.471C244.101 167.172 243.977 165.711 243.977 165.711Z" fill="black"/>
<path opacity="0.1" d="M267.772 160.524C267.772 160.524 267.772 164.815 267.65 169.225H267.614C266.884 169.251 266.152 169.229 265.424 169.157C264.147 169.021 263.125 168.684 262.757 168.016C262.013 166.714 259.93 165.058 258.17 163.825C258.078 161.299 258.004 159.015 258.004 159.015L267.772 160.524Z" fill="black"/>
<path d="M265.952 122.932C265.704 124.858 265.656 126.804 265.81 128.739C270.302 132.436 269.464 140.224 269.464 140.224C269.464 140.224 272.922 156.001 272.181 157.429C271.44 158.858 273.859 167.634 273.859 167.634C271.798 168.024 269.711 168.263 267.614 168.35C266.884 168.376 266.152 168.353 265.424 168.282C264.147 168.146 263.125 167.808 262.757 167.14C261.376 164.726 255.399 161.127 255.399 161.127C255.399 161.127 251.611 163.392 248.084 165.454C246.958 166.114 245.859 166.752 244.916 167.288C244.152 167.693 243.307 167.924 242.442 167.965C238.248 168.276 232.662 165.655 233.551 164.726C234.639 163.591 240.024 143.676 240.024 143.676C240.024 143.676 242.738 131.35 245.109 129.626C245.525 129.313 245.835 128.88 245.998 128.387C246.81 126.136 245.453 122.527 245.453 122.527C245.453 122.527 237.798 113.113 238.142 112.568C238.485 112.024 238.488 109.119 238.488 109.119C238.488 109.119 239.428 104.535 239.97 102.317C240.512 100.098 244.416 99.5539 245.551 99.7521C246.686 99.9503 249.252 100.639 250.337 99.7521C251.421 98.8647 253.253 100.098 253.253 100.098L257.752 101.335L261.797 98.9683C261.797 98.9683 265.851 99.1753 266.198 99.7166C266.545 100.258 271.879 101.296 271.879 101.296C274.594 103.118 274.496 111.796 274.496 111.796C274.496 111.796 267.976 117.463 266.642 120.374C266.297 121.192 266.065 122.052 265.952 122.932Z" fill="#03233B"/>
<path d="M273.02 110.596L274.502 111.779L276.034 125.533L277.563 139.337C277.563 139.337 278.156 140.718 278.651 140.57C279.146 140.422 279.095 148.752 279.095 148.752C279.095 148.752 273.423 145.27 271.39 149.893L269.808 138.745C269.808 138.745 267.78 127.358 267.831 126.47C267.881 125.583 266.794 115.97 266.794 115.97L273.02 110.596Z" fill="#03233B"/>
<path d="M239.235 111.237L238.148 112.568C238.148 112.568 238.248 118.286 237.407 119.667C236.565 121.048 239.73 129.132 240.916 128.638C242.101 128.144 244.768 115.526 244.768 115.378C244.768 115.23 239.235 111.237 239.235 111.237Z" fill="#03233B"/>
<path d="M239.137 119.372C239.137 119.372 235.679 122.871 235.925 124.548C236.171 126.225 239.481 131.493 244.223 128.662C244.223 128.662 248.621 120.407 239.137 119.372Z" fill="#03233B"/>
<path opacity="0.1" d="M253.297 224.188C252.435 224.22 247.533 224.188 247.533 224.188C247.461 224.113 247.394 224.034 247.332 223.951C248.585 223.525 251.294 222.886 253.297 224.188Z" fill="black"/>
<path opacity="0.1" d="M267.318 224.188C266.456 224.22 261.554 224.188 261.554 224.188C261.482 224.113 261.415 224.034 261.352 223.951C262.6 223.525 265.309 222.886 267.318 224.188Z" fill="black"/>
<path opacity="0.1" d="M248.434 137.485C247.678 144.72 247.927 159.077 248.084 165.454C246.958 166.114 245.859 166.753 244.916 167.288C244.152 167.693 243.307 167.924 242.442 167.966C242.128 166.037 246.478 146.229 248.434 137.485Z" fill="black"/>
<path opacity="0.1" d="M249.359 133.38C249.338 133.483 248.979 135.057 248.434 137.485C248.648 135.412 248.944 133.924 249.359 133.38Z" fill="black"/>
<path opacity="0.1" d="M261.391 132.599C261.391 132.599 265.59 158.923 253.155 162.177C253.152 162.165 261.758 160.861 261.391 132.599Z" fill="black"/>
<path opacity="0.1" d="M267.614 168.35C266.884 168.376 266.152 168.353 265.424 168.282L262.07 132.288C264.209 133.684 266.77 159.228 267.614 168.35Z" fill="black"/>
<path opacity="0.1" d="M252.571 88.4241C252.794 88.4064 253.018 88.4295 253.232 88.4921C253.547 88.6485 253.83 88.8611 254.068 89.1192C254.454 89.4415 254.916 89.6608 255.411 89.7565C255.905 89.8522 256.416 89.8212 256.895 89.6664C257.233 89.5156 257.592 89.4159 257.959 89.3706C258.525 89.3706 259.014 89.7847 259.308 90.2579C259.601 90.7312 259.752 91.2931 260.004 91.7989C260.256 92.3047 260.659 92.7839 261.213 92.9081C261.479 92.9184 261.74 92.9786 261.984 93.0856C262.133 93.2065 262.247 93.3647 262.316 93.544C262.778 94.5408 263.145 95.718 264.132 96.2061C264.495 96.374 264.891 96.4598 265.291 96.4575C265.698 96.4873 266.106 96.414 266.476 96.2445C266.841 96.0412 267.143 95.7413 267.348 95.3779C267.964 94.3604 268.035 93.1004 267.89 91.9202C267.709 90.4314 267.178 89.0064 266.34 87.7615C265.457 86.5024 264.256 85.4998 262.858 84.8559C261.46 84.212 259.916 83.9501 258.383 84.0968C257.848 84.1568 257.318 84.2557 256.797 84.3926C254.913 84.8954 253.063 85.836 251.919 87.4125C251.643 87.806 251.339 88.1796 251.01 88.5306C251.528 88.4803 252.05 88.4359 252.571 88.4241Z" fill="black"/>
<path d="M252.571 88.1282C252.794 88.1105 253.018 88.1336 253.232 88.1962C253.547 88.3526 253.83 88.5652 254.068 88.8233C254.454 89.1456 254.916 89.3649 255.411 89.4606C255.905 89.5563 256.416 89.5253 256.895 89.3705C257.233 89.2197 257.592 89.12 257.959 89.0747C258.525 89.0747 259.014 89.4888 259.308 89.962C259.601 90.4353 259.752 90.9972 260.004 91.503C260.256 92.0088 260.659 92.488 261.213 92.6122C261.479 92.6225 261.74 92.6827 261.984 92.7897C262.133 92.9106 262.247 93.0688 262.316 93.2481C262.778 94.2449 263.145 95.4221 264.132 95.9102C264.495 96.0781 264.891 96.1639 265.291 96.1616C265.698 96.1914 266.106 96.1181 266.476 95.9486C266.841 95.7453 267.143 95.4454 267.348 95.082C267.964 94.0645 268.035 92.8045 267.89 91.6243C267.709 90.1355 267.178 88.7105 266.34 87.4656C265.457 86.2065 264.256 85.2039 262.858 84.56C261.46 83.9161 259.916 83.6542 258.383 83.8009C257.848 83.8609 257.318 83.9598 256.797 84.0967C254.913 84.5995 253.063 85.5401 251.919 87.1166C251.643 87.5101 251.339 87.8837 251.01 88.2347C251.528 88.1844 252.05 88.14 252.571 88.1282Z" fill="#3F3D56"/>
<path opacity="0.1" d="M245.014 104.68C245.014 104.68 245.361 107.443 244.175 108.132C242.99 108.821 245.014 104.68 245.014 104.68Z" fill="black"/>
<path opacity="0.1" d="M270.154 126.077C270.154 126.077 272.97 121.936 273.367 123.119C273.764 124.302 270.154 126.077 270.154 126.077Z" fill="black"/>
<path opacity="0.1" d="M270.353 127.455C270.353 127.455 273.13 124.054 273.396 125.385C273.663 126.716 270.353 127.455 270.353 127.455Z" fill="black"/>
<path opacity="0.1" d="M262.197 123.406C261.19 123.42 260.207 123.098 259.405 122.489H259.162C258.331 123.247 257.239 123.657 256.113 123.634C255.527 123.647 254.945 123.542 254.402 123.325C253.858 123.107 253.364 122.782 252.951 122.368H252.628C251.774 123.061 250.703 123.431 249.602 123.411C248.502 123.391 247.445 122.983 246.617 122.258L245.459 122.238C245.459 122.238 246.816 125.846 246.004 128.097L265.81 128.449C265.656 126.514 265.704 124.568 265.952 122.643V122.616L264.864 122.596C264.082 123.137 263.149 123.421 262.197 123.406Z" fill="black"/>
<path opacity="0.1" d="M262.197 123.997C261.19 124.012 260.207 123.689 259.405 123.081H259.162C258.331 123.839 257.239 124.249 256.113 124.225C255.527 124.239 254.945 124.134 254.402 123.916C253.858 123.698 253.364 123.373 252.951 122.959H252.628C251.774 123.653 250.703 124.022 249.602 124.002C248.502 123.982 247.445 123.574 246.617 122.85L245.459 122.829C245.459 122.829 246.816 126.438 246.004 128.689L265.81 129.041C265.656 127.105 265.704 125.16 265.952 123.234V123.208L264.864 123.187C264.082 123.729 263.149 124.012 262.197 123.997Z" fill="black"/>
<path d="M262.197 123.702C261.19 123.716 260.207 123.393 259.405 122.785H259.162C258.331 123.543 257.239 123.953 256.113 123.929C255.527 123.943 254.945 123.838 254.402 123.62C253.858 123.402 253.364 123.077 252.951 122.663H252.628C251.774 123.357 250.703 123.726 249.602 123.706C248.502 123.686 247.445 123.278 246.617 122.554L245.459 122.533C245.459 122.533 246.816 126.142 246.004 128.393L265.81 128.745C265.656 126.809 265.704 124.864 265.952 122.938V122.912L264.864 122.891C264.082 123.433 263.149 123.716 262.197 123.702Z" fill="#3F3D56"/>
<path opacity="0.1" d="M261.317 103.979C261.317 103.979 265.487 104.245 265.513 104.837C265.54 105.428 261.317 103.979 261.317 103.979Z" fill="black"/>
<path opacity="0.1" d="M251.187 101.456C251.187 101.456 247.018 101.722 246.991 102.314C246.964 102.905 251.187 101.456 251.187 101.456Z" fill="black"/>
<path opacity="0.1" d="M267.123 113.551C267.081 113.521 267.04 113.497 266.998 113.471C268.065 114.429 267.887 116.523 266.577 118.251C265.267 119.978 263.279 120.697 262.07 119.922C262.108 119.954 262.141 119.99 262.182 120.022C263.368 120.927 265.442 120.217 266.811 118.431C268.181 116.644 268.314 114.459 267.123 113.551Z" fill="black"/>
<path opacity="0.1" d="M244.217 118.028C243.162 116.13 243.298 114.032 244.493 113.237C244.448 113.258 244.401 113.275 244.356 113.299C243.046 114.027 242.874 116.206 243.959 118.17C245.044 120.134 247 121.128 248.31 120.412C248.353 120.388 248.395 120.36 248.434 120.33C247.127 120.921 245.272 119.927 244.217 118.028Z" fill="black"/>
<path opacity="0.1" d="M245.628 102.015L245.245 102.607L244.27 102.089L244.783 101.302C245.122 101.462 245.413 101.708 245.628 102.015Z" fill="black"/>
<path d="M239.434 123.906C239.434 123.906 240.302 119.83 239.137 118.534C237.973 117.239 238.346 110.448 240.124 110.596C241.902 110.744 244.57 116.115 244.125 117.251C243.681 118.387 242 124.202 242 124.202L239.434 123.906Z" fill="#FBBEBE"/>
<path opacity="0.1" d="M267.318 94.4992C267.113 94.8626 266.812 95.1625 266.447 95.3658C266.076 95.5353 265.668 95.6086 265.261 95.5788C264.861 95.5811 264.466 95.4953 264.103 95.3274C263.116 94.8364 262.748 93.6592 262.286 92.6653C262.227 92.4861 262.123 92.325 261.984 92.198C261.744 92.0891 261.485 92.0259 261.222 92.0117C260.668 91.8874 260.268 91.4053 260.013 90.9025C259.758 90.3997 259.607 89.8436 259.316 89.3615C259.026 88.8793 258.534 88.4564 257.968 88.4741C257.6 88.5229 257.241 88.6276 256.904 88.7847C256.425 88.9383 255.914 88.9684 255.42 88.8722C254.925 88.776 254.463 88.5567 254.077 88.2345C253.839 87.9764 253.556 87.7639 253.241 87.6075C253.027 87.5448 252.803 87.5218 252.58 87.5394C252.239 87.5394 251.902 87.572 251.561 87.5986C251.392 87.8195 251.211 88.0309 251.018 88.2316C251.537 88.1872 252.059 88.1428 252.58 88.131C252.803 88.1134 253.027 88.1364 253.241 88.199C253.556 88.3555 253.839 88.568 254.077 88.8261C254.463 89.1482 254.925 89.3676 255.42 89.4637C255.914 89.5599 256.425 89.5298 256.904 89.3762C257.241 89.2192 257.6 89.1144 257.968 89.0657C258.534 89.0657 259.023 89.4798 259.316 89.953C259.61 90.4263 259.761 90.9883 260.013 91.494C260.265 91.9998 260.668 92.479 261.222 92.6032C261.485 92.6174 261.744 92.6806 261.984 92.7896C262.133 92.9105 262.247 93.0687 262.316 93.248C262.778 94.2448 263.145 95.422 264.132 95.9101C264.495 96.078 264.891 96.1638 265.291 96.1615C265.698 96.1913 266.106 96.118 266.476 95.9485C266.841 95.7452 267.143 95.4453 267.348 95.0819C267.808 94.2458 268.014 93.294 267.94 92.3429C267.918 93.1025 267.704 93.8441 267.318 94.4992Z" fill="black"/>
<path d="M240.747 127.139C242.22 127.139 243.414 126.331 243.414 125.335C243.414 124.338 242.22 123.53 240.747 123.53C239.274 123.53 238.079 124.338 238.079 125.335C238.079 126.331 239.274 127.139 240.747 127.139Z" fill="#03233B"/>
<path d="M153.807 225.767C204.3 225.767 245.233 184.914 245.233 134.519C245.233 84.1234 204.3 43.27 153.807 43.27C103.313 43.27 62.3804 84.1234 62.3804 134.519C62.3804 184.914 103.313 225.767 153.807 225.767Z" fill="#0065B3"/>
<path d="M201.778 180.373C201.778 194.778 179.089 181.604 154.764 181.604C130.439 181.604 105.835 194.234 105.835 179.829C105.835 171.615 113.677 160.192 124.927 151.896C133.403 145.643 143.811 141.165 154.266 141.165C165.018 141.165 175.551 146.012 183.953 152.667C194.556 161.059 201.778 172.334 201.778 180.373Z" fill="#444053"/>
<path d="M183.95 152.662C171.019 150.718 147.634 148.349 124.927 151.89C133.403 145.637 143.811 141.159 154.266 141.159C165.015 141.159 175.548 146.007 183.95 152.662Z" fill="#F6F8FB"/>
<path opacity="0.05" d="M105.835 70.106C105.835 70.106 78.2949 87.6783 78.5201 115.165C78.7454 142.652 105.835 70.106 105.835 70.106Z" fill="black"/>
<path d="M245.198 20.4771C245.198 20.4771 220.245 18.9775 223.187 36.4286C223.187 36.4286 222.595 39.5106 225.404 40.9126C225.404 40.9126 225.449 39.6201 227.962 40.0578C228.857 40.2074 229.768 40.251 230.673 40.188C231.897 40.1049 233.061 39.6251 233.987 38.8214C233.987 38.8214 241.001 35.9317 243.731 24.4879C243.731 24.4879 245.749 21.9915 245.669 21.3526L241.458 23.145C241.458 23.145 242.895 26.1768 241.754 28.6968C241.754 28.6968 241.618 23.2574 240.809 23.3728C240.646 23.3994 238.622 24.4228 238.622 24.4228C238.622 24.4228 241.096 29.7055 239.214 33.5417C239.214 33.5417 239.923 27.0346 237.833 24.8044L234.87 26.5317C234.87 26.5317 237.762 31.9859 235.8 36.4374C235.8 36.4374 236.304 29.6108 234.247 26.9517L231.56 29.0429C231.56 29.0429 234.277 34.4202 232.62 38.1116C232.62 38.1116 232.404 30.1639 230.979 29.5635C230.979 29.5635 228.629 31.634 228.27 32.4828C228.27 32.4828 230.131 36.3842 228.978 38.4428C228.978 38.4428 228.27 33.1484 227.689 33.1188C227.689 33.1188 225.348 36.6267 225.102 39.0344C225.102 39.0344 225.206 35.4555 227.12 32.7845C227.12 32.7845 224.856 33.172 223.537 34.6391C223.537 34.6391 223.902 32.1575 227.686 31.9416C227.686 31.9416 229.621 29.2795 230.14 29.1198C230.14 29.1198 226.361 28.8033 224.071 29.8179C224.071 29.8179 226.086 27.4782 230.83 28.5401L233.498 26.3809C233.498 26.3809 228.525 25.7006 226.415 26.4519C226.415 26.4519 228.842 24.3814 234.212 25.8899L237.101 24.1655C237.101 24.1655 232.861 23.2545 230.333 23.5739C230.333 23.5739 233 22.1394 237.946 23.6952L240.021 22.7694C240.021 22.7694 236.912 22.1601 236.002 22.0654C235.092 21.9708 235.045 21.7164 235.045 21.7164C237.019 21.396 239.044 21.6306 240.892 22.3937C240.892 22.3937 245.272 20.7522 245.198 20.4771Z" fill="#0065B3"/>
<path d="M219.604 12.7188C219.604 12.7188 208.343 12.0385 209.659 19.9241C209.659 19.9241 209.395 21.3172 210.66 21.9502C210.66 21.9502 210.678 21.3586 211.816 21.5657C212.221 21.6321 212.631 21.6519 213.04 21.6248C213.594 21.5854 214.12 21.3686 214.54 21.0066C214.54 21.0066 217.708 19.6993 218.941 14.529C218.941 14.529 219.853 13.4021 219.83 13.1122L217.927 13.9227C217.927 13.9227 218.579 15.2921 218.066 16.4309C218.066 16.4309 218.004 13.9729 217.64 14.0321C217.565 14.0321 216.65 14.5054 216.65 14.5054C216.65 14.5054 217.77 16.8923 216.925 18.6256C216.925 18.6256 217.245 15.6855 216.303 14.6769L214.963 15.4578C214.963 15.4578 216.27 17.9246 215.384 19.9359C215.384 19.9359 215.61 16.8509 214.682 15.65L213.467 16.5936C213.467 16.5936 214.694 19.0219 213.947 20.6901C213.947 20.6901 213.849 17.0994 213.203 16.8272C213.203 16.8272 212.142 17.7619 211.979 18.1464C211.979 18.1464 212.821 19.9211 212.299 20.841C212.299 20.841 211.979 18.4481 211.706 18.4392C211.706 18.4392 210.648 20.0217 210.539 21.1013C210.59 20.0966 210.904 19.1227 211.449 18.2766C210.839 18.3917 210.276 18.6827 209.831 19.1136C209.831 19.1136 209.994 17.9926 211.709 17.895C211.709 17.895 212.584 16.6941 212.818 16.6202C212.818 16.6202 211.111 16.4782 210.077 16.9367C210.077 16.9367 210.986 15.8778 213.132 16.3451L214.317 15.372C214.317 15.372 212.071 15.0762 211.117 15.4016C211.117 15.4016 212.213 14.4669 214.64 15.1502L215.944 14.3693C215.944 14.3693 214.03 13.9582 212.886 14.106C212.886 14.106 214.092 13.4583 216.327 14.1622L217.26 13.7422C217.26 13.7422 215.855 13.4672 215.447 13.4258C215.038 13.3843 215.011 13.269 215.011 13.269C215.901 13.1213 216.814 13.2237 217.648 13.5648C217.648 13.5648 219.637 12.8431 219.604 12.7188Z" fill="#0065B3"/>
<path opacity="0.1" d="M318.019 215.924C322.427 215.924 326 215.321 326 214.578C326 213.834 322.427 213.232 318.019 213.232C313.611 213.232 310.038 213.834 310.038 214.578C310.038 215.321 313.611 215.924 318.019 215.924Z" fill="#0065B3"/>
<path opacity="0.1" d="M13.8607 238.311C18.2684 238.311 21.8416 237.709 21.8416 236.965C21.8416 236.222 18.2684 235.62 13.8607 235.62C9.45293 235.62 5.87975 236.222 5.87975 236.965C5.87975 237.709 9.45293 238.311 13.8607 238.311Z" fill="#0065B3"/>
<path opacity="0.1" d="M60.1904 240C64.5981 240 68.1713 239.398 68.1713 238.654C68.1713 237.911 64.5981 237.309 60.1904 237.309C55.7826 237.309 52.2094 237.911 52.2094 238.654C52.2094 239.398 55.7826 240 60.1904 240Z" fill="#0065B3"/>
<path d="M300.552 231.011C307.133 231.011 312.468 230.111 312.468 229C312.468 227.889 307.133 226.989 300.552 226.989C293.97 226.989 288.635 227.889 288.635 229C288.635 230.111 293.97 231.011 300.552 231.011Z" fill="#0065B3"/>
<path d="M305.477 225.714C306.021 225.271 306.418 224.674 306.615 224.001C306.76 223.324 306.47 222.508 305.821 222.259C305.092 221.981 304.313 222.487 303.723 222.996C303.133 223.504 302.454 224.084 301.681 223.978C302.079 223.618 302.376 223.162 302.545 222.653C302.713 222.145 302.746 221.601 302.641 221.076C302.607 220.858 302.515 220.654 302.374 220.484C301.968 220.053 301.236 220.236 300.75 220.576C299.209 221.659 298.78 223.747 298.771 225.628C298.617 224.951 298.747 224.244 298.744 223.558C298.741 222.871 298.548 222.079 297.962 221.715C297.597 221.521 297.189 221.425 296.776 221.437C296.083 221.41 295.312 221.478 294.838 221.984C294.245 222.614 294.402 223.667 294.915 224.35C295.428 225.034 296.204 225.477 296.918 225.953C297.493 226.295 297.983 226.761 298.353 227.317C298.396 227.395 298.432 227.478 298.459 227.563H302.801C303.773 227.07 304.673 226.448 305.477 225.714Z" fill="#0065B3"/>
<path d="M17.5859 200.913C17.5859 200.913 19.2129 203.036 16.8332 206.237C14.4534 209.437 12.4915 212.152 13.2769 214.152C13.2769 214.152 16.8658 208.195 19.7967 208.109C22.7277 208.023 20.7984 204.495 17.5859 200.913Z" fill="#0065B3"/>
<path opacity="0.1" d="M17.5859 200.913C17.7272 201.118 17.8389 201.342 17.9178 201.578C20.7688 204.92 22.2861 208.041 19.5478 208.118C16.9932 208.192 13.917 212.747 13.1968 213.897C13.222 213.987 13.2517 214.074 13.2857 214.161C13.2857 214.161 16.8746 208.204 19.8056 208.118C22.7366 208.032 20.7984 204.495 17.5859 200.913Z" fill="black"/>
<path d="M20.6117 203.619C20.6117 204.367 20.5258 204.973 20.422 204.973C20.3183 204.973 20.2353 204.382 20.2353 203.619C20.2353 202.856 20.3391 203.222 20.4458 203.222C20.5524 203.222 20.6117 202.87 20.6117 203.619Z" fill="#FFD037"/>
<path d="M21.6371 204.512C20.9792 204.87 20.4072 205.086 20.3568 204.994C20.3065 204.903 20.8014 204.542 21.4593 204.184C22.1172 203.826 21.8564 204.086 21.9068 204.184C21.9572 204.282 22.3069 204.154 21.6371 204.512Z" fill="#FFD037"/>
<path d="M8.98558 200.913C8.98558 200.913 7.35857 203.036 9.73536 206.237C12.1122 209.437 14.077 212.152 13.2917 214.152C13.2917 214.152 9.6998 208.195 6.77178 208.109C3.84376 208.023 5.77009 204.495 8.98558 200.913Z" fill="#0065B3"/>
<path opacity="0.1" d="M8.98559 200.913C8.843 201.117 8.73117 201.341 8.65367 201.578C5.8027 204.92 4.28238 208.041 7.0237 208.118C9.57534 208.192 12.6545 212.747 13.3717 213.897C13.3475 213.987 13.3188 214.074 13.2857 214.161C13.2857 214.161 9.69388 208.204 6.76586 208.118C3.83784 208.032 5.7701 204.495 8.98559 200.913Z" fill="black"/>
<path d="M5.95976 203.619C5.95976 204.367 6.04274 204.973 6.14647 204.973C6.2502 204.973 6.33317 204.382 6.33317 203.619C6.33317 202.856 6.22945 203.222 6.12572 203.222C6.022 203.222 5.95976 202.87 5.95976 203.619Z" fill="#FFD037"/>
<path d="M4.91954 204.512C5.57746 204.87 6.1524 205.086 6.20278 204.994C6.25316 204.903 5.75824 204.542 5.10032 204.184C4.44241 203.826 4.70024 204.086 4.65282 204.184C4.60541 204.282 4.26163 204.154 4.91954 204.512Z" fill="#FFD037"/>
<path d="M6.47839 213.882C6.47839 213.882 11.0305 213.743 12.4056 212.767C13.7807 211.791 19.4085 210.629 19.7493 212.176C20.0901 213.723 26.5893 219.955 21.4504 219.996C16.3116 220.037 9.51014 219.194 8.14096 218.363C6.77179 217.532 6.47839 213.882 6.47839 213.882Z" fill="#A8A8A8"/>
<path opacity="0.2" d="M21.5364 219.467C16.3975 219.508 9.59608 218.665 8.22691 217.834C7.18373 217.201 6.76883 214.926 6.62954 213.876H6.47839C6.47839 213.876 6.77475 217.541 8.13504 218.372C9.49532 219.203 16.3056 220.046 21.4445 220.005C22.9263 220.005 23.439 219.464 23.4123 218.686C23.2049 219.162 22.6418 219.458 21.5364 219.467Z" fill="black"/>
<path d="M121.302 122.554C123.042 122.456 131.23 121.841 136.431 118.88C137.267 118.39 138.21 118.113 139.179 118.073C140.832 118.026 142.735 118.715 141.517 122.572C139.543 128.881 128.083 135.98 120.97 135.586C114.131 135.208 106.016 132.457 100.658 122.785C100.145 121.854 99.8919 120.803 99.9261 119.741C99.9883 117.789 100.7 115.343 104.371 118.07C109.332 121.752 118.745 122.451 120.633 122.554C120.856 122.566 121.079 122.566 121.302 122.554Z" fill="#444053"/>
<path d="M187.094 122.554C188.834 122.456 197.022 121.841 202.223 118.88C203.058 118.39 204.002 118.113 204.97 118.073C206.624 118.026 208.527 118.715 207.309 122.572C205.335 128.881 193.875 135.98 186.762 135.586C179.922 135.208 171.808 132.457 166.45 122.785C165.936 121.854 165.683 120.803 165.718 119.741C165.78 117.789 166.491 115.343 170.163 118.07C175.124 121.752 184.536 122.451 186.424 122.554C186.647 122.566 186.871 122.566 187.094 122.554Z" fill="#444053"/>
</g>
<defs>
<linearGradient id="paint0_linear_457_2689" x1="264.393" y1="224.2" x2="264.393" y2="78.0717" gradientUnits="userSpaceOnUse">
<stop stop-color="#808080" stop-opacity="0.25"/>
<stop offset="0.54" stop-color="#808080" stop-opacity="0.12"/>
<stop offset="1" stop-color="#808080" stop-opacity="0.1"/>
</linearGradient>
<clipPath id="clip0_457_2689">
<rect width="326" height="240" fill="white"/>
</clipPath>
</defs>
</svg>
