<svg width="29" height="26" viewBox="0 0 29 26" fill="none" xmlns="http://www.w3.org/2000/svg">
<path fill-rule="evenodd" clip-rule="evenodd" d="M26 9.06678H24.7179V6.58469C24.7179 5.90026 24.1429 5.34365 23.4359 5.34365H15.1026C14.9526 5.34365 14.8077 5.29277 14.6923 5.20031L11.0244 2.24104H3.5641C2.85705 2.24104 2.28205 2.79765 2.28205 3.48209V7.82574H26V9.06678H2.28205H1V3.48209C1 2.11322 2.15 1 3.5641 1H11.2564C11.4064 1 11.5513 1.05088 11.6667 1.14334L15.3346 4.10261H23.4359C24.85 4.10261 26 5.21582 26 6.58469V9.06678Z" fill="#2D60FF" stroke="white" stroke-width="0.2"/>
<rect x="1" y="7" width="27" height="18" rx="2" fill="#A5A6F6" stroke="#2D60FF"/>
</svg>
