<svg width="1276" height="1066" viewBox="0 0 1276 1066" fill="none" xmlns="http://www.w3.org/2000/svg">
<path fill-rule="evenodd" clip-rule="evenodd" d="M990.321 1004.22C986.972 999.863 983.565 995.544 980.284 991.139C976.216 985.677 976.376 982.088 981.312 977.453C987.732 971.426 994.26 965.491 1001.01 959.794C1005.05 956.384 1006.19 953.307 1005.63 947.662C1004.3 934.207 996.616 928.517 983.503 926.38C977.501 925.403 971.819 922.819 965.88 921.347C960.6 920.037 959.407 917.013 960.243 912.418C962.455 900.268 964.597 888.108 966.598 875.929C967.31 871.596 969.834 869.67 974.34 869.732C984.727 869.872 995.126 869.865 1005.5 870.266C1010.31 870.456 1012.58 868.364 1015.71 865.07C1025.32 854.966 1024.55 845.577 1016.48 835.304C1013.38 831.358 1011.47 826.597 1008.93 822.25C1005.38 816.196 1006.12 812.361 1011.92 808.411C1021.53 801.859 1031.27 795.463 1040.84 788.855C1045.55 785.608 1049.86 785.776 1053.89 789.579C1061.34 796.594 1068.81 803.598 1075.99 810.852C1078.51 813.395 1080.81 814.566 1084.26 812.916C1084.81 812.653 1085.49 812.522 1086.11 812.521C1100.52 812.492 1106.77 804.72 1108.96 792.319C1109.95 786.7 1112.55 781.339 1114.28 775.821C1115.63 771.512 1118.63 769.453 1123.29 770.125C1136.52 772.031 1149.73 774.011 1162.91 776.188C1167.84 777.001 1169.8 780.266 1169.66 784.891C1169.39 794.412 1169.15 803.937 1169.21 813.456C1169.22 815.649 1169.78 818.756 1171.36 819.855C1176.77 823.627 1182.53 827.127 1188.63 829.779C1190.58 830.628 1194.19 828.876 1196.71 827.702C1205.05 823.819 1213.22 819.641 1221.48 815.594C1226.75 813.008 1231.18 813.676 1234.77 818.413C1241.78 827.651 1248.97 836.765 1255.94 846.029C1259.88 851.252 1259.34 854.299 1254.23 859.024C1246.71 865.974 1239.2 872.929 1231.7 879.885C1230.96 880.578 1229.55 881.45 1229.67 882.018C1231.03 888.608 1231.99 895.381 1234.49 901.598C1235.45 903.986 1239.88 905.609 1243.08 906.664C1251.87 909.571 1260.81 912.091 1269.76 914.567C1274.76 915.951 1276.59 919.01 1275.83 923.551C1273.84 935.53 1271.68 947.486 1269.64 959.458C1268.85 964.086 1266.29 966.453 1261.06 966.314C1250.68 966.04 1240.28 966.091 1229.91 965.725C1225.38 965.565 1221.93 966.386 1220.47 970.851C1220.3 971.407 1219.95 971.984 1219.52 972.388C1208.39 982.631 1213.88 992.365 1220.32 1002.25C1223.18 1006.63 1225.37 1011.39 1227.92 1015.95C1230.39 1020.39 1229.24 1024.11 1225.14 1026.93C1215.04 1033.88 1204.88 1040.74 1194.63 1047.48C1190 1050.53 1185.29 1050 1181.39 1046.24C1174.16 1039.29 1167.31 1031.98 1159.92 1025.2C1158.24 1023.66 1154.9 1022.89 1152.45 1023.08C1148.28 1023.41 1144.23 1025.37 1140.06 1025.58C1133.7 1025.89 1131.56 1029.27 1130.1 1034.35C1127.61 1042.97 1124.42 1051.4 1121.78 1059.99C1120.35 1064.64 1117.3 1066.58 1112.35 1065.85C1099.34 1063.93 1086.34 1061.93 1073.35 1059.93C1068.44 1059.18 1066.09 1056.74 1066.33 1051.76C1066.81 1042.05 1066.7 1032.31 1067.06 1022.59C1067.2 1018.82 1066.21 1016.01 1062.26 1014.45C1060.71 1013.84 1059 1013.17 1057.87 1012.07C1049.09 1003.5 1040.52 1006.68 1031.58 1011.95C1026.05 1015.21 1020.1 1017.85 1014.24 1020.59C1008.59 1023.23 1004.31 1022.16 1000.39 1017.27C996.958 1012.97 993.676 1008.57 990.321 1004.22ZM1143.07 900.576C1132.54 886.969 1114.03 884.248 1099.4 894.157C1085.19 903.785 1081.92 921.986 1092.02 935.278C1102.23 948.715 1122.13 951.72 1136.58 942.003C1151.14 932.219 1153.91 914.567 1143.07 900.576Z" fill="#F2F2F2"/>
<g clip-path="url(#clip0_120_397)">
<path d="M746.303 488.764C728.678 486.494 712.551 498.942 710.282 516.567C708.012 534.191 720.46 550.319 738.085 552.588C755.71 554.858 771.837 542.41 774.106 524.785L742.194 520.676C742.194 520.676 744.784 500.558 746.303 488.764Z" fill="#F2F2F2"/>
<path d="M752.143 484.255C750.624 496.049 748.034 516.167 748.034 516.167L779.946 520.276C782.215 502.652 769.768 486.525 752.143 484.255Z" fill="#EBEBEB"/>
<path fill-rule="evenodd" clip-rule="evenodd" d="M445.563 643.526C443.781 641.05 441.968 638.594 440.222 636.089C438.057 632.983 438.142 630.942 440.769 628.306C444.185 624.879 447.659 621.504 451.252 618.264C453.402 616.325 454.006 614.575 453.71 611.365C453.004 603.714 448.913 600.478 441.935 599.263C438.741 598.707 435.717 597.238 432.557 596.401C429.747 595.656 429.112 593.936 429.557 591.323C430.734 584.414 431.874 577.499 432.939 570.573C433.318 568.109 434.661 567.014 437.059 567.049C442.586 567.129 448.12 567.125 453.642 567.353C456.202 567.461 457.407 566.271 459.073 564.398C464.19 558.652 463.78 553.313 459.484 547.471C457.831 545.227 456.817 542.52 455.464 540.048C453.579 536.605 453.969 534.424 457.056 532.178C462.172 528.452 467.354 524.815 472.448 521.057C474.954 519.211 477.244 519.306 479.393 521.469C483.357 525.458 487.33 529.441 491.151 533.566C492.492 535.012 493.714 535.678 495.551 534.74C495.843 534.59 496.206 534.516 496.537 534.515C504.206 534.499 507.528 530.079 508.695 523.027C509.224 519.832 510.608 516.783 511.528 513.645C512.247 511.195 513.842 510.024 516.323 510.406C523.36 511.49 530.392 512.616 537.403 513.854C540.027 514.316 541.07 516.173 540.999 518.803C540.855 524.217 540.724 529.634 540.755 535.047C540.763 536.294 541.063 538.061 541.902 538.686C544.781 540.831 547.846 542.821 551.091 544.329C552.129 544.812 554.05 543.816 555.392 543.148C559.828 540.94 564.179 538.564 568.571 536.263C571.375 534.792 573.733 535.172 575.644 537.866C579.375 543.119 583.202 548.302 586.912 553.57C589.006 556.54 588.721 558.273 586.002 560.96C582.001 564.912 578.004 568.867 574.01 572.823C573.615 573.217 572.869 573.713 572.93 574.036C573.657 577.783 574.165 581.635 575.496 585.17C576.007 586.528 578.365 587.451 580.065 588.051C584.743 589.704 589.503 591.137 594.262 592.545C596.926 593.332 597.901 595.072 597.497 597.654C596.433 604.466 595.284 611.265 594.2 618.073C593.782 620.705 592.417 622.051 589.634 621.972C584.11 621.816 578.579 621.845 573.057 621.637C570.649 621.546 568.814 622.013 568.037 624.552C567.942 624.868 567.76 625.196 567.527 625.426C561.608 631.251 564.53 636.786 567.957 642.408C569.475 644.9 570.642 647.606 571.997 650.201C573.314 652.723 572.7 654.839 570.519 656.443C565.147 660.392 559.738 664.295 554.282 668.13C551.818 669.861 549.312 669.559 547.237 667.425C543.391 663.47 539.746 659.316 535.812 655.457C534.919 654.581 533.145 654.143 531.839 654.251C529.617 654.44 527.463 655.557 525.247 655.673C521.859 655.852 520.724 657.77 519.945 660.664C518.622 665.565 516.923 670.36 515.52 675.24C514.758 677.889 513.134 678.989 510.498 678.575C503.574 677.485 496.66 676.346 489.744 675.21C487.135 674.78 485.884 673.395 486.012 670.563C486.264 665.039 486.208 659.502 486.4 653.975C486.474 651.831 485.948 650.23 483.846 649.345C483.018 648.996 482.108 648.618 481.509 647.993C476.836 643.121 472.274 644.928 467.518 647.922C464.575 649.776 461.407 651.28 458.29 652.839C455.286 654.339 453.007 653.731 450.922 650.946C449.095 648.505 447.348 646.002 445.563 643.526ZM526.849 584.589C521.243 576.851 511.392 575.304 503.611 580.939C496.049 586.414 494.309 596.764 499.681 604.323C505.113 611.964 515.703 613.673 523.394 608.147C531.141 602.583 532.615 592.545 526.849 584.589Z" fill="#F2F2F2"/>
<path fill-rule="evenodd" clip-rule="evenodd" d="M617.731 557.124C616.453 556.24 615.165 555.37 613.9 554.466C612.331 553.345 612.024 552.351 612.835 550.638C613.889 548.411 614.981 546.198 616.153 544.03C616.855 542.733 616.847 541.79 616.157 540.301C614.514 536.749 611.997 535.894 608.442 536.501C606.814 536.779 605.112 536.589 603.452 536.727C601.978 536.849 601.38 536.131 601.147 534.802C600.534 531.284 599.901 527.771 599.231 524.266C598.992 523.019 599.451 522.264 600.607 521.872C603.275 520.967 605.93 520.021 608.619 519.189C609.865 518.804 610.24 518.027 610.72 516.845C612.196 513.215 611.089 510.723 608.031 508.651C606.855 507.857 605.907 506.731 604.836 505.775C603.344 504.444 603.159 503.332 604.257 501.726C606.076 499.066 607.943 496.438 609.747 493.765C610.634 492.451 611.749 492.106 613.151 492.777C615.734 494.016 618.32 495.25 620.857 496.578C621.747 497.043 622.447 497.154 623.169 496.391C623.283 496.27 623.446 496.172 623.604 496.115C627.282 494.801 628.123 492.114 627.479 488.529C627.189 486.905 627.333 485.205 627.239 483.544C627.166 482.244 627.732 481.411 628.988 481.172C632.55 480.491 636.118 479.832 639.693 479.23C641.031 479.006 641.847 479.718 642.262 480.993C643.117 483.615 643.978 486.237 644.917 488.83C645.132 489.426 645.578 490.225 646.088 490.38C647.835 490.92 649.646 491.352 651.461 491.521C652.04 491.575 652.793 490.77 653.322 490.221C655.075 488.405 656.758 486.522 658.473 484.669C659.568 483.486 660.764 483.265 662.14 484.232C664.826 486.117 667.548 487.952 670.227 489.848C671.738 490.916 671.897 491.797 671.051 493.549C669.804 496.128 668.561 498.708 667.318 501.288C667.196 501.544 666.923 501.91 667.007 502.054C667.996 503.728 668.896 505.491 670.138 506.961C670.615 507.526 671.904 507.566 672.823 507.563C675.348 507.559 677.878 507.435 680.402 507.298C681.814 507.221 682.578 507.891 682.825 509.199C683.476 512.649 684.085 516.108 684.725 519.561C684.974 520.895 684.548 521.774 683.199 522.211C680.522 523.078 677.872 524.037 675.186 524.878C674.015 525.244 673.213 525.781 673.275 527.132C673.282 527.299 673.252 527.489 673.179 527.639C671.331 531.445 673.678 533.602 676.281 535.715C677.435 536.652 678.456 537.752 679.549 538.767C680.61 539.752 680.678 540.872 679.904 542.014C678 544.826 676.069 547.621 674.105 550.393C673.218 551.643 671.964 551.926 670.603 551.256C668.084 550.013 665.626 548.642 663.08 547.461C662.502 547.193 661.575 547.285 660.966 547.559C659.933 548.03 659.089 548.932 658.046 549.367C656.45 550.03 656.232 551.144 656.351 552.666C656.554 555.243 656.555 557.834 656.715 560.417C656.801 561.818 656.21 562.622 654.875 562.873C651.366 563.531 647.852 564.164 644.34 564.798C643.014 565.035 642.179 564.584 641.757 563.204C640.934 560.51 639.963 557.862 639.113 555.177C638.782 554.136 638.258 553.456 637.097 553.391C636.641 553.365 636.139 553.338 635.745 553.14C632.671 551.599 630.791 553.244 629.019 555.493C627.923 556.884 626.658 558.147 625.43 559.426C624.243 560.659 623.046 560.755 621.568 559.775C620.276 558.912 619.009 558.009 617.731 557.124ZM646.689 514.976C642.68 512.219 637.687 513.157 634.915 517.188C632.218 521.107 633.149 526.37 637.017 529.082C640.927 531.823 646.3 530.837 649.048 526.873C651.819 522.879 650.815 517.811 646.689 514.976Z" fill="#F2F2F2"/>
<path d="M573.29 402.622H470.399V454.381H573.29V402.622Z" stroke="#222222" stroke-width="0.5" stroke-miterlimit="10" stroke-linecap="round" stroke-linejoin="round"/>
<path d="M521.844 407.014H479.129V449.99H521.844V407.014Z" fill="#EBEBEB"/>
<path d="M479.129 407.014L521.844 449.989" stroke="#222222" stroke-width="0.5" stroke-miterlimit="10" stroke-linecap="round" stroke-linejoin="round"/>
<path d="M521.844 407.014L479.129 449.989" stroke="#222222" stroke-width="0.5" stroke-miterlimit="10" stroke-linecap="round" stroke-linejoin="round"/>
<path d="M562.624 410.15H530.627V414.855H562.624V410.15Z" fill="#EBEBEB"/>
<path d="M562.624 417.365H530.627V418.463H562.624V417.365Z" fill="#222222"/>
<path d="M562.624 422.384H530.627V423.482H562.624V422.384Z" fill="#222222"/>
<path d="M557.212 425.992H530.627V428.894H557.212V425.992Z" fill="#EBEBEB"/>
<path d="M846.84 435.173H763.475V443.413H846.84V435.173Z" fill="#EBEBEB"/>
<path d="M826.871 446.708H776.852V479.957H826.871V446.708Z" fill="#EBEBEB"/>
<path d="M810.9 453.833H780.874V457.226H810.9V453.833Z" fill="#222222"/>
<path d="M806.611 458.825H780.874V462.218H806.611V458.825Z" fill="#222222"/>
<path d="M823.817 450.101H820.085V453.833H823.817V450.101Z" fill="white"/>
<path d="M844.271 439.292C844.271 440.497 843.294 441.473 842.09 441.473C840.886 441.473 839.909 440.497 839.909 439.292C839.909 438.087 840.886 437.111 842.09 437.111C843.294 437.111 844.271 438.088 844.271 439.292Z" fill="white"/>
<path d="M846.84 435.173H763.475V505.742H846.84V435.173Z" stroke="#222222" stroke-width="0.5" stroke-miterlimit="10" stroke-linecap="round" stroke-linejoin="round"/>
<path d="M627.575 665.287H563.317V773.482H627.575V665.287Z" fill="#2E42B2"/>
<path d="M645.935 665.287H627.576V773.482H645.935V665.287Z" fill="#043873"/>
<path d="M738.329 627.602H674.071V773.482H738.329V627.602Z" fill="#2E42B2"/>
<path d="M756.688 627.602H738.329V773.482H756.688V627.602Z" fill="#043873"/>
<path d="M849.083 581.056H784.824V773.482H849.083V581.056Z" fill="#2E42B2"/>
<path d="M867.442 581.056H849.083V773.482H867.442V581.056Z" fill="#043873"/>
<path d="M956.836 540.405H892.578V773.483H956.836V540.405Z" fill="#2E42B2"/>
<path d="M975.196 540.405H956.837V773.483H975.196V540.405Z" fill="#043873"/>
<path d="M339.729 773.31H1010.36" stroke="#222222" stroke-width="0.5" stroke-miterlimit="10" stroke-linecap="round" stroke-linejoin="round"/>
<path d="M563.317 732.785V755.88C563.317 755.88 823.084 740.154 876.515 560.391L885.59 562.773L877.085 544.09L861.54 556.075L869.224 558.575C869.226 558.574 814.597 705.668 563.317 732.785Z" fill="#93C30C"/>
<path d="M491.936 577.68C499.244 573.601 497.433 571.989 497.433 571.989C497.433 571.989 489.595 576.246 489.279 576.418C487.024 577.648 485.767 577.786 490.979 574.81C496.921 571.416 495.914 569.112 495.914 569.112L486.126 574.016C494.176 568.599 492.5 566.591 492.5 566.591L481.208 573.145C481.957 565.572 478.918 564.442 479.063 566.811C479.114 567.642 478.945 568.769 478.704 569.883C478.258 571.948 477.281 573.847 475.996 575.525C474.421 577.581 474.035 579.927 474.035 579.927L454.15 586.958C454.15 586.958 451.54 561.181 449.223 549.523C449.223 549.523 445.543 538.564 434.982 539.815C434.982 539.815 438.117 579.721 439.868 590.565C440.366 593.649 440.424 602.963 449.164 602.131C457.509 601.338 477.975 585.59 477.975 585.59C479.019 585.429 485.445 584.353 491.452 581.492C498.012 578.368 497.083 576.785 497.083 576.785C497.083 576.785 484.684 581.727 491.936 577.68Z" fill="#C1584F"/>
<path d="M436.093 539.086C436.047 539.091 436.009 539.096 435.963 539.101C436.045 539.092 436.093 539.086 436.093 539.086Z" fill="#F97869"/>
<path d="M478.788 580.29C478.788 580.29 483.272 577.674 485.899 580.509" stroke="#222222" stroke-width="0.5" stroke-miterlimit="10" stroke-linecap="round" stroke-linejoin="round"/>
<path d="M484.395 573.383C484.694 573.399 487.508 576.956 489.066 580.167" stroke="#222222" stroke-width="0.5" stroke-miterlimit="10" stroke-linecap="round" stroke-linejoin="round"/>
<path d="M482.603 575.389L482.406 579.2" stroke="#222222" stroke-width="0.5" stroke-miterlimit="10" stroke-linecap="round" stroke-linejoin="round"/>
<path d="M432.708 537.16C432.708 537.16 432.964 537.188 433.416 537.263C442.749 538.81 449.978 546.278 451.37 555.635L455.76 585.135L471.196 580.509L474.97 587.827C474.97 587.827 460.036 603.83 444.854 603.83L432.708 537.16Z" fill="#2E42B2"/>
<path d="M387.367 748.463C386.615 749.92 383.034 751.584 383.034 751.584C383.034 751.584 381.928 747.973 382.68 746.516C383.431 745.059 385.09 744.314 386.384 744.852C387.679 745.39 388.119 747.007 387.367 748.463Z" stroke="#020B31" stroke-width="0.5" stroke-miterlimit="10" stroke-linecap="round" stroke-linejoin="round"/>
<path d="M386.736 754.273C385.259 754.286 383.051 751.62 383.051 751.62C383.051 751.62 386.143 748.664 387.62 748.65C389.097 748.637 390.096 749.885 389.852 751.437C389.608 752.99 388.213 754.259 386.736 754.273Z" stroke="#020B31" stroke-width="0.5" stroke-miterlimit="10" stroke-linecap="round" stroke-linejoin="round"/>
<path d="M382.601 745.327L382.515 745.141L393.326 725.086L380.998 711.532L368.082 739.306L370.408 745.845L382.601 745.327Z" fill="#F2F2F2"/>
<path d="M388.625 768.247L399.789 770.54L393.965 765.303C391.589 763.167 389.671 760.571 388.327 757.672L382.601 745.327L377.341 745.551C373.219 745.726 369.464 743.194 368.081 739.307L359.928 745.608L376.936 762.076C380.167 765.202 384.221 767.343 388.625 768.247Z" fill="#2E42B2"/>
<path d="M359.929 745.607C358.391 746.689 358.236 748.913 359.61 750.198L375.897 765.432C379.079 768.408 383.021 770.447 387.289 771.323L396.704 773.256C398.379 773.6 399.918 772.245 399.788 770.54L388.624 768.247C384.22 767.343 380.166 765.201 376.936 762.074L359.929 745.607Z" fill="#222222"/>
<path d="M449.167 756.833C449.576 758.42 448.013 762.047 448.013 762.047C448.013 762.047 444.783 760.089 444.374 758.502C443.964 756.915 444.705 755.255 446.029 754.794C447.352 754.333 448.757 755.246 449.167 756.833Z" stroke="#020B31" stroke-width="0.5" stroke-miterlimit="10" stroke-linecap="round" stroke-linejoin="round"/>
<path d="M452.565 761.587C451.472 762.58 448.049 762.062 448.049 762.062C448.049 762.062 448.387 757.797 449.479 756.804C450.572 755.811 452.148 756.076 453 757.397C453.852 758.717 453.657 760.594 452.565 761.587Z" stroke="#020B31" stroke-width="0.5" stroke-miterlimit="10" stroke-linecap="round" stroke-linejoin="round"/>
<path d="M474.796 769.733L443.235 757.859C441.651 758.38 440.187 759.015 438.899 759.661C435.094 761.57 430.607 761.549 426.884 759.484L426.871 759.477L424.797 769.734H474.796V769.733Z" fill="#2E42B2"/>
<path d="M438.899 759.66C440.187 759.014 441.65 758.379 443.235 757.858L444.35 725.781H428.726L426.872 759.476L426.885 759.483C430.607 761.548 435.094 761.57 438.899 759.66Z" fill="#F2F2F2"/>
<path d="M424.798 769.733V770.518C424.798 772.156 426.126 773.483 427.763 773.483H472.221C473.643 773.483 474.795 772.331 474.795 770.909V769.733H424.798Z" fill="#222222"/>
<path d="M443.938 605.372L446.284 752.224C446.284 752.224 440.776 757.859 424.801 754.891L424.444 682.896L422.26 626.124L421.12 625.668L416.426 672.41C415.984 676.815 414.844 681.122 413.049 685.17L387.734 742.412C387.734 742.412 373.49 744.448 367.015 733.814L390.22 683.744C392.489 679.079 393.868 674.032 394.289 668.862L398.963 605.373L443.938 605.372Z" fill="#222222"/>
<path d="M422.26 626.123L428.113 629.299L424.228 654.653L422.26 626.123Z" fill="#222222"/>
<path d="M397.18 631.124C397.18 631.124 407.423 633.307 409.772 612.292" stroke="white" stroke-width="0.5" stroke-miterlimit="10" stroke-linecap="round" stroke-linejoin="round"/>
<path d="M398.561 610.97C398.561 610.97 428.499 615.744 444.01 609.923" stroke="white" stroke-width="0.5" stroke-miterlimit="10" stroke-linecap="round" stroke-linejoin="round"/>
<path d="M436.315 611.92C436.315 611.92 436.026 629.804 443.938 629.713" stroke="white" stroke-width="0.5" stroke-miterlimit="10" stroke-linecap="round" stroke-linejoin="round"/>
<path d="M427.724 536.373H415.03C415.03 536.373 401.354 539.178 401.354 551.914C401.354 564.65 397.488 607.407 397.488 607.407C397.488 607.407 419.549 612.979 444.907 607.976L444.263 556.387L443.872 551.321C443.219 542.885 436.184 536.373 427.724 536.373Z" fill="#2E42B2"/>
<path d="M444.907 607.975L444.263 556.386L443.872 551.32C443.22 542.885 436.185 536.373 427.725 536.373" stroke="#222222" stroke-width="0.5" stroke-miterlimit="10"/>
<path d="M440.474 507.25C439.114 504.496 435.889 505.44 435.889 505.44C435.889 505.44 436.345 496.842 429.531 492.493C423.647 488.737 417.124 488.383 411.652 492.335C407.516 495.323 406.951 500.287 407.2 503.917C404.582 503.968 402.299 504.988 401.33 507.778C399.32 513.567 403.915 515.964 403.915 515.964C403.915 515.964 401.496 521.27 407.35 523.045C413.204 524.82 417.551 531.52 417.551 531.52C417.551 531.52 428.725 523.116 433.923 522.73C442.691 522.078 438.93 512.671 438.93 512.671C438.93 512.671 442.211 510.767 440.474 507.25Z" fill="#222222"/>
<path d="M428.69 537.382L428.005 530.583C427.608 530.704 427.37 530.749 427.37 530.749C427.37 530.749 421.645 531.576 417.366 527.525L416.525 537.206L427.387 542.743L428.69 537.382Z" fill="#C1584F"/>
<path d="M427.37 530.749C427.37 530.749 421.645 531.576 417.366 527.525L417.364 527.646C417.619 528.119 417.885 528.541 418.161 528.888C418.517 529.337 418.895 529.726 419.281 530.091C422.45 533.091 426.407 533.415 428.249 533.381L428.006 530.582C427.608 530.704 427.37 530.749 427.37 530.749Z" fill="#F47365"/>
<path d="M426.434 499.649C426.434 499.649 435.247 505.042 436.137 516.99C436.887 527.064 430.14 529.931 428.005 530.583C427.608 530.704 427.37 530.749 427.37 530.749C427.37 530.749 421.645 531.576 417.366 527.525C416.981 527.16 416.603 526.77 416.246 526.322C414.323 523.904 412.818 518.204 413.218 512.689C413.218 512.689 424.873 508.166 426.434 499.649Z" fill="#C1584F"/>
<path d="M421.277 514.231C421.336 514.812 421.854 515.236 422.436 515.178C423.017 515.119 423.441 514.601 423.383 514.019C423.324 513.438 422.806 513.014 422.224 513.072C421.643 513.13 421.219 513.649 421.277 514.231Z" fill="#222222"/>
<path d="M422.488 508.68C421.625 508.92 420.591 509.443 419.617 510.537" stroke="#222222" stroke-width="0.5" stroke-miterlimit="10" stroke-linecap="round" stroke-linejoin="round"/>
<path d="M431.824 513.168C431.883 513.749 431.459 514.268 430.877 514.327C430.295 514.386 429.777 513.962 429.718 513.38C429.66 512.798 430.083 512.28 430.665 512.221C431.246 512.163 431.765 512.586 431.824 513.168Z" fill="#222222"/>
<path d="M432.24 511.311C431.38 511.059 430.354 510.521 429.396 509.413" stroke="#222222" stroke-width="0.5" stroke-miterlimit="10" stroke-linecap="round" stroke-linejoin="round"/>
<path d="M426.317 511.599C426.317 511.599 426.363 513.716 428.344 515.363C430.76 517.371 430.033 518.292 428.09 519.25" stroke="#222222" stroke-width="0.5" stroke-miterlimit="10" stroke-linecap="round" stroke-linejoin="round"/>
<path opacity="0.5" d="M419.536 517.538C420.193 516.645 421.049 517.73 421.049 517.73C421.049 517.73 421.64 516.325 422.487 517.017C423.221 517.617 422.201 519.719 421.526 519.852C420.852 519.985 418.975 518.301 419.536 517.538Z" fill="#F43D4F"/>
<path opacity="0.5" d="M434.285 518.865C433.798 517.869 432.762 518.784 432.762 518.784C432.762 518.784 432.432 517.296 431.474 517.826C430.644 518.285 431.274 520.535 431.913 520.787C432.554 521.038 434.702 519.716 434.285 518.865Z" fill="#F43D4F"/>
<path d="M428.201 522.281C428.201 522.281 425.17 523.211 423.422 520.333" stroke="#222222" stroke-width="0.5" stroke-miterlimit="10" stroke-linecap="round" stroke-linejoin="round"/>
<path d="M412.835 521.074C412.835 521.074 408.581 521.232 408.104 516.832C407.623 512.398 411.975 512.928 411.975 512.928C411.975 512.928 411.502 516.158 412.835 521.074Z" fill="#C1584F"/>
<path d="M410.965 514.557C410.965 514.557 409.267 514.488 408.902 516.381" stroke="#222222" stroke-width="0.5" stroke-miterlimit="10" stroke-linecap="round" stroke-linejoin="round"/>
<path d="M409.988 514.994C409.988 514.994 409.72 516.844 411.157 518.233" stroke="#222222" stroke-width="0.5" stroke-miterlimit="10" stroke-linecap="round" stroke-linejoin="round"/>
<path d="M400.929 562.967C400.929 562.967 403.476 562.458 408.067 555.293L398.561 593.984L400.929 562.967Z" fill="#2E42B2"/>
<path d="M412.492 537.16C412.492 537.16 413.94 546.003 426.318 547.525L427.387 542.744L431.829 545.786C431.829 545.786 435.418 545.436 434.338 537.784" stroke="#222222" stroke-width="0.5" stroke-miterlimit="10"/>
<path d="M427.387 542.744L426.429 547.027L429.292 549.264L431.543 545.59L427.387 542.744Z" fill="#222222"/>
<path d="M426.418 586.825L427.655 546.181L429.825 545.796C432.914 558.534 434.397 586.581 434.397 586.581L430.788 591.01L426.418 586.825Z" fill="#222222"/>
<path d="M399.789 631.189C399.789 631.189 398.678 674.601 397.18 677.97C395.682 681.339 369.273 736.745 369.273 736.745" stroke="white" stroke-width="0.5" stroke-miterlimit="10" stroke-linecap="round" stroke-linejoin="round"/>
<path d="M422.26 626.123C422.26 626.123 429.168 670.478 429.47 684.355C429.772 698.232 429.604 755.754 429.604 755.754" stroke="white" stroke-width="0.5" stroke-miterlimit="10" stroke-linecap="round" stroke-linejoin="round"/>
<path d="M388.003 528.062L386.037 494.618L386.061 494.613C386.061 494.613 387.923 492.438 388.03 488.775C388.137 485.112 389.458 478.905 389.458 478.905C389.458 478.905 388.014 478.13 386.975 482.247C385.936 486.364 385.209 485.299 385.209 485.299L381.181 471.403C381.181 471.403 378.9 471.095 381.497 480.541L377.57 470.916C377.57 470.916 376.404 470.952 376.427 472.213L376.094 471.33C376.094 471.33 374.14 471.711 376.164 478.467C377.503 482.937 377.057 483.329 375.705 480.437C374.353 477.545 373.254 475.655 372.226 476.097L377.783 493.005C378.66 495.314 380.148 495.775 380.148 495.775L380.152 495.774L374.237 519.595C373.011 524.534 374.376 529.758 377.863 533.465L401.173 558.247L411.43 537.751L388.003 528.062Z" fill="#C1584F"/>
<path d="M385.209 485.299C385.209 485.299 382.233 486.204 382.283 490.855" stroke="#222222" stroke-width="0.5" stroke-miterlimit="10" stroke-linecap="round" stroke-linejoin="round"/>
<path d="M382.609 480.546C382.609 480.546 379.216 480.234 376.509 483.449" stroke="#222222" stroke-width="0.5" stroke-miterlimit="10" stroke-linecap="round" stroke-linejoin="round"/>
<path d="M376.427 472.213L379.297 481.267" stroke="#222222" stroke-width="0.5" stroke-miterlimit="10" stroke-linecap="round" stroke-linejoin="round"/>
<path d="M376.969 534.584C385.99 546.811 400.93 562.967 400.93 562.967L414.728 536.485L393.571 529.492L388.988 527.525L386.959 497.522L379.56 498.166L374.115 519.969C372.852 525.023 373.876 530.392 376.969 534.584Z" fill="#2E42B2"/>
<path d="M388.987 527.525L380.871 528.611" stroke="#222222" stroke-width="0.5" stroke-miterlimit="10" stroke-linecap="round" stroke-linejoin="round"/>
<path d="M379.559 498.167L380.153 495.776L386.037 494.618L386.212 497.587L379.559 498.167Z" fill="#F2F2F2"/>
<path d="M378.805 501.87H387.252" stroke="#222222" stroke-width="0.5" stroke-miterlimit="10" stroke-linecap="round" stroke-linejoin="round"/>
<path d="M452.279 591.734C453.035 586.334 455.689 585.311 455.689 585.311L450.251 587.156" stroke="#222222" stroke-width="0.5" stroke-miterlimit="10" stroke-linecap="round" stroke-linejoin="round"/>
<path d="M471.38 580.866L474.035 579.927L477.974 585.59L474.971 587.827L471.38 580.866Z" fill="#F2F2F2"/>
<path d="M467.804 581.526L471.642 591.011" stroke="#222222" stroke-width="0.5" stroke-miterlimit="10" stroke-linecap="round" stroke-linejoin="round"/>
<path d="M440.877 578.393H513.964V573.913H445.357C442.883 573.913 440.877 575.918 440.877 578.393Z" fill="#676768"/>
<path d="M513.963 578.393H466.384L480.333 543.13H527.912L513.963 578.393Z" fill="#7C7C7C"/>
<path d="M501.842 560.465C501.842 561.761 500.792 562.811 499.496 562.811C498.2 562.811 497.149 561.761 497.149 560.465C497.149 559.169 498.2 558.119 499.496 558.119C500.792 558.119 501.842 559.169 501.842 560.465Z" fill="white"/>
<path d="M378.805 484.986L382.885 487.633" stroke="#222222" stroke-width="0.5" stroke-miterlimit="10" stroke-linecap="round" stroke-linejoin="round"/>
<path d="M553.323 488.875L536.908 521.251L581.448 543.833L597.863 511.457L553.323 488.875Z" fill="#2E42B2"/>
<path d="M550.3 487.329L529.954 517.713L536.905 521.237L553.319 488.86L550.3 487.329Z" fill="#222222"/>
<path d="M545.622 504.042L590.163 526.623" stroke="white" stroke-width="0.5" stroke-miterlimit="10" stroke-linecap="round" stroke-linejoin="round"/>
<path d="M567.404 496C569.786 491.302 575.524 489.425 580.222 491.806C584.92 494.188 586.797 499.926 584.416 504.624" stroke="#020B31" stroke-miterlimit="10"/>
<path d="M558.548 513.469C557.917 513.149 557.664 512.378 557.984 511.746L559.143 509.459C559.463 508.827 560.234 508.575 560.866 508.895C561.497 509.215 561.75 509.986 561.43 510.618L560.271 512.905C559.951 513.537 559.179 513.789 558.548 513.469Z" fill="#020B31"/>
<path d="M575.56 522.093C574.928 521.773 574.676 521.002 574.996 520.37L576.155 518.083C576.475 517.451 577.246 517.199 577.878 517.519C578.509 517.839 578.762 518.61 578.442 519.242L577.283 521.529C576.962 522.161 576.191 522.413 575.56 522.093Z" fill="#020B31"/>
<path d="M707.955 617.14C707.986 617.052 708.014 616.96 708.047 616.875C709.334 613.469 709.964 603.212 709.948 597.209L723.311 599.276L722.876 611.523C722.803 613.578 723.374 616.505 725.333 617.131C727.974 617.976 731.927 619.043 735.512 620.175C734.227 621.205 732.264 622.265 729.574 622.323C725.274 622.415 714.454 617.659 707.955 617.14Z" fill="#F2F2F2"/>
<path d="M594.846 628.949C594.928 628.904 595.01 628.855 595.091 628.813C598.324 627.137 605.641 619.923 609.639 615.444L618.205 625.906L609.703 634.732C608.276 636.213 606.747 638.773 607.787 640.547C609.188 642.939 611.418 646.373 613.331 649.61C611.687 649.519 609.518 648.997 607.477 647.243C604.215 644.441 599.337 633.675 594.846 628.949Z" fill="#F2F2F2"/>
<path d="M744.309 620.637L722.934 607.946L719.371 610.507C719.371 610.507 718.814 615.071 715.586 615.405C712.357 615.739 708.906 611.286 708.906 611.286C705.227 614.548 705.227 620.191 705.748 623.977H753.83C750.331 621.916 744.309 620.637 744.309 620.637Z" fill="#2E42B2"/>
<path d="M613.99 652.585L612.573 633.072L608.436 631.612C608.436 631.612 604.372 633.763 602.253 631.305C600.134 628.846 601.816 623.47 601.816 623.47C597.036 622.315 592.406 625.54 589.597 628.131L606.329 655.167L617.926 661.282C617.618 657.23 613.99 652.585 613.99 652.585Z" fill="#2E42B2"/>
<path d="M732.575 613.67L728.028 616.101" stroke="#222222" stroke-width="0.5" stroke-miterlimit="10" stroke-linecap="round" stroke-linejoin="round"/>
<path d="M736.589 616.101L732.041 618.531" stroke="#222222" stroke-width="0.5" stroke-miterlimit="10" stroke-linecap="round" stroke-linejoin="round"/>
<path d="M756.221 627.874V626.427C755.989 625.527 755.065 624.704 753.831 623.978H705.749C706.064 626.264 706.569 627.874 706.569 627.874H756.221Z" fill="#222222"/>
<path d="M613.385 644.255L608.792 641.912" stroke="#222222" stroke-width="0.5" stroke-miterlimit="10" stroke-linecap="round" stroke-linejoin="round"/>
<path d="M613.685 648.938L609.091 646.594" stroke="#222222" stroke-width="0.5" stroke-miterlimit="10" stroke-linecap="round" stroke-linejoin="round"/>
<path d="M617.927 661.281C617.927 661.281 619.394 663.458 618.555 665.05L603.093 656.897L586.578 628.695C586.578 628.695 587.229 627.316 589.598 628.131L606.33 655.167L617.927 661.281Z" fill="#222222"/>
<path d="M664.251 468.945C671.907 474.331 681.359 476.529 690.606 475.072L716.803 470.946C716.803 470.946 726.186 470.565 728.179 470.499C730.473 470.423 730.321 469.122 730.321 469.122L724.585 468.281C724.585 468.281 731.986 468.814 732.601 466.095L724.186 465.639C724.186 465.639 733.416 464.285 732.647 461.957L723.842 462.316C723.842 462.316 731.197 460.396 730.343 458.266L718.45 460.07L720.938 454.127C720.938 454.127 718.525 452.755 714.489 459.781C713.48 461.537 703.504 462.518 690.979 462.871C684.414 463.056 677.916 461.474 672.192 458.254L671.09 457.634L664.251 468.945Z" fill="#FB7869"/>
<path d="M658.75 471.78L650.347 468.405L646.218 451.243C646.218 451.243 652.685 447.801 660.486 451.243C668.287 454.685 682.284 461.339 682.284 461.339C689.412 462.158 711.273 461.168 711.273 461.168C711.273 461.168 712.698 467.811 711.273 473.173L700.417 475.446C686.471 478.366 671.972 477.091 658.75 471.78Z" fill="#2E42B2"/>
<path d="M643.531 535.768L644.379 569.368C644.379 569.368 644.353 574.364 638.387 580.559C632.421 586.754 604.199 616.583 604.199 616.583C604.199 616.583 606.952 632.874 613.836 636.775L661.791 588.59C661.791 588.59 670.051 583.313 669.822 569.316C669.698 561.761 669.709 551.002 669.746 542.694C660.906 542.638 654.16 541.981 649.783 539.793C647.321 538.562 645.266 537.199 643.531 535.768Z" fill="#222222"/>
<path d="M713.418 514.553H634.946C634.946 514.553 632.45 526.62 643.532 535.767C645.266 537.199 647.322 538.561 649.784 539.792C654.16 541.98 660.906 542.636 669.747 542.693C670.177 542.696 670.607 542.699 671.047 542.699C680.531 542.699 710.818 542.699 710.818 542.699L706.382 602.05C715.407 607.71 728.562 606.945 728.562 606.945L735.14 533.062C733.303 513.483 713.418 514.553 713.418 514.553Z" fill="#222222"/>
<path d="M642.135 514.553C642.135 514.553 641.169 536.786 664.368 536.786C687.566 536.786 717.089 536.786 717.089 536.786L710.56 604.144" stroke="white" stroke-width="0.5" stroke-miterlimit="10" stroke-linecap="round" stroke-linejoin="round"/>
<path d="M646.218 528.532L658.005 514.543" stroke="white" stroke-width="0.5" stroke-miterlimit="10" stroke-linecap="round" stroke-linejoin="round"/>
<path d="M710.817 542.699C710.817 542.699 713.532 539.028 719.154 535.012" stroke="white" stroke-width="0.5" stroke-miterlimit="10" stroke-linecap="round" stroke-linejoin="round"/>
<path d="M710.749 543.615C710.759 543.475 715.024 541.208 720.646 540.405" stroke="white" stroke-width="0.5" stroke-miterlimit="10" stroke-linecap="round" stroke-linejoin="round"/>
<path d="M657.478 541.953C657.282 542.809 656.763 558.794 656.478 567.989C656.351 572.101 654.717 576.017 651.886 579.003L606.885 626.473" stroke="white" stroke-width="0.5" stroke-miterlimit="10" stroke-linecap="round" stroke-linejoin="round"/>
<path d="M644.379 569.368C644.379 569.368 648.419 569.764 651.313 572.834" stroke="white" stroke-width="0.5" stroke-miterlimit="10" stroke-linecap="round" stroke-linejoin="round"/>
<path d="M644.379 570.616C644.379 570.616 648.14 572.477 650.013 575.74" stroke="white" stroke-width="0.5" stroke-miterlimit="10" stroke-linecap="round" stroke-linejoin="round"/>
<path d="M722.519 461.168C722.519 461.168 724.89 464.227 724.431 469.275" stroke="#222222" stroke-width="0.5" stroke-miterlimit="10" stroke-linecap="round" stroke-linejoin="round"/>
<path d="M720.014 462.277C720.014 462.277 719.555 464.916 715.884 466.235" stroke="#222222" stroke-width="0.5" stroke-miterlimit="10" stroke-linecap="round" stroke-linejoin="round"/>
<path d="M718.187 464.971L721.907 468.931" stroke="#222222" stroke-width="0.5" stroke-miterlimit="10" stroke-linecap="round" stroke-linejoin="round"/>
<path d="M579.169 483.594C584.499 478.445 611.334 452.892 619.719 452.16L621.78 465.215L620.537 465.451C614.153 466.663 608.202 469.565 603.351 473.888C593.922 482.288 587.066 489.508 587.209 491.539C587.502 495.689 585.315 497.19 585.315 497.19L583.987 494.479C583.309 494.853 582.52 494.962 581.767 494.781C580.433 494.46 578.373 493.577 576.869 491.145C576.019 489.768 576.678 486 579.169 483.594Z" fill="#FB7869"/>
<path d="M588.831 488.331C581.061 484.801 580.821 481.521 580.821 481.521C588.152 468.851 602.118 458.901 610.641 453.662C623.167 445.963 638.545 444.01 652.353 449.063C652.838 449.241 653.321 449.426 653.802 449.62L654.084 449.733L663.074 477.077L669.827 514.554H634.946L623.177 466.652C623.177 466.652 613.014 467.948 604.336 474.479C595.656 481.009 588.831 488.331 588.831 488.331Z" fill="#2E42B2"/>
<path d="M639.647 438.462V446.617L650.431 452.159L653.802 449.62L652.073 438.462H639.647Z" fill="#FB7869"/>
<path d="M639.647 438.462L639.669 438.979C642.15 442.126 646.767 444.93 652.97 444.255L652.073 438.463L639.647 438.462Z" fill="#FB7869"/>
<path d="M654.308 412.383C656.134 414.422 657.032 417.417 657.866 420.024C659.643 425.582 662.821 438.474 653.777 441.042C642.493 444.247 637.995 437.278 635.325 432.699C632.655 428.123 631.667 415.898 640.581 411.205C647.179 407.731 651.653 409.419 654.308 412.383Z" fill="#FB7869"/>
<path d="M650.431 423.583C650.431 423.583 650.932 425.395 653.18 426.872C655.813 428.602 655.429 429.408 653.714 430.741" stroke="#222222" stroke-width="0.5" stroke-miterlimit="10" stroke-linecap="round" stroke-linejoin="round"/>
<path opacity="0.5" d="M644.499 429.288C644.965 428.278 646.023 429.171 646.023 429.171C646.023 429.171 646.32 427.672 647.292 428.181C648.134 428.622 647.555 430.892 646.919 431.159C646.285 431.426 644.101 430.151 644.499 429.288Z" fill="#F43D4F"/>
<path opacity="0.5" d="M659.224 428.016C658.545 427.136 657.712 428.243 657.712 428.243C657.712 428.243 657.088 426.848 656.254 427.561C655.532 428.179 656.603 430.262 657.282 430.381C657.962 430.499 659.805 428.768 659.224 428.016Z" fill="#F43D4F"/>
<path d="M654.433 433.696C654.433 433.696 651.644 435.22 649.347 432.745" stroke="#222222" stroke-width="0.5" stroke-miterlimit="10" stroke-linecap="round" stroke-linejoin="round"/>
<path d="M654.047 419.24C654.942 419.164 656.096 419.294 657.393 419.982" stroke="#222222" stroke-width="0.5" stroke-miterlimit="10" stroke-linecap="round" stroke-linejoin="round"/>
<path d="M646.951 420.109C646.064 420.251 644.976 420.656 643.882 421.636" stroke="#222222" stroke-width="0.5" stroke-miterlimit="10" stroke-linecap="round" stroke-linejoin="round"/>
<path d="M648.353 424.663C648.353 425.247 647.88 425.72 647.296 425.72C646.712 425.72 646.239 425.247 646.239 424.663C646.239 424.079 646.712 423.606 647.296 423.606C647.879 423.605 648.353 424.079 648.353 424.663Z" fill="#222222"/>
<path d="M655.892 423.444C655.892 424.028 655.419 424.501 654.835 424.501C654.251 424.501 653.778 424.028 653.778 423.444C653.778 422.86 654.251 422.387 654.835 422.387C655.418 422.387 655.892 422.86 655.892 423.444Z" fill="#222222"/>
<path d="M663.999 411.412C662.636 408.904 659.199 412.327 660.559 410.113C662.528 406.906 660.029 403.748 655.452 406.795C650.875 409.842 643.213 400.787 635.978 405.933C628.743 411.079 632.301 416.659 632.301 416.659C632.301 416.659 627.81 416.78 627.36 421.767C626.608 430.1 639.679 430.1 639.679 430.1C639.45 426.934 636.8 418.825 636.8 418.825C640.877 411.038 651.06 416.785 655.565 417.371L658.241 420.73L657.524 417.337C661.376 416.837 665.447 414.076 663.999 411.412Z" fill="#222222"/>
<path d="M636.784 424.987C635.537 424.674 633.612 424.696 632.21 427.036C629.479 431.593 636.609 436.067 640.049 434.217C639.414 433.037 639.131 432.204 639.131 432.204C637.965 429.591 637.204 427.186 636.784 424.987Z" fill="#FB7869"/>
<path d="M634.109 430.142C634.109 430.142 633.8 427.848 635.601 426.999" stroke="#222222" stroke-width="0.5" stroke-miterlimit="10" stroke-linecap="round" stroke-linejoin="round"/>
<path d="M634.638 427.806C634.638 427.806 634.87 430.43 638.133 432" stroke="#222222" stroke-width="0.5" stroke-miterlimit="10" stroke-linecap="round" stroke-linejoin="round"/>
<path d="M669.827 514.553L664.261 483.664C663.471 479.278 662.376 474.952 660.983 470.718L654.083 449.733" stroke="#222222" stroke-width="0.5" stroke-miterlimit="10" stroke-linecap="round" stroke-linejoin="round"/>
<path d="M623.177 466.651L630.874 497.539L628.801 466.363L623.177 466.651Z" fill="#2E42B2"/>
<path d="M635.601 446.278C635.705 452.971 647.296 456.76 647.296 456.76L650.431 452.16L654.084 455.492L655.379 453.672" stroke="#222222" stroke-width="0.5" stroke-miterlimit="10"/>
<path d="M653.286 454.764L650.43 452.159L648.267 455.333L650.378 457.73C648.572 461.557 643.085 464.185 634.638 458.39C624.995 451.774 613.864 455.89 609.734 459.694L615.821 463.971C615.821 463.971 624.735 458.607 634.089 465.129C642.727 471.152 655.362 469.114 652.169 457.285L653.286 454.764Z" fill="#222222"/>
<path d="M583.427 477.495C583.427 477.495 586.715 482.802 592.228 484.908" stroke="#222222" stroke-width="0.5" stroke-miterlimit="10" stroke-linecap="round" stroke-linejoin="round"/>
<path d="M583.338 481.056C583.002 481.534 582.537 481.785 582.298 481.617C582.059 481.449 582.137 480.926 582.473 480.448C582.809 479.97 583.274 479.719 583.513 479.887C583.752 480.055 583.673 480.578 583.338 481.056Z" fill="#222222"/>
<path d="M705.608 461.386C705.608 461.386 708.108 465.638 706.079 474.261" stroke="#222222" stroke-width="0.5" stroke-miterlimit="10" stroke-linecap="round" stroke-linejoin="round"/>
<path d="M879.514 470.894C876.473 457.603 889.9 460.356 886.849 447.022C883.799 433.689 903.083 429.776 895.332 423.509C887.581 417.242 887.796 402.758 894.701 396.79C901.606 390.822 908.321 397.941 908.321 397.941C914.569 402.538 902.242 410.756 900.03 404.995C897.818 399.235 900.197 387.472 913.481 388.637C921.472 389.338 923.678 395.661 924.269 399.672C924.513 401.329 925.75 402.688 927.392 403.02C929.146 403.374 931.726 402.587 934.054 405.234C938.71 410.527 931.845 414.583 934.786 418.832C937.727 423.081 951.462 422.881 949.174 435.469C946.886 448.057 971.626 444.103 967.254 462.151L879.514 470.894Z" fill="#222222"/>
<path d="M901.578 438.553C901.578 438.553 891.941 441.364 888.028 460.339C884.874 475.633 884.523 478.886 883.115 485.017C882.457 487.881 880.429 493.322 888.028 495.695C895.626 498.068 897.244 487.242 898.025 485.017C898.74 482.98 900.62 476.106 902.432 469.315C905.133 459.194 904.839 448.507 901.578 438.553Z" fill="#2E42B2"/>
<path d="M872.119 438.287C872.119 438.287 870.195 437.536 870.43 435.516C870.43 435.516 877.354 436.51 881.366 437.086C882.371 437.23 883.454 437.792 883.864 438.094C885.928 439.618 885.158 443.745 885.623 447.355C886.088 450.965 886.78 456.219 886.78 456.219L891.817 488.196C891.817 488.196 893.232 493.965 886.535 494.614C883.418 494.916 881.932 491.799 881.291 489.199C880.381 485.506 880.009 483.744 879.451 480.684C878.404 474.943 872.119 438.287 872.119 438.287Z" fill="#F47365"/>
<path d="M845.3 430.873C846.965 438.305 851.708 443.569 855.894 442.631C860.08 441.693 862.124 434.908 860.459 427.477C858.794 420.045 854.051 414.781 849.865 415.719C845.679 416.657 843.635 423.442 845.3 430.873Z" fill="#7C7C7C"/>
<path d="M852.286 422.85L876.053 420.498L877.725 431.803L855.021 435.057L852.286 422.85Z" fill="#A6A6A6"/>
<path d="M850.215 429.724C850.97 433.095 853.122 435.483 855.021 435.058C856.92 434.633 857.847 431.555 857.092 428.184C856.337 424.813 854.185 422.425 852.286 422.85C850.387 423.275 849.46 426.353 850.215 429.724Z" fill="#F4F4F4"/>
<path d="M879.922 433.997L883.116 456.497L874.086 456.237L870.973 434.304L879.922 433.997Z" fill="#2E42B2"/>
<path d="M874.571 426.879C875.574 431.356 878.431 434.527 880.953 433.962C883.475 433.397 884.706 429.31 883.703 424.833C882.7 420.356 879.843 417.185 877.321 417.75C874.8 418.315 873.569 422.402 874.571 426.879Z" fill="#2E42B2"/>
<path d="M860.459 427.477C859.237 422.022 856.356 417.747 853.254 416.223L853.252 416.214L868.561 419.451L877.32 417.751L879.921 433.997L870.975 434.302L858.176 441.364L858.174 441.354C860.756 438.879 861.784 433.388 860.459 427.477Z" fill="#2E42B2"/>
<path d="M881.68 444.532C876.779 445.034 875.005 439.983 875.005 439.983C875.005 439.983 872.909 438.915 872.118 438.288C872.118 438.288 869.946 437.201 870.429 435.517L881.365 437.087" fill="#F47365"/>
<path d="M871.972 439.678C871.972 439.678 872.571 441.043 874.658 442.036C876.745 443.029 876.369 444.882 876.369 444.882C876.369 444.882 872.651 444.402 870.029 443.688C867.407 442.975 866.693 442.429 866.512 440.302C866.296 437.758 871.311 436.707 871.311 436.707L871.663 439.158L871.972 439.678Z" fill="#F47365"/>
<path d="M870.82 440.116C870.82 440.116 866.452 441.135 866.685 443.509C866.894 445.634 867.581 446.182 870.202 446.895C872.824 447.608 876.542 448.089 876.542 448.089C876.542 448.089 876.918 446.236 874.831 445.243C872.744 444.25 872.457 442.501 872.457 442.501" fill="#F47365"/>
<path d="M870.763 442.857C870.763 442.857 866.395 443.876 866.628 446.25C866.837 448.375 867.523 448.923 870.145 449.636C872.767 450.349 876.485 450.83 876.485 450.83C876.485 450.83 876.861 448.976 874.774 447.984C872.687 446.991 872.4 445.242 872.4 445.242" fill="#F47365"/>
<path d="M870.794 445.493C870.794 445.493 866.658 446.458 866.878 448.706C867.075 450.718 867.726 451.237 870.209 451.913C872.692 452.589 876.213 453.044 876.213 453.044C876.213 453.044 876.569 451.289 874.593 450.349C872.616 449.409 872.345 447.752 872.345 447.752" fill="#F47365"/>
<path d="M870.556 436.928C870.556 436.928 866.278 437.927 866.511 440.301C866.719 442.426 867.406 442.974 870.028 443.687C872.65 444.4 876.368 444.881 876.368 444.881C876.368 444.881 876.744 443.028 874.657 442.035C872.57 441.042 871.661 439.157 871.661 439.157" stroke="#020B31" stroke-width="0.5" stroke-miterlimit="10" stroke-linecap="round" stroke-linejoin="round"/>
<path d="M867.068 442.182C866.791 442.566 866.635 443.007 866.684 443.509C866.893 445.634 867.58 446.182 870.201 446.895C872.823 447.608 876.541 448.089 876.541 448.089C876.541 448.089 876.917 446.236 874.83 445.243C874.347 445.013 873.96 444.743 873.652 444.464" stroke="#020B31" stroke-width="0.5" stroke-miterlimit="10" stroke-linecap="round" stroke-linejoin="round"/>
<path d="M866.981 444.969C866.724 445.342 866.581 445.769 866.629 446.251C866.838 448.376 867.524 448.924 870.146 449.637C872.768 450.35 876.486 450.831 876.486 450.831C876.486 450.831 876.862 448.977 874.775 447.985C874.625 447.914 874.484 447.838 874.352 447.76" stroke="#020B31" stroke-width="0.5" stroke-miterlimit="10" stroke-linecap="round" stroke-linejoin="round"/>
<path d="M881.68 444.532C876.779 445.034 875.005 439.983 875.005 439.983C875.005 439.983 873.069 438.86 872.118 438.288C872.118 438.288 870.042 437.249 870.4 435.629" stroke="#020B31" stroke-width="0.5" stroke-miterlimit="10" stroke-linecap="round" stroke-linejoin="round"/>
<path d="M866.985 447.918C866.892 448.161 866.85 448.424 866.878 448.707C867.075 450.719 867.726 451.238 870.209 451.914C872.692 452.59 876.213 453.045 876.213 453.045C876.213 453.045 876.507 451.596 875.079 450.626" stroke="#020B31" stroke-width="0.5" stroke-miterlimit="10" stroke-linecap="round" stroke-linejoin="round"/>
<path d="M911.012 549.671L911.196 548.785L913.029 539.959C911.932 539.358 911.125 538.619 911.286 537.776C911.401 537.176 911.764 536.839 912.241 536.67C914.171 535.986 915.71 534.563 916.452 532.655C917.463 530.056 919.416 528.621 919.416 528.621L921.272 529.435L922.809 530.109C925.946 530.369 928.95 531.493 931.486 533.357L931.581 533.427L927.454 540.398L923.84 546.501L916.637 558.666C913.3 561.485 908.921 559.727 908.921 559.727L911.012 549.671Z" fill="#7F8284"/>
<path d="M910.376 535.942L876.261 516.645L885.23 506.713C885.23 506.713 910.047 523.566 916.142 528.104C913.417 534.14 910.376 535.942 910.376 535.942Z" fill="#F47365"/>
<path d="M911.36 537.515L910.376 535.942C910.376 535.942 913.417 534.14 916.142 528.104C917.922 529.429 918.862 528.606 919.768 529.317L918.25 533.129C917.139 535.923 914.362 537.691 911.36 537.515Z" fill="white"/>
<path d="M908.923 559.727C908.923 559.727 913.302 561.486 916.639 558.666L923.842 546.501L927.456 540.398L931.583 533.427L933.369 534.05L929.058 541.332L925.283 547.708L918.502 559.161C915.437 564.338 908.335 561.272 908.335 561.272L908.923 559.727Z" fill="#222222"/>
<path d="M913.96 534.274C913.059 535.272 912.036 536.231 910.94 537.088L910.627 536.688C913.71 534.274 916.192 531.058 916.95 528.493L917.437 528.638C916.925 530.376 915.658 532.394 913.96 534.274Z" fill="#020B31"/>
<path d="M882.039 498.948C892.993 498.06 939.177 509.902 939.177 509.902L945.588 540.308C932.263 538.088 922.259 533.841 915.052 529.555L911.644 539.211C911.644 539.211 886.48 532.994 875.822 521.152C865.164 509.31 871.085 499.836 882.039 498.948Z" fill="#111111"/>
<path d="M922.738 516.509C911.65 513.357 884.693 500.856 881.175 508.717C878.264 515.224 885.774 519.353 913.818 533.048" stroke="white" stroke-width="0.5" stroke-miterlimit="10"/>
<path d="M915.052 529.555C915.052 529.555 901.726 521.596 898.026 515.527" stroke="white" stroke-width="0.5" stroke-miterlimit="10" stroke-linecap="round" stroke-linejoin="round"/>
<path d="M919.638 432.928C919.638 432.928 937.401 429.079 945.395 450.987C953.388 472.895 953.388 479.112 964.046 493.619C974.704 508.126 974.704 522.928 974.704 522.928C974.704 522.928 940.954 512.27 916.086 508.717C916.086 508.717 908.685 485.625 904.244 480.592C904.244 480.592 894.77 481.48 896.404 472.255C896.404 472.255 900.099 453.059 901.579 438.553C901.579 438.553 908.98 433.816 919.638 432.928Z" fill="#2E42B2"/>
<path d="M945.392 450.996C943.772 457.365 944.772 464.114 948.325 469.643C951.139 474.023 954.621 479.369 958.102 484.531C952.959 475.367 951.526 467.793 945.394 450.987C945.394 450.987 945.393 450.99 945.392 450.996Z" fill="#2E42B2"/>
<path d="M916.085 508.717C916.085 508.717 908.684 485.625 904.243 480.592C904.243 480.592 894.769 481.48 896.403 472.255C896.403 472.255 900.098 453.059 901.578 438.553" stroke="#222222" stroke-width="0.5" stroke-miterlimit="10" stroke-linecap="round" stroke-linejoin="round"/>
<path d="M922.306 474.667C922.306 474.667 930.399 476.825 935.056 471.001" stroke="#222222" stroke-width="0.5" stroke-miterlimit="10" stroke-linecap="round" stroke-linejoin="round"/>
<path d="M909.987 444.784C910.035 445.206 909.732 445.587 909.31 445.636C908.888 445.684 908.506 445.381 908.458 444.959C908.41 444.537 908.713 444.155 909.135 444.107C909.557 444.059 909.939 444.362 909.987 444.784Z" fill="#222222"/>
<path d="M910.639 449.241C910.687 449.663 910.384 450.044 909.962 450.093C909.54 450.141 909.158 449.838 909.11 449.416C909.062 448.994 909.365 448.613 909.787 448.565C910.21 448.515 910.591 448.819 910.639 449.241Z" fill="#222222"/>
<path d="M878.536 529.055L879.392 528.763L887.924 525.854C887.884 524.604 888.11 523.533 888.917 523.243C889.492 523.037 889.967 523.178 890.355 523.503C891.925 524.817 893.933 525.419 895.953 525.088C898.705 524.637 900.934 525.589 900.934 525.589L901.177 527.601L901.378 529.267C902.749 532.1 903.309 535.258 902.993 538.39L902.981 538.507L894.88 538.497L887.787 538.489L873.65 538.472C869.526 537.032 868.813 532.367 868.813 532.367L878.536 529.055Z" fill="#7F8284"/>
<path d="M890.035 521.527L889.306 482.34L902.419 485.013C902.419 485.013 900.526 514.952 899.717 522.508C893.133 523.229 890.035 521.527 890.035 521.527Z" fill="#F47365"/>
<path d="M889.181 523.174L890.035 521.527C890.035 521.527 893.133 523.229 899.716 522.507C899.48 524.714 900.667 525.105 900.515 526.246L896.461 526.877C893.49 527.341 890.556 525.848 889.181 523.174Z" fill="white"/>
<path d="M868.815 532.369C868.815 532.369 869.527 537.034 873.652 538.474L887.789 538.491L894.882 538.499L902.983 538.509L903.355 540.363L894.892 540.353L887.483 540.344L874.173 540.328C868.156 540.321 867.186 532.647 867.186 532.647L868.815 532.369Z" fill="#222222"/>
<path d="M893.294 523.765C891.976 523.496 890.631 523.104 889.335 522.596L889.521 522.123C893.168 523.55 897.199 524.053 899.793 523.401L899.916 523.894C898.158 524.335 895.776 524.271 893.294 523.765Z" fill="#020B31"/>
<path d="M888.651 523.687C889.046 514.805 887.072 501.976 888.651 479.476C890.23 456.976 907.902 446.843 924.076 470.893C933.464 484.853 950.625 512.041 950.625 512.041L974.704 522.6C974.704 522.6 972.73 540.265 952.599 540.462C932.468 540.659 922.15 533.274 919.046 522.6C918.081 519.28 911.127 500.942 906.505 488.679C906.18 492.25 905.95 495.994 906.02 499.014C906.217 507.501 901.086 523.685 901.086 523.685C901.086 523.685 894.48 526.997 888.651 523.687Z" fill="#222222"/>
<path d="M966.862 519.163C962.514 528.533 959.156 530.827 953.718 530.827C946.544 530.827 942.919 525.93 935.459 510.92C916.085 471.942 913.356 470.467 906.15 471.398C898.896 472.335 900.138 477.798 900.53 487.377C901.174 503.103 897.328 524.877 897.328 524.877" stroke="white" stroke-width="0.5" stroke-miterlimit="10"/>
<path d="M893.766 419.154C893.766 419.154 889.794 418.615 890.06 414.456C890.328 410.265 894.28 411.458 894.28 411.458C894.28 411.458 893.32 414.378 893.766 419.154Z" fill="#FB7869"/>
<path d="M893.081 412.807C893.081 412.807 891.516 412.469 890.873 414.166" stroke="#222222" stroke-width="0.5" stroke-miterlimit="10" stroke-linecap="round" stroke-linejoin="round"/>
<path d="M892.104 413.054C892.104 413.054 891.557 414.727 892.667 416.247" stroke="#222222" stroke-width="0.5" stroke-miterlimit="10" stroke-linecap="round" stroke-linejoin="round"/>
<path d="M894.273 418.719C894.361 419.598 893.719 420.381 892.84 420.469C891.961 420.557 891.178 419.915 891.09 419.036C891.002 418.157 891.644 417.374 892.523 417.286C893.402 417.199 894.185 417.84 894.273 418.719Z" fill="#2E42B2"/>
<path d="M920.262 409.234C921.786 415.353 920.487 422.085 918.628 425.077C918.283 425.632 917.907 426.123 917.518 426.587C913.205 431.739 906.611 431.557 906.611 431.557C906.611 431.557 906.335 431.538 905.869 431.453C903.365 430.996 895.344 428.637 894.866 417.127C894.677 412.576 895.582 408.735 896.872 405.635C897.722 403.593 899.028 401.931 900.6 400.693L902.403 402.524C907.082 407.274 913.612 409.728 920.262 409.234Z" fill="#FB7869"/>
<path d="M921.74 418.595C921.74 418.595 926.638 418.179 926.567 413.07C926.496 407.921 921.583 409.139 921.583 409.139C921.583 409.139 922.579 412.773 921.74 418.595Z" fill="#FB7869"/>
<path d="M922.968 410.864C922.968 410.864 924.905 410.547 925.588 412.665" stroke="#222222" stroke-width="0.5" stroke-miterlimit="10" stroke-linecap="round" stroke-linejoin="round"/>
<path d="M924.15 411.227C924.15 411.227 924.717 413.309 923.265 415.103" stroke="#222222" stroke-width="0.5" stroke-miterlimit="10" stroke-linecap="round" stroke-linejoin="round"/>
<path d="M925.52 417.174C925.627 418.051 925.004 418.848 924.127 418.956C923.25 419.063 922.453 418.44 922.345 417.563C922.238 416.686 922.861 415.889 923.738 415.781C924.615 415.674 925.412 416.297 925.52 417.174Z" fill="#2E42B2"/>
<path d="M905.192 437.578L905.327 435.208L905.39 431.39C905.822 431.472 906.078 431.492 906.078 431.492C906.078 431.492 911.218 432.067 916.395 427.676L917.676 434.176L917.77 434.854C917.77 434.854 917.579 441.265 909.95 442.244C904.538 442.938 905.192 437.578 905.192 437.578Z" fill="#FB7869"/>
<path d="M916.155 429.976C916.344 429.75 916.529 429.518 916.71 429.276L916.395 427.676C911.218 432.067 906.078 431.492 906.078 431.492C906.078 431.492 905.822 431.472 905.39 431.39L905.346 434.778C906.781 434.731 912.367 434.501 916.155 429.976Z" fill="#F27364"/>
<path d="M976.396 437.308C976.396 437.308 947.495 452.312 940.681 452.118C933.866 451.924 921.829 436.629 926.169 432.939L966.59 427.515C966.59 427.515 974.499 427.77 975.98 435.258L976.396 437.308Z" fill="#2E42B2"/>
<path d="M977.069 403.16C980.276 414.337 982.473 433.972 976.396 437.308L976.156 437.198C971.73 435.157 967.598 432.294 966.838 427.479L967.659 398.925C967.471 396.514 966.671 396.348 965.669 394.308C964.667 392.268 962.634 381.705 962.634 381.705C962.634 381.705 965.212 380.554 966.294 387.236C966.294 387.236 967.312 388.639 967.919 386.999C968.526 385.359 970.412 375.071 970.412 375.071C970.412 375.071 970.691 372.633 972.143 372.915L971.743 381.787L975.162 370.892C975.162 370.892 976.757 371.678 975.976 374.542L976.631 372.261C976.631 372.261 978.3 372.582 977.335 377.094C976.371 381.606 975.995 384.834 975.995 384.834L978.604 380.858C978.604 380.858 978.98 376.29 980.422 376.503C980.422 376.503 980.749 380.686 980.565 381.841C980.381 382.996 975.424 395.917 975.424 395.917C975.424 395.917 975.364 396.96 975.453 398.052C975.541 399.146 977.069 403.16 977.069 403.16Z" fill="#FB7869"/>
<path d="M975.975 374.544L973.559 384.125" stroke="#222222" stroke-width="0.5" stroke-miterlimit="10" stroke-linecap="round" stroke-linejoin="round"/>
<path d="M969.951 383.531C969.951 383.531 973.694 383.087 977.071 386.422" stroke="#222222" stroke-width="0.5" stroke-miterlimit="10" stroke-linecap="round" stroke-linejoin="round"/>
<path d="M967.254 387.784C967.254 387.784 971.091 388.936 971.064 393.594" stroke="#222222" stroke-width="0.5" stroke-miterlimit="10" stroke-linecap="round" stroke-linejoin="round"/>
<path d="M910.167 409.506C911.119 410.057 912.187 410.997 913.007 412.598" stroke="#222222" stroke-width="0.5" stroke-miterlimit="10" stroke-linecap="round" stroke-linejoin="round"/>
<path d="M899.443 411.624C899.779 410.802 900.413 409.845 901.602 409.012" stroke="#222222" stroke-width="0.5" stroke-miterlimit="10" stroke-linecap="round" stroke-linejoin="round"/>
<path d="M905.56 412.836C905.56 412.836 905.433 414.932 903.408 416.487C900.937 418.384 901.623 419.324 903.511 420.348" stroke="#222222" stroke-width="0.5" stroke-miterlimit="10" stroke-linecap="round" stroke-linejoin="round"/>
<path d="M906.876 421.655C905.867 421.218 905.676 422.574 905.676 422.574C905.676 422.574 904.469 421.665 904.088 422.68C903.758 423.56 905.681 424.852 906.325 424.63C906.969 424.408 907.738 422.029 906.876 421.655Z" fill="#F43D4F"/>
<path opacity="0.5" d="M912.05 418.978C911.433 418.068 910.544 419.11 910.544 419.11C910.544 419.11 910.013 417.696 909.146 418.349C908.396 418.915 909.327 421.036 909.99 421.194C910.653 421.352 912.577 419.756 912.05 418.978Z" fill="#F43D4F"/>
<path opacity="0.5" d="M897.389 419.729C897.91 418.761 898.9 419.707 898.9 419.707C898.9 419.707 899.284 418.246 900.212 418.807C901.016 419.293 900.307 421.498 899.663 421.724C899.021 421.948 896.944 420.557 897.389 419.729Z" fill="#F43D4F"/>
<path d="M903.285 423.346C903.285 423.346 906.251 424.383 908.093 421.598" stroke="#222222" stroke-width="0.5" stroke-miterlimit="10" stroke-linecap="round" stroke-linejoin="round"/>
<path d="M910.411 415.57C910.351 416.208 909.786 416.676 909.149 416.617C908.511 416.557 908.043 415.992 908.102 415.354C908.162 414.716 908.727 414.248 909.364 414.307C910.002 414.367 910.471 414.933 910.411 415.57Z" fill="#222222"/>
<path d="M912.71 415.719C911.849 415.899 910.712 415.909 909.369 415.394" stroke="#222222" stroke-width="0.5" stroke-miterlimit="10" stroke-linecap="round" stroke-linejoin="round"/>
<path d="M912.682 414.463C911.927 414.914 910.856 415.295 909.418 415.246" stroke="#222222" stroke-width="0.5" stroke-miterlimit="10" stroke-linecap="round" stroke-linejoin="round"/>
<path d="M898.166 412.957C898.84 413.522 899.837 414.069 901.263 414.25" stroke="#222222" stroke-width="0.5" stroke-miterlimit="10" stroke-linecap="round" stroke-linejoin="round"/>
<path d="M898.784 411.862C899.236 412.617 900 413.459 901.29 414.095" stroke="#222222" stroke-width="0.5" stroke-miterlimit="10" stroke-linecap="round" stroke-linejoin="round"/>
<path d="M902.386 414.368C902.326 415.006 901.761 415.474 901.124 415.415C900.486 415.355 900.018 414.79 900.077 414.153C900.137 413.515 900.702 413.047 901.34 413.106C901.977 413.165 902.445 413.73 902.386 414.368Z" fill="#222222"/>
<path d="M906.504 489.007C906.504 489.007 906.019 481.628 903.355 476.152" stroke="white" stroke-width="0.5" stroke-miterlimit="10" stroke-linecap="round" stroke-linejoin="round"/>
</g>
<circle cx="224.5" cy="873.5" r="161.5" fill="#F2F2F2"/>
<circle cx="223.5" cy="872.5" r="116.5" fill="white"/>
<path fill-rule="evenodd" clip-rule="evenodd" d="M48.3604 356.073C43.0194 349.454 37.5854 342.888 32.3523 336.191C25.8634 327.887 26.1181 322.431 33.9918 315.384C44.2302 306.222 54.6425 297.199 65.4114 288.538C71.8554 283.354 73.6657 278.675 72.7785 270.094C70.6625 249.64 58.401 240.988 37.4865 237.74C27.9135 236.254 18.85 232.327 9.3788 230.089C0.956675 228.097 -0.946547 223.499 0.387207 216.513C3.91491 198.043 7.33168 179.556 10.5237 161.04C11.6596 154.453 15.6849 151.526 22.8722 151.619C39.4377 151.833 56.0242 151.822 72.5747 152.432C80.2475 152.721 83.8592 149.539 88.8525 144.532C104.189 129.171 102.96 114.897 90.0843 99.2794C85.13 93.2803 82.0908 86.0434 78.0356 79.4348C72.3859 70.2303 73.5548 64.3995 82.8072 58.3951C98.1408 48.434 113.672 38.7108 128.94 28.6642C136.451 23.7291 143.315 23.983 149.756 29.7656C161.636 40.4298 173.544 51.078 184.997 62.1058C189.016 65.9715 192.678 67.752 198.184 65.2444C199.059 64.8434 200.147 64.6455 201.14 64.6428C224.125 64.6001 234.082 52.7836 237.58 33.9308C239.165 25.3892 243.313 17.2381 246.071 8.84893C248.226 2.2991 253.006 -0.831454 260.442 0.189786C281.533 3.08775 302.61 6.098 323.623 9.40767C331.488 10.6428 334.614 15.6073 334.401 22.6383C333.969 37.1121 333.577 51.5939 333.67 66.0651C333.694 69.3988 334.593 74.1227 337.107 75.7936C345.736 81.5281 354.923 86.8481 364.649 90.8796C367.76 92.1708 373.517 89.5081 377.54 87.7223C390.835 81.8194 403.876 75.4674 417.04 69.3159C425.444 65.3834 432.511 66.3992 438.239 73.6014C449.422 87.6448 460.892 101.501 472.011 115.585C478.288 123.525 477.433 128.158 469.284 135.341C457.292 145.906 445.312 156.48 433.342 167.056C432.158 168.109 429.922 169.435 430.105 170.298C432.284 180.316 433.806 190.614 437.795 200.064C439.327 203.695 446.394 206.162 451.49 207.766C465.51 212.185 479.777 216.016 494.041 219.78C502.025 221.884 504.948 226.536 503.737 233.439C500.548 251.65 497.104 269.826 493.855 288.027C492.602 295.063 488.511 298.662 480.17 298.451C463.613 298.034 447.036 298.111 430.485 297.555C423.268 297.312 417.768 298.56 415.439 305.348C415.155 306.193 414.609 307.07 413.911 307.685C396.17 323.257 404.928 338.054 415.2 353.084C419.749 359.746 423.247 366.981 427.308 373.918C431.256 380.66 429.415 386.317 422.878 390.605C406.777 401.163 390.566 411.597 374.213 421.85C366.828 426.477 359.317 425.67 353.098 419.965C341.57 409.391 330.646 398.286 318.855 387.969C316.178 385.628 310.861 384.457 306.947 384.745C300.287 385.251 293.831 388.237 287.189 388.547C277.035 389.025 273.633 394.153 271.298 401.89C267.333 414.992 262.24 427.811 258.035 440.857C255.752 447.939 250.884 450.88 242.983 449.773C222.231 446.859 201.508 443.814 180.78 440.777C172.96 439.628 169.21 435.925 169.594 428.354C170.349 413.586 170.181 398.783 170.757 384.008C170.979 378.276 169.402 373.996 163.102 371.63C160.62 370.697 157.893 369.686 156.098 368.015C142.092 354.99 128.419 359.821 114.164 367.825C105.343 372.782 95.848 376.803 86.5057 380.97C77.5021 384.981 70.6715 383.355 64.4223 375.91C58.9464 369.384 53.7104 362.692 48.3604 356.073ZM291.991 198.511C275.188 177.824 245.663 173.688 222.342 188.753C199.677 203.39 194.462 231.059 210.563 251.268C226.844 271.695 258.584 276.264 281.635 261.491C304.855 246.616 309.272 219.78 291.991 198.511Z" fill="#F2F2F2"/>
<path d="M972.035 161.111C926.848 155.552 885.502 186.033 879.685 229.192C873.865 272.347 905.779 311.84 950.966 317.396C996.152 322.954 1037.5 292.473 1043.32 249.315L961.5 239.253C961.5 239.253 968.14 189.991 972.035 161.111Z" fill="#F2F2F2"/>
<path d="M987.333 150C983.455 178.856 976.842 228.079 976.842 228.079L1058.32 238.133C1064.11 195.012 1032.33 155.554 987.333 150Z" fill="#EBEBEB"/>
<defs>
<clipPath id="clip0_120_397">
<rect width="750" height="500" fill="white" transform="translate(300 324)"/>
</clipPath>
</defs>
</svg>
